<svg xmlns="http://www.w3.org/2000/svg" xmlns:xlink="http://www.w3.org/1999/xlink" width="183" height="184" viewBox="0 0 183 184">
  <defs>
    <clipPath id="clip-path">
      <rect id="Rectangle_6558" data-name="Rectangle 6558" width="91" height="186" transform="translate(92)" fill="#fff"/>
    </clipPath>
    <clipPath id="clip-_56180-produit-dici">
      <rect width="183" height="184"/>
    </clipPath>
  </defs>
  <g id="_56180-produit-dici" data-name="56180-produit-dici" clip-path="url(#clip-_56180-produit-dici)">
    <rect id="bg" width="181" height="181" fill="none"/>
    <circle id="Ellipse-bleu" cx="90.5" cy="90.5" r="90.5" fill="#1769a3"/>
    <path id="cercle-contour" d="M127.741,381.315a52.5,52.5,0,0,1,47.2,29.194l1.917-3.156a55.624,55.624,0,0,0-49.118-29.124h0c-30.652,0-55.5,24.419-55.5,54.541s24.848,54.541,55.5,54.541a55.819,55.819,0,0,0,39.085-15.818l-2.766-1.692a52.666,52.666,0,0,1-36.318,14.424c-28.871,0-52.36-23.082-52.36-51.455s23.489-51.455,52.36-51.455" transform="translate(-37.239 -340.321)" fill="#fff"/>
    <g id="contour-bleu-texte" transform="translate(0 3)">
      <path id="Tracé_5251" data-name="Tracé 5251" d="M80.642,397.741a11.113,11.113,0,0,0-3.021.417H65.776l-.271,2.795-.021.215a15.382,15.382,0,0,1-.305,2.105L60.056,425.95l-.849,3.755H72.07l.546-2.417,1.179-5.217a10.283,10.283,0,0,0,4.019.759c7.667,0,12.819-5.843,12.819-14.54,0-6.212-4.109-10.549-9.992-10.549Z" transform="translate(-41.078 -332.012)" fill="#1769a3"/>
      <path id="Tracé_5252" data-name="Tracé 5252" d="M97.047,397.741a8.294,8.294,0,0,0-2.61.417H83.272l-.3,2.76c-.17,1.574-.452,3.065-.733,4.442l-2.854,13.331-.8,3.722H91.361l.528-2.445,1.8-8.331.014-.062.01-.064c.043-.245.447-2.391,1.637-2.391.792,0,.959.081.992.105l3.78,2.914,1.2-4.571,1.45-5.52.68-2.589-2.51-1.031a10.261,10.261,0,0,0-3.9-.691Z" transform="translate(-35.371 -332.012)" fill="#1769a3"/>
      <path id="Tracé_5253" data-name="Tracé 5253" d="M105.928,397.741c-8.837,0-15.009,5.652-15.009,13.744,0,5.485,3.34,11.346,12.712,11.346,9.258,0,15.009-5.331,15.009-13.914,0-5.563-3.93-11.175-12.711-11.175Z" transform="translate(-31.741 -332.012)" fill="#1769a3"/>
      <path id="Tracé_5254" data-name="Tracé 5254" d="M139.843,391.821H127.159l-.507,2.478-1.2,5.843a12.119,12.119,0,0,0-4.413-.79c-7.339,0-12.466,5.98-12.466,14.542,0,5.914,4.389,10.547,9.993,10.547a13.055,13.055,0,0,0,3.439-.416h11.5l.269-2.794c.058-.6.151-1.423.346-2.413l4.936-23.282.787-3.716Z" transform="translate(-26.542 -333.623)" fill="#1769a3"/>
      <path id="Tracé_5255" data-name="Tracé 5255" d="M155.368,398.069H142.6l-.529,2.445-1.8,8.329-.014.065-.01.064a4.837,4.837,0,0,1-.734,1.883l0-.012q.068-.318.131-.637l1.759-8.43.774-3.707h-13l-.5,2.489-1.694,8.433a19.2,19.2,0,0,0-.555,4.417c0,5.5,3.644,9.333,8.862,9.333a12.9,12.9,0,0,0,3.35-.416h12.046l.3-2.757c.172-1.577.456-3.068.735-4.445l2.856-13.333.8-3.722Z" transform="translate(-21.287 -331.923)" fill="#1769a3"/>
      <path id="Tracé_5256" data-name="Tracé 5256" d="M162.773,392.148H149.925l-.528,2.446-.989,4.581-.11.505h-.012L147.8,402l-.2.9h0l-3.653,17.322-.783,3.712h12.844l.519-2.46,3.815-18.083.1-.491h0l.528-2.446.989-4.581.8-3.727Z" transform="translate(-16.355 -333.534)" fill="#1769a3"/>
      <path id="Tracé_5257" data-name="Tracé 5257" d="M172.414,392.669l-5,1.318-6.712,1.77-1.837.485-.414,1.824-.334,1.473h-3.762l-.454,2.557-.775,4.374-.642,3.616h3.249l-.29,1.339a19.58,19.58,0,0,0-.634,4.356c0,5.121,3.521,8.43,8.968,8.43a28.937,28.937,0,0,0,4.446-.384l2.234-.346.374-2.192.705-4.13.9-5.259-4.73,1.724.034-.153.176-.819.558-2.566H173.2l.454-2.556.778-4.373.643-3.618h-4.207l.428-1.905,1.115-4.964Z" transform="translate(-13.612 -333.392)" fill="#1769a3"/>
      <path id="Tracé_5267" data-name="Tracé 5267" d="M102.995,419.191H95.151a3.686,3.686,0,0,0-3.8,3.737V443.1a3.686,3.686,0,0,0,3.8,3.736h7.844a14.24,14.24,0,0,0,5.759-1.126,10.043,10.043,0,0,0,4.352-3.536,9.355,9.355,0,0,0,1.6-5.348v-7.617a9.348,9.348,0,0,0-1.592-5.343,10.047,10.047,0,0,0-4.351-3.54,14.255,14.255,0,0,0-5.764-1.131Z" transform="translate(-31.614 -326.175)" fill="#1769a3"/>
      <path id="Tracé_5268" data-name="Tracé 5268" d="M114.8,419.191h-4.588a3.809,3.809,0,0,0-3.78,2.962l-1.485,6.14-.012.048-.01.05a3.6,3.6,0,0,0,.739,3.1,3.763,3.763,0,0,0,2.936,1.323h3.41a3.88,3.88,0,0,0,3.666-2.444l2.562-6.159.085-.2.056-.215.062-.243.1-.382v-.393a3.585,3.585,0,0,0-3.74-3.586Z" transform="translate(-27.641 -326.175)" fill="#1769a3"/>
      <path id="Tracé_5269" data-name="Tracé 5269" d="M119.535,419.191h-4.651a3.686,3.686,0,0,0-3.8,3.737V443.1a3.686,3.686,0,0,0,3.8,3.736h4.651a3.687,3.687,0,0,0,3.8-3.736V422.928a3.688,3.688,0,0,0-3.8-3.737Z" transform="translate(-25.803 -326.175)" fill="#1769a3"/>
      <path id="Tracé_5270" data-name="Tracé 5270" d="M128.528,419a13.076,13.076,0,0,0-5.945,1.325,10.386,10.386,0,0,0-4.3,3.936,10.823,10.823,0,0,0-1.521,5.7v6.156a10.966,10.966,0,0,0,1.516,5.731,10.357,10.357,0,0,0,4.309,3.964,13.087,13.087,0,0,0,5.944,1.32,13.507,13.507,0,0,0,5.89-1.248,10.3,10.3,0,0,0,4.318-3.764,10.125,10.125,0,0,0,1.56-5.546v-.154c0-1.15-.753-3.138-3.579-3.3l-1.059-.056,1.083-.071.069,0,.067-.007A3.556,3.556,0,0,0,140.3,429.5a10.051,10.051,0,0,0-1.568-5.544,10.236,10.236,0,0,0-4.33-3.728,13.626,13.626,0,0,0-5.87-1.228Zm.487,14.989V432.3a3.41,3.41,0,0,0,1.364.805,3.751,3.751,0,0,0-.681.336,3.623,3.623,0,0,0-.682.552Z" transform="translate(-24.132 -326.227)" fill="#1769a3"/>
      <path id="Tracé_5271" data-name="Tracé 5271" d="M139.533,419.191h-4.651a3.686,3.686,0,0,0-3.8,3.737V443.1a3.686,3.686,0,0,0,3.8,3.736h4.651a3.687,3.687,0,0,0,3.8-3.736V422.928a3.688,3.688,0,0,0-3.8-3.737Z" transform="translate(-19.915 -326.175)" fill="#1769a3"/>
    </g>
    <g id="texte" transform="translate(0 3)">
      <path id="Tracé_5260" data-name="Tracé 5260" d="M67.224,403.291a19.785,19.785,0,0,0,.388-2.706H73.44l-.494,2.88h.071a8.5,8.5,0,0,1,6.6-3.3c4.522,0,6.853,3.4,6.853,7.463,0,5.936-3.038,11.454-9.679,11.454a6.355,6.355,0,0,1-5.934-3.436l-2.33,10.309H62.1Zm7.877,11c3,0,4.8-2.811,4.8-5.623,0-2.221-1.024-3.713-3.037-3.713-3,0-4.8,3.263-4.8,5.657C72.063,412.454,72.982,414.295,75.1,414.295Z" transform="translate(-40.224 -331.351)" fill="#fff"/>
      <path id="Tracé_5261" data-name="Tracé 5261" d="M90.987,400.586l-.708,3.713h.071c1.024-2.118,3.073-4.132,5.687-4.132a7.25,7.25,0,0,1,2.685.453l-1.448,5.518a4.472,4.472,0,0,0-2.931-.763c-2.686,0-4.274,2.29-4.734,4.962l-1.8,8.331H81.45L84.312,405.3c.317-1.561.6-3.09.775-4.719Z" transform="translate(-34.527 -331.351)" fill="#fff"/>
      <path id="Tracé_5262" data-name="Tracé 5262" d="M102.787,419.084c-6.817,0-9.571-3.713-9.571-8.26,0-6.353,4.663-10.658,11.869-10.658,6.251,0,9.571,3.543,9.571,8.089C114.656,415.787,109.676,419.084,102.787,419.084Zm1.979-14.544c-3.074,0-4.98,3.263-4.98,6.145,0,2.428,1.306,4.059,3.461,4.025,2.966,0,4.839-2.43,4.839-6.525C108.087,406.312,107.237,404.541,104.766,404.541Z" transform="translate(-31.063 -331.351)" fill="#fff"/>
      <path id="Tracé_5263" data-name="Tracé 5263" d="M124.471,417.4h-.07a7.429,7.429,0,0,1-6.675,3.3c-3.956,0-6.852-3.4-6.852-7.462,0-5.936,3.037-11.455,9.324-11.455,3.214,0,5.439,1.39,6.393,3.333h.07l2.225-10.864h6.251l-4.943,23.325a26.942,26.942,0,0,0-.388,2.707h-5.828Zm.813-7.149c0-1.806-.918-3.679-3.038-3.679-3,0-4.8,2.81-4.8,5.623,0,2.221,1.024,3.713,3.038,3.713C123.482,415.906,125.284,412.643,125.284,410.249Z" transform="translate(-25.864 -332.962)" fill="#fff"/>
      <path id="Tracé_5264" data-name="Tracé 5264" d="M147.792,413.858c-.317,1.562-.6,3.09-.777,4.721h-5.9l.5-2.951h-.07a8.783,8.783,0,0,1-7.1,3.367c-3.707,0-5.721-2.707-5.721-6.247a16.361,16.361,0,0,1,.5-3.819l1.694-8.433h6.569l-1.767,8.468a14.332,14.332,0,0,0-.423,2.743,2.086,2.086,0,0,0,2.472,2.083c2.686,0,4.274-2.291,4.732-4.964l1.8-8.33h6.358Z" transform="translate(-20.609 -331.262)" fill="#fff"/>
      <path id="Tracé_5265" data-name="Tracé 5265" d="M149.836,402.107h6.43l-3.815,18.083h-6.428Zm1.626-7.533h6.427l-.989,4.582h-6.427Z" transform="translate(-15.514 -332.873)" fill="#fff"/>
      <path id="Tracé_5266" data-name="Tracé 5266" d="M156.021,401.706h3.64l.882-3.889,6.71-1.769-1.271,5.658h4.38l-.778,4.373h-4.626l-1.1,5.031a16.765,16.765,0,0,0-.529,3.124,1.922,1.922,0,0,0,2.084,2.014,6.33,6.33,0,0,0,2.048-.521l-.705,4.132a26.307,26.307,0,0,1-3.957.346c-3.249,0-5.828-1.561-5.828-5.344a16.808,16.808,0,0,1,.566-3.715l1.1-5.067h-3.39Z" transform="translate(-12.798 -332.472)" fill="#fff"/>
      <path id="Tracé_5272" data-name="Tracé 5272" d="M93.7,442.419V422.252a.517.517,0,0,1,.589-.579h7.844a10.959,10.959,0,0,1,4.448.854,6.867,6.867,0,0,1,2.993,2.408,6.26,6.26,0,0,1,1.054,3.6v7.617a6.262,6.262,0,0,1-1.054,3.595,6.855,6.855,0,0,1-2.993,2.407,10.961,10.961,0,0,1-4.448.851H94.288A.516.516,0,0,1,93.7,442.419Zm6.077-4.325h2.572a2.165,2.165,0,0,0,1.736-.808,3.288,3.288,0,0,0,.715-2.117V429.5a3.175,3.175,0,0,0-.683-2.118,2.242,2.242,0,0,0-1.8-.8H99.776a.216.216,0,0,0-.249.243v11.028A.216.216,0,0,0,99.776,438.094Z" transform="translate(-30.921 -325.5)" fill="#fff"/>
      <path id="Tracé_5273" data-name="Tracé 5273" d="M114.466,422.1l-.063.243-2.572,6.185a.68.68,0,0,1-.682.455h-3.41a.554.554,0,0,1-.45-.167.535.535,0,0,1-.078-.471l1.489-6.157a.608.608,0,0,1,.651-.518h4.588C114.29,421.673,114.466,421.818,114.466,422.1Z" transform="translate(-26.948 -325.5)" fill="#fff"/>
      <path id="Tracé_5274" data-name="Tracé 5274" d="M113.433,442.419V422.252a.517.517,0,0,1,.589-.579h4.65a.518.518,0,0,1,.59.579v20.167a.517.517,0,0,1-.59.58h-4.65A.516.516,0,0,1,113.433,442.419Z" transform="translate(-25.11 -325.5)" fill="#fff"/>
      <path id="Tracé_5275" data-name="Tracé 5275" d="M123.185,442.322a7.2,7.2,0,0,1-3.007-2.757,7.868,7.868,0,0,1-1.069-4.128v-6.156a7.728,7.728,0,0,1,1.069-4.082,7.21,7.21,0,0,1,3.007-2.74,9.819,9.819,0,0,1,4.48-.978,10.37,10.37,0,0,1,4.479.916,7.06,7.06,0,0,1,3.007,2.575,6.945,6.945,0,0,1,1.07,3.853c0,.182-.185.3-.557.336l-4.651.305h-.155c-.311,0-.466-.052-.466-.154v-.182a2.7,2.7,0,0,0-.743-1.995,3,3,0,0,0-3.969,0,2.7,2.7,0,0,0-.743,1.995v6.551a2.729,2.729,0,1,0,5.455,0,.309.309,0,0,1,.171-.26.684.684,0,0,1,.45-.076l4.651.243c.372.022.557.071.557.151v.154a7.018,7.018,0,0,1-1.07,3.868,7.114,7.114,0,0,1-3.007,2.605,10.243,10.243,0,0,1-4.479.929A9.837,9.837,0,0,1,123.185,442.322Z" transform="translate(-23.439 -325.553)" fill="#fff"/>
      <path id="Tracé_5276" data-name="Tracé 5276" d="M133.431,442.419V422.252a.517.517,0,0,1,.589-.579h4.65a.518.518,0,0,1,.59.579v20.167a.517.517,0,0,1-.59.58h-4.65A.516.516,0,0,1,133.431,442.419Z" transform="translate(-19.222 -325.5)" fill="#fff"/>
    </g>
    <g id="Groupe_de_masques_98" data-name="Groupe de masques 98" clip-path="url(#clip-path)">
      <circle id="Ellipse-rouge" cx="90.5" cy="90.5" r="90.5" fill="#d81e05"/>
      <path id="cercle-contour-2" data-name="cercle-contour" d="M121.358,381.315a52.5,52.5,0,0,0-47.2,29.194l-1.917-3.156a55.624,55.624,0,0,1,49.118-29.124h0c30.652,0,55.5,24.419,55.5,54.541s-24.848,54.541-55.5,54.541a55.819,55.819,0,0,1-39.085-15.818L85.04,469.8a52.666,52.666,0,0,0,36.318,14.424c28.871,0,52.36-23.082,52.36-51.455s-23.489-51.455-52.36-51.455" transform="translate(-31.239 -340.321)" fill="#fff"/>
      <g id="contour-rouge-texte" transform="translate(0 3)">
        <path id="Tracé_5251-2" data-name="Tracé 5251" d="M80.642,397.741a11.113,11.113,0,0,0-3.021.417H65.776l-.271,2.795-.021.215a15.382,15.382,0,0,1-.305,2.105L60.056,425.95l-.849,3.755H72.07l.546-2.417,1.179-5.217a10.283,10.283,0,0,0,4.019.759c7.667,0,12.819-5.843,12.819-14.54,0-6.212-4.109-10.549-9.992-10.549Z" transform="translate(-41.078 -332.012)" fill="#d81e05"/>
        <path id="Tracé_5252-2" data-name="Tracé 5252" d="M97.047,397.741a8.294,8.294,0,0,0-2.61.417H83.272l-.3,2.76c-.17,1.574-.452,3.065-.733,4.442l-2.854,13.331-.8,3.722H91.361l.528-2.445,1.8-8.331.014-.062.01-.064c.043-.245.447-2.391,1.637-2.391.792,0,.959.081.992.105l3.78,2.914,1.2-4.571,1.45-5.52.68-2.589-2.51-1.031a10.261,10.261,0,0,0-3.9-.691Z" transform="translate(-35.371 -332.012)" fill="#d81e05"/>
        <path id="Tracé_5253-2" data-name="Tracé 5253" d="M105.928,397.741c-8.837,0-15.009,5.652-15.009,13.744,0,5.485,3.34,11.346,12.712,11.346,9.258,0,15.009-5.331,15.009-13.914,0-5.563-3.93-11.175-12.711-11.175Z" transform="translate(-31.741 -332.012)" fill="#d81e05"/>
        <path id="Tracé_5254-2" data-name="Tracé 5254" d="M139.843,391.821H127.159l-.507,2.478-1.2,5.843a12.119,12.119,0,0,0-4.413-.79c-7.339,0-12.466,5.98-12.466,14.542,0,5.914,4.389,10.547,9.993,10.547a13.055,13.055,0,0,0,3.439-.416h11.5l.269-2.794c.058-.6.151-1.423.346-2.413l4.936-23.282.787-3.716Z" transform="translate(-26.542 -333.623)" fill="#d81e05"/>
        <path id="Tracé_5255-2" data-name="Tracé 5255" d="M155.368,398.069H142.6l-.529,2.445-1.8,8.329-.014.065-.01.064a4.837,4.837,0,0,1-.734,1.883l0-.012q.068-.318.131-.637l1.759-8.43.774-3.707h-13l-.5,2.489-1.694,8.433a19.2,19.2,0,0,0-.555,4.417c0,5.5,3.644,9.333,8.862,9.333a12.9,12.9,0,0,0,3.35-.416h12.046l.3-2.757c.172-1.577.456-3.068.735-4.445l2.856-13.333.8-3.722Z" transform="translate(-21.287 -331.923)" fill="#d81e05"/>
        <path id="Tracé_5256-2" data-name="Tracé 5256" d="M162.773,392.148H149.925l-.528,2.446-.989,4.581-.11.505h-.012L147.8,402l-.2.9h0l-3.653,17.322-.783,3.712h12.844l.519-2.46,3.815-18.083.1-.491h0l.528-2.446.989-4.581.8-3.727Z" transform="translate(-16.355 -333.534)" fill="#d81e05"/>
        <path id="Tracé_5257-2" data-name="Tracé 5257" d="M172.414,392.669l-5,1.318-6.712,1.77-1.837.485-.414,1.824-.334,1.473h-3.762l-.454,2.557-.775,4.374-.642,3.616h3.249l-.29,1.339a19.58,19.58,0,0,0-.634,4.356c0,5.121,3.521,8.43,8.968,8.43a28.937,28.937,0,0,0,4.446-.384l2.234-.346.374-2.192.705-4.13.9-5.259-4.73,1.724.034-.153.176-.819.558-2.566H173.2l.454-2.556.778-4.373.643-3.618h-4.207l.428-1.905,1.115-4.964Z" transform="translate(-13.612 -333.392)" fill="#d81e05"/>
        <path id="Tracé_5267-2" data-name="Tracé 5267" d="M102.995,419.191H95.151a3.686,3.686,0,0,0-3.8,3.737V443.1a3.686,3.686,0,0,0,3.8,3.736h7.844a14.24,14.24,0,0,0,5.759-1.126,10.043,10.043,0,0,0,4.352-3.536,9.355,9.355,0,0,0,1.6-5.348v-7.617a9.348,9.348,0,0,0-1.592-5.343,10.047,10.047,0,0,0-4.351-3.54,14.255,14.255,0,0,0-5.764-1.131Z" transform="translate(-31.614 -326.175)" fill="#d81e05"/>
        <path id="Tracé_5268-2" data-name="Tracé 5268" d="M114.8,419.191h-4.588a3.809,3.809,0,0,0-3.78,2.962l-1.485,6.14-.012.048-.01.05a3.6,3.6,0,0,0,.739,3.1,3.763,3.763,0,0,0,2.936,1.323h3.41a3.88,3.88,0,0,0,3.666-2.444l2.562-6.159.085-.2.056-.215.062-.243.1-.382v-.393a3.585,3.585,0,0,0-3.74-3.586Z" transform="translate(-27.641 -326.175)" fill="#d81e05"/>
        <path id="Tracé_5269-2" data-name="Tracé 5269" d="M119.535,419.191h-4.651a3.686,3.686,0,0,0-3.8,3.737V443.1a3.686,3.686,0,0,0,3.8,3.736h4.651a3.687,3.687,0,0,0,3.8-3.736V422.928a3.688,3.688,0,0,0-3.8-3.737Z" transform="translate(-25.803 -326.175)" fill="#d81e05"/>
        <path id="Tracé_5270-2" data-name="Tracé 5270" d="M128.528,419a13.076,13.076,0,0,0-5.945,1.325,10.386,10.386,0,0,0-4.3,3.936,10.823,10.823,0,0,0-1.521,5.7v6.156a10.966,10.966,0,0,0,1.516,5.731,10.357,10.357,0,0,0,4.309,3.964,13.087,13.087,0,0,0,5.944,1.32,13.507,13.507,0,0,0,5.89-1.248,10.3,10.3,0,0,0,4.318-3.764,10.125,10.125,0,0,0,1.56-5.546v-.154c0-1.15-.753-3.138-3.579-3.3l-1.059-.056,1.083-.071.069,0,.067-.007A3.556,3.556,0,0,0,140.3,429.5a10.051,10.051,0,0,0-1.568-5.544,10.236,10.236,0,0,0-4.33-3.728,13.626,13.626,0,0,0-5.87-1.228Zm.487,14.989V432.3a3.41,3.41,0,0,0,1.364.805,3.751,3.751,0,0,0-.681.336,3.623,3.623,0,0,0-.682.552Z" transform="translate(-24.132 -326.227)" fill="#d81e05"/>
        <path id="Tracé_5271-2" data-name="Tracé 5271" d="M139.533,419.191h-4.651a3.686,3.686,0,0,0-3.8,3.737V443.1a3.686,3.686,0,0,0,3.8,3.736h4.651a3.687,3.687,0,0,0,3.8-3.736V422.928a3.688,3.688,0,0,0-3.8-3.737Z" transform="translate(-19.915 -326.175)" fill="#d81e05"/>
      </g>
    </g>
    <g id="texte-2" data-name="texte" transform="translate(0 3)">
      <path id="Tracé_5260-2" data-name="Tracé 5260" d="M67.224,403.291a19.785,19.785,0,0,0,.388-2.706H73.44l-.494,2.88h.071a8.5,8.5,0,0,1,6.6-3.3c4.522,0,6.853,3.4,6.853,7.463,0,5.936-3.038,11.454-9.679,11.454a6.355,6.355,0,0,1-5.934-3.436l-2.33,10.309H62.1Zm7.877,11c3,0,4.8-2.811,4.8-5.623,0-2.221-1.024-3.713-3.037-3.713-3,0-4.8,3.263-4.8,5.657C72.063,412.454,72.982,414.295,75.1,414.295Z" transform="translate(-40.224 -331.351)" fill="#fff"/>
      <path id="Tracé_5261-2" data-name="Tracé 5261" d="M90.987,400.586l-.708,3.713h.071c1.024-2.118,3.073-4.132,5.687-4.132a7.25,7.25,0,0,1,2.685.453l-1.448,5.518a4.472,4.472,0,0,0-2.931-.763c-2.686,0-4.274,2.29-4.734,4.962l-1.8,8.331H81.45L84.312,405.3c.317-1.561.6-3.09.775-4.719Z" transform="translate(-34.527 -331.351)" fill="#fff"/>
      <path id="Tracé_5262-2" data-name="Tracé 5262" d="M102.787,419.084c-6.817,0-9.571-3.713-9.571-8.26,0-6.353,4.663-10.658,11.869-10.658,6.251,0,9.571,3.543,9.571,8.089C114.656,415.787,109.676,419.084,102.787,419.084Zm1.979-14.544c-3.074,0-4.98,3.263-4.98,6.145,0,2.428,1.306,4.059,3.461,4.025,2.966,0,4.839-2.43,4.839-6.525C108.087,406.312,107.237,404.541,104.766,404.541Z" transform="translate(-31.063 -331.351)" fill="#fff"/>
      <path id="Tracé_5263-2" data-name="Tracé 5263" d="M124.471,417.4h-.07a7.429,7.429,0,0,1-6.675,3.3c-3.956,0-6.852-3.4-6.852-7.462,0-5.936,3.037-11.455,9.324-11.455,3.214,0,5.439,1.39,6.393,3.333h.07l2.225-10.864h6.251l-4.943,23.325a26.942,26.942,0,0,0-.388,2.707h-5.828Zm.813-7.149c0-1.806-.918-3.679-3.038-3.679-3,0-4.8,2.81-4.8,5.623,0,2.221,1.024,3.713,3.038,3.713C123.482,415.906,125.284,412.643,125.284,410.249Z" transform="translate(-25.864 -332.962)" fill="#fff"/>
      <path id="Tracé_5264-2" data-name="Tracé 5264" d="M147.792,413.858c-.317,1.562-.6,3.09-.777,4.721h-5.9l.5-2.951h-.07a8.783,8.783,0,0,1-7.1,3.367c-3.707,0-5.721-2.707-5.721-6.247a16.361,16.361,0,0,1,.5-3.819l1.694-8.433h6.569l-1.767,8.468a14.332,14.332,0,0,0-.423,2.743,2.086,2.086,0,0,0,2.472,2.083c2.686,0,4.274-2.291,4.732-4.964l1.8-8.33h6.358Z" transform="translate(-20.609 -331.262)" fill="#fff"/>
      <path id="Tracé_5265-2" data-name="Tracé 5265" d="M149.836,402.107h6.43l-3.815,18.083h-6.428Zm1.626-7.533h6.427l-.989,4.582h-6.427Z" transform="translate(-15.514 -332.873)" fill="#fff"/>
      <path id="Tracé_5266-2" data-name="Tracé 5266" d="M156.021,401.706h3.64l.882-3.889,6.71-1.769-1.271,5.658h4.38l-.778,4.373h-4.626l-1.1,5.031a16.765,16.765,0,0,0-.529,3.124,1.922,1.922,0,0,0,2.084,2.014,6.33,6.33,0,0,0,2.048-.521l-.705,4.132a26.307,26.307,0,0,1-3.957.346c-3.249,0-5.828-1.561-5.828-5.344a16.808,16.808,0,0,1,.566-3.715l1.1-5.067h-3.39Z" transform="translate(-12.798 -332.472)" fill="#fff"/>
      <path id="Tracé_5272-2" data-name="Tracé 5272" d="M93.7,442.419V422.252a.517.517,0,0,1,.589-.579h7.844a10.959,10.959,0,0,1,4.448.854,6.867,6.867,0,0,1,2.993,2.408,6.26,6.26,0,0,1,1.054,3.6v7.617a6.262,6.262,0,0,1-1.054,3.595,6.855,6.855,0,0,1-2.993,2.407,10.961,10.961,0,0,1-4.448.851H94.288A.516.516,0,0,1,93.7,442.419Zm6.077-4.325h2.572a2.165,2.165,0,0,0,1.736-.808,3.288,3.288,0,0,0,.715-2.117V429.5a3.175,3.175,0,0,0-.683-2.118,2.242,2.242,0,0,0-1.8-.8H99.776a.216.216,0,0,0-.249.243v11.028A.216.216,0,0,0,99.776,438.094Z" transform="translate(-30.921 -325.5)" fill="#fff"/>
      <path id="Tracé_5273-2" data-name="Tracé 5273" d="M114.466,422.1l-.063.243-2.572,6.185a.68.68,0,0,1-.682.455h-3.41a.554.554,0,0,1-.45-.167.535.535,0,0,1-.078-.471l1.489-6.157a.608.608,0,0,1,.651-.518h4.588C114.29,421.673,114.466,421.818,114.466,422.1Z" transform="translate(-26.948 -325.5)" fill="#fff"/>
      <path id="Tracé_5274-2" data-name="Tracé 5274" d="M113.433,442.419V422.252a.517.517,0,0,1,.589-.579h4.65a.518.518,0,0,1,.59.579v20.167a.517.517,0,0,1-.59.58h-4.65A.516.516,0,0,1,113.433,442.419Z" transform="translate(-25.11 -325.5)" fill="#fff"/>
      <path id="Tracé_5275-2" data-name="Tracé 5275" d="M123.185,442.322a7.2,7.2,0,0,1-3.007-2.757,7.868,7.868,0,0,1-1.069-4.128v-6.156a7.728,7.728,0,0,1,1.069-4.082,7.21,7.21,0,0,1,3.007-2.74,9.819,9.819,0,0,1,4.48-.978,10.37,10.37,0,0,1,4.479.916,7.06,7.06,0,0,1,3.007,2.575,6.945,6.945,0,0,1,1.07,3.853c0,.182-.185.3-.557.336l-4.651.305h-.155c-.311,0-.466-.052-.466-.154v-.182a2.7,2.7,0,0,0-.743-1.995,3,3,0,0,0-3.969,0,2.7,2.7,0,0,0-.743,1.995v6.551a2.729,2.729,0,1,0,5.455,0,.309.309,0,0,1,.171-.26.684.684,0,0,1,.45-.076l4.651.243c.372.022.557.071.557.151v.154a7.018,7.018,0,0,1-1.07,3.868,7.114,7.114,0,0,1-3.007,2.605,10.243,10.243,0,0,1-4.479.929A9.837,9.837,0,0,1,123.185,442.322Z" transform="translate(-23.439 -325.553)" fill="#fff"/>
      <path id="Tracé_5276-2" data-name="Tracé 5276" d="M133.431,442.419V422.252a.517.517,0,0,1,.589-.579h4.65a.518.518,0,0,1,.59.579v20.167a.517.517,0,0,1-.59.58h-4.65A.516.516,0,0,1,133.431,442.419Z" transform="translate(-19.222 -325.5)" fill="#fff"/>
    </g>
  </g>
</svg>
