<svg xmlns="http://www.w3.org/2000/svg" xmlns:xlink="http://www.w3.org/1999/xlink" width="183" height="184" viewBox="0 0 183 184">
  <defs>
    <clipPath id="clip-_67467-icone-Brewtech-Hub">
      <rect width="183" height="184"/>
    </clipPath>
  </defs>
  <g id="_67467-icone-Brewtech-Hub" data-name="67467-icone-Brewtech-Hub" clip-path="url(#clip-_67467-icone-Brewtech-Hub)">
    <path id="Union_29" data-name="Union 29" d="M24.235,111.01a26.083,26.083,0,0,1-17.853-6.923c-1.364-1.226-1.78-2.537-1.249-3.946.541-1.433,1.671-2.129,3.536-2.13q18.528-.007,37.058,0t37.058,0c2.471,0,4.06,1.519,3.673,3.7a4.52,4.52,0,0,1-1.383,2.333,25.738,25.738,0,0,1-17.824,6.959q-10.754.038-21.509.038T24.235,111.01Zm-5.69-19.527a2.2,2.2,0,0,1-1.441-.668C9.41,82.4,4.824,72.394,2.185,61.412A80.66,80.66,0,0,1,0,42.955c-.012-2.387,1.275-3.705,3.657-3.706q42.093-.006,84.186,0c2.367,0,3.662,1.363,3.625,3.735-.014.864,0,1.729,0,2.767,3.091,0,6.189-.007,9.287,0a10.12,10.12,0,0,1,5,1.157,9.508,9.508,0,0,1,5.2,8.856A29.208,29.208,0,0,1,87.315,84.2a55.028,55.028,0,0,1-7.325.57,1.812,1.812,0,0,0-1.6.8Q76.462,88.248,74.36,90.8a2.1,2.1,0,0,1-1.425.684q-13.649.026-27.3.026Q32.091,91.509,18.545,91.483ZM90.829,52.275a75.744,75.744,0,0,1-7.788,25.831A21.326,21.326,0,0,0,92.8,75.265c7.477-4.382,11.369-10.944,11.658-19.609a3.135,3.135,0,0,0-3.095-3.363c-1.432-.026-2.865-.033-4.309-.033C95.011,52.26,92.945,52.275,90.829,52.275ZM63.137,31.73A3.235,3.235,0,0,1,62.92,27c2.484-3.1,2.366-5.775-.395-8.9A12.459,12.459,0,0,1,62.749,1.17,3.268,3.268,0,0,1,66.488.254a3.848,3.848,0,0,1,2.189,3.059A11.7,11.7,0,0,1,67.653,5.39c-2.56,3.358-2.487,5.869.349,9.08a12.425,12.425,0,0,1-.151,16.77,3.658,3.658,0,0,1-2.657,1.293A3.133,3.133,0,0,1,63.137,31.73Zm-19.531-.018a3.223,3.223,0,0,1-.246-4.649c2.518-3.184,2.432-5.826-.289-8.9a12.417,12.417,0,0,1-.03-16.769c1.455-1.6,3.326-1.843,4.784-.608s1.541,3.13.185,4.81c-2.353,2.913-2.315,5.757.222,8.565A12.54,12.54,0,0,1,51.658,22.8a12.186,12.186,0,0,1-3.41,8.536A3.51,3.51,0,0,1,45.7,32.531,3.161,3.161,0,0,1,43.606,31.713Zm-19.5,0c-1.419-1.238-1.493-3.1-.186-4.733a6.114,6.114,0,0,0,1.711-4.545,6.183,6.183,0,0,0-1.986-4.194,12.131,12.131,0,0,1-3.293-9.43,12.028,12.028,0,0,1,3.4-7.657A3.22,3.22,0,0,1,28.394.851a3.1,3.1,0,0,1,.223,4.55,6.156,6.156,0,0,0-.958,7.389,14.774,14.774,0,0,0,1.413,1.776,12.437,12.437,0,0,1-.255,16.692,3.644,3.644,0,0,1-2.644,1.273A3.131,3.131,0,0,1,24.1,31.717Z" transform="translate(38 32)" fill="#fff" stroke="rgba(0,0,0,0)" stroke-miterlimit="10" stroke-width="1"/>
  </g>
</svg>
