<svg xmlns="http://www.w3.org/2000/svg" xmlns:xlink="http://www.w3.org/1999/xlink" width="183" height="184" viewBox="0 0 183 184">
  <defs>
    <clipPath id="clip-_67729-icone-warehouse-price-qc-v3">
      <rect width="183" height="184"/>
    </clipPath>
  </defs>
  <g id="_67729-icone-warehouse-price-qc-v3" data-name="67729-icone-warehouse-price-qc-v3" clip-path="url(#clip-_67729-icone-warehouse-price-qc-v3)">
    <path id="Union_29" data-name="Union 29" d="M61.508,147.27q-29.435-20.8-58.84-41.636C-.61,103.31-.9,99.3,1.975,95.99c4.354-5.011,8.761-9.977,13.137-14.969q11.934-13.612,23.864-27.23,7.647-8.7,15.341-17.368a8.448,8.448,0,0,1,5.1-2.864c6.97-1.164,13.934-2.371,20.9-3.553A8.507,8.507,0,0,1,81.453,30c-.774,1.255-3.52,6.1-3.761,6.53-3.855,6.831-7.8,13.614-11.538,20.506-1.025,1.89-1.448,4.106-2.2,6.332a3.666,3.666,0,0,1-.722-.386c-2.766-1.945-5.516-3.911-8.279-5.86-3.073-2.167-5.625-1.872-8.118.964Q36.2,70.189,25.572,82.3c-3.306,3.763-6.646,7.5-9.917,11.29a11.113,11.113,0,0,0-1.965,3c-.978,2.436-.224,4.561,2.158,6.277,4.36,3.14,8.771,6.212,13.159,9.312q15.459,10.924,30.913,21.854c3.186,2.259,6.378,1.683,8.436-1.724,1.59-2.632,3.03-5.354,4.545-8.032.41-.725.85-1.433,1.433-2.412l1.8,6.225c.138,1.159,2.448,1.81,3.221,2.339-1.612,2.9-3.151,5.684-4.706,8.459-1.18,2.105-2.343,4.222-3.581,6.293a6.433,6.433,0,0,1-5.493,3.5A7.075,7.075,0,0,1,61.508,147.27ZM76.742,123.1c-2.179-12.845-4.409-25.681-6.609-38.523C68.91,77.444,67.625,70.32,66.56,63.163a7.344,7.344,0,0,1,.821-4.308C72.2,50.076,77.16,41.371,82.109,32.663c1.645-2.894,3.766-3.434,6.69-1.809,2.367,1.315,4.718,2.657,7.554,4.257-1.594,1.494-2.923,2.805-4.345,4.006-.235.2-.9-.021-1.334-.162a5.24,5.24,0,0,0-4.686,9.315,5.433,5.433,0,0,0,6.78-1.009,11.552,11.552,0,0,1,1.8-1.447c.988-.688,2.058-1.264,3.009-2s1.8-1.6,2.691-2.4a6.012,6.012,0,0,0,1.267-1.847c.233-.763.748-1.147,1.878-.5,3.978,2.287,8.039,4.437,11.962,6.813a6.25,6.25,0,0,1,2.386,2.842c5.96,14.9,11.825,29.837,17.717,44.765q2.326,5.892,4.663,11.778c.2.505.418,1,.593,1.517,1.1,3.228-.187,5.774-3.484,6.707-6.1,1.729-12.225,3.391-18.336,5.092q-17.106,4.762-34.208,9.543a11.916,11.916,0,0,1-3.147.515C78.767,128.643,77.392,126.932,76.742,123.1Zm35.334-59q-15.806,4.364-31.6,8.775c-4.266,1.184-5.063,2.406-4.324,6.777q1.888,11.15,3.807,22.3c.785,4.577,1.532,9.161,2.4,13.721.559,2.931,2.714,4.359,5.385,3.622q20.61-5.681,41.2-11.436c1.911-.533,3-2.093,2.989-4.51-.151-.489-.378-1.426-.725-2.316q-2.995-7.67-6.037-15.321c-2.482-6.282-4.948-12.571-7.46-18.841-.813-2.029-2.093-3.026-3.9-3.026A6.572,6.572,0,0,0,112.076,64.1ZM41.761,114.025l2.573-4.487a23.285,23.285,0,0,1-9.14-11.964l9.426-4.433a17.664,17.664,0,0,0,8.188,10.307c1.877,1.072,4.022,1.447,4.757.166s-.281-2.713-3.2-5.168c-4.868-4.09-12.43-10.113-7.71-18.347,2.855-4.98,9.188-7.449,16.986-4.238L65.97,71.8l3.6,21.551-1.156.494a18.878,18.878,0,0,0-7.321-8.5c-2.469-1.411-3.521-.834-4,0-.735,1.282.344,2.487,3.512,5.083,4.9,4.041,12.042,10.219,7.689,17.812-3.646,6.36-10.085,7.984-17.607,4.864l-2.6,4.537Zm60.848-9.808a16.96,16.96,0,0,1-10.849-1.458l2.56-7.11a12.866,12.866,0,0,0,9.507,1.1c1.515-.412,2.81-1.319,2.529-2.355s-1.54-1.249-4.3-1.013c-4.6.4-11.586,1.18-13.4-5.469-1.1-4.022.886-8.537,6.543-10.885l-1.02-3.742,5.105-1.386,1.042,3.822a17.261,17.261,0,0,1,9.33,1.229L106.9,83.809a13.746,13.746,0,0,0-8.134-.613c-1.994.542-2.237,1.377-2.053,2.054.282,1.035,1.456,1.1,4.418.81,4.593-.435,11.441-.926,13.112,5.205,1.4,5.136-1.072,9.271-6.54,11.525l1,3.663L103.6,107.84ZM87.32,44.072c-.161-1.543.807-2.09,2.167-2.325,3.831-.662,6.418-3.107,8.14-6.336,4.508-8.449,4.509-16.974-.252-25.348a14.669,14.669,0,0,0-3.15-3.689,8.99,8.99,0,0,0-12.848.71c-5.267,5.581-6.39,12.351-5.6,19.657.052.478.14.951.188,1.429.011.107-.073.223-.113.335a1.12,1.12,0,0,1-.29.206c-3.215.969-3.457.82-3.741-2.489-.528-6.139.113-12.131,3.409-17.445A22.9,22.9,0,0,1,80.978,2.41C86.813-1.841,94.632-.331,99.236,5.856c6.41,8.615,6.956,18.122,3.518,28a17.764,17.764,0,0,1-7.167,9.513,21.339,21.339,0,0,1-5.3,2.195,3.4,3.4,0,0,1-.968.15A1.848,1.848,0,0,1,87.32,44.072Zm17.623-10.719c.293,1.676.527,3.008.785,4.482C103,36.927,102.959,36.7,104.942,33.354ZM89.4,28.977l.007-.544L99,26.811c-.283,1.392-.5,2.46-.729,3.581-2.224-1.217-3.41-.937-4.362,1.019Z" transform="translate(17 14)" fill="#fdd200"/>
    <path id="Union_29_-_Contour" data-name="Union 29 - Contour" d="M65.58,149.188v0a7.619,7.619,0,0,1-4.361-1.51C42.5,134.454,23.256,120.835,2.379,106.041a6.532,6.532,0,0,1-2.835-4.534A7.6,7.6,0,0,1,1.6,95.663c2.769-3.187,5.606-6.408,8.349-9.523,1.571-1.784,3.2-3.629,4.79-5.447,3.014-3.438,6.077-6.936,9.039-10.318,4.856-5.546,9.877-11.28,14.825-16.912,3.184-3.625,6.434-7.3,9.578-10.849,1.89-2.136,3.845-4.344,5.764-6.519a8.9,8.9,0,0,1,5.388-3.027c4.356-.728,8.784-1.485,13.065-2.217,2.568-.439,5.224-.893,7.836-1.336a2.351,2.351,0,0,1,.406-.03c.1,0,.2,0,.31.007.144,0,.307.01.5.01h.9l-.47.763c-.805,1.305-3.722,6.462-3.751,6.513-1.17,2.073-2.368,4.177-3.526,6.211-2.658,4.666-5.406,9.492-8.008,14.289a20.735,20.735,0,0,0-1.509,4.112c-.2.687-.407,1.4-.646,2.107l-.089.376h-.4a3.168,3.168,0,0,1-1.012-.478c-1.541-1.084-3.1-2.193-4.615-3.265-1.2-.852-2.442-1.733-3.665-2.6a6.129,6.129,0,0,0-3.48-1.332,5.39,5.39,0,0,0-3.974,2.218c-4,4.547-8.058,9.174-11.984,13.648-3.04,3.464-6.184,7.046-9.278,10.568-1.1,1.251-2.219,2.519-3.3,3.745-2.177,2.464-4.429,5.011-6.612,7.542a10.438,10.438,0,0,0-1.879,2.858c-.879,2.19-.211,4.1,1.986,5.685,3.049,2.2,6.175,4.4,9.2,6.522,1.3.913,2.639,1.856,3.957,2.787l8.351,5.9c7.4,5.225,15.048,10.628,22.563,15.956a6.014,6.014,0,0,0,3.45,1.258c1.673,0,3.149-.98,4.269-2.833,1.056-1.748,2.064-3.57,3.039-5.332.488-.882.993-1.794,1.5-2.688.277-.49.567-.971.9-1.528.166-.275.343-.569.536-.893l.589-.989,2.137,7.371,0,.041c.067.557,1.232,1.1,2,1.462a7.661,7.661,0,0,1,1,.523l.377.257-.222.4-1.432,2.578c-1.124,2.025-2.186,3.938-3.275,5.883q-.338.6-.675,1.207c-.938,1.679-1.908,3.416-2.912,5.1A6.9,6.9,0,0,1,65.58,149.188Zm15-118.7a1.226,1.226,0,0,0-.181.015c-2.612.443-5.268.9-7.835,1.336-4.282.732-8.711,1.489-13.069,2.217a7.942,7.942,0,0,0-4.8,2.7c-1.92,2.175-3.875,4.384-5.765,6.52-3.143,3.551-6.392,7.223-9.575,10.847C34.4,59.753,29.384,65.487,24.528,71.033c-2.962,3.383-6.025,6.88-9.039,10.319-1.595,1.819-3.22,3.664-4.791,5.449-2.742,3.114-5.578,6.334-8.345,9.518a6.624,6.624,0,0,0-1.816,5.07,5.474,5.474,0,0,0,2.42,3.837c20.877,14.793,40.124,28.412,58.84,41.636a6.63,6.63,0,0,0,3.783,1.326,5.945,5.945,0,0,0,5.063-3.26c1-1.67,1.963-3.4,2.9-5.073q.338-.6.676-1.208c1.088-1.943,2.15-3.855,3.273-5.879l1.19-2.144c-.142-.071-.3-.145-.466-.222-1.073-.5-2.4-1.123-2.567-2.2l-1.475-5.089c-.31.514-.58.965-.836,1.418-.5.889-1.007,1.8-1.494,2.68-.98,1.77-1.993,3.6-3.058,5.365-1.311,2.17-3.083,3.316-5.125,3.316a6.983,6.983,0,0,1-4.029-1.443c-7.514-5.328-15.163-10.73-22.561-15.955l-8.351-5.9c-1.317-.93-2.658-1.874-3.955-2.786-3.026-2.128-6.154-4.329-9.208-6.529-2.582-1.859-3.388-4.234-2.33-6.869a11.375,11.375,0,0,1,2.05-3.139c2.187-2.535,4.44-5.085,6.619-7.551,1.083-1.226,2.2-2.493,3.3-3.743,3.094-3.522,6.237-7.1,9.277-10.568,3.927-4.475,7.988-9.1,11.985-13.649,1.513-1.721,3.059-2.558,4.725-2.558a7.072,7.072,0,0,1,4.057,1.515c1.224.864,2.466,1.745,3.667,2.6,1.51,1.072,3.071,2.18,4.611,3.263.045.032.092.062.139.091.166-.523.318-1.047.467-1.557a21.462,21.462,0,0,1,1.59-4.309c2.607-4.806,5.358-9.636,8.018-14.307,1.158-2.033,2.355-4.136,3.524-6.207C77.281,36.24,79.458,32.393,80.581,30.484Zm.977,98.658a4.429,4.429,0,0,1-3.591-1.51,9.042,9.042,0,0,1-1.718-4.449c-1.39-8.2-2.825-16.524-4.212-24.579-.787-4.569-1.6-9.295-2.4-13.943-.27-1.576-.548-3.179-.817-4.728-.948-5.465-1.927-11.116-2.757-16.7a7.847,7.847,0,0,1,.877-4.623c4.573-8.327,9.347-16.725,13.963-24.846l.769-1.353c1.135-2,2.508-2.967,4.2-2.967a6.577,6.577,0,0,1,3.17.968c1.612.9,3.243,1.819,4.97,2.8.824.466,1.681.951,2.587,1.463l.593.335-.5.466q-.611.573-1.177,1.112C94.429,37.621,93.4,38.6,92.331,39.5a.926.926,0,0,1-.615.2,4.23,4.23,0,0,1-1.195-.266,5.548,5.548,0,0,0-1.73-.285,4.713,4.713,0,0,0-2.524,8.709,4.23,4.23,0,0,0,2.371.691,5.31,5.31,0,0,0,3.769-1.63A11.994,11.994,0,0,1,94.281,45.4c.418-.291.853-.564,1.273-.828.579-.364,1.177-.739,1.717-1.155.641-.493,1.253-1.067,1.845-1.623.266-.249.54-.507.816-.756l.216-.2a7.6,7.6,0,0,0,.913-1.443,1.412,1.412,0,0,1,1.368-1.165,2.517,2.517,0,0,1,1.233.4c1.5.862,3.038,1.72,4.525,2.549,2.457,1.37,5,2.786,7.447,4.27a6.761,6.761,0,0,1,2.591,3.084c4.682,11.7,9.383,23.629,13.929,35.16q1.894,4.8,3.789,9.607c1.024,2.594,2.069,5.23,3.079,7.78l1.584,4c.06.151.121.3.183.452.144.352.292.716.419,1.088a5.8,5.8,0,0,1-.139,4.635,5.72,5.72,0,0,1-3.682,2.714c-3.835,1.086-7.74,2.164-11.517,3.206-2.236.617-4.548,1.255-6.821,1.887l-1.487.414c-10.726,2.986-21.816,6.074-32.719,9.129A12.344,12.344,0,0,1,81.558,129.143Zm4.314-98.694c-1.3,0-2.387.805-3.328,2.461l-.769,1.353C77.161,42.381,72.389,50.775,67.82,59.1a6.885,6.885,0,0,0-.765,3.994c.828,5.569,1.807,11.214,2.754,16.673.269,1.55.547,3.153.817,4.73.8,4.648,1.61,9.372,2.4,13.942,1.387,8.056,2.822,16.385,4.212,24.582a8.261,8.261,0,0,0,1.492,3.967,3.444,3.444,0,0,0,2.83,1.159v0a11.386,11.386,0,0,0,3.012-.5c10.9-3.055,22-6.143,32.721-9.129l1.487-.414c2.273-.633,4.586-1.271,6.823-1.888,3.775-1.041,7.679-2.118,11.511-3.2a4.755,4.755,0,0,0,3.069-2.217,4.838,4.838,0,0,0,.078-3.848c-.117-.344-.254-.678-.4-1.032-.063-.154-.126-.308-.187-.462l-1.584-4c-1.01-2.55-2.055-5.186-3.079-7.781q-1.9-4.8-3.789-9.608c-4.546-11.53-9.246-23.453-13.927-35.155a5.781,5.781,0,0,0-2.18-2.6c-2.434-1.474-4.966-2.886-7.416-4.252-1.49-.831-3.031-1.69-4.536-2.555a1.573,1.573,0,0,0-.735-.264c-.095,0-.272,0-.416.474l-.01.03A7.051,7.051,0,0,1,101.276,41a2.7,2.7,0,0,1-.77.868c-.237.216-.475.439-.706.656-.609.572-1.239,1.163-1.919,1.686-.577.444-1.2.833-1.795,1.209-.411.258-.835.524-1.234.8a11.016,11.016,0,0,0-1.721,1.381,6.242,6.242,0,0,1-4.492,1.94,5.226,5.226,0,0,1-2.928-.861,5.762,5.762,0,0,1-2.079-7.33,5.7,5.7,0,0,1,5.16-3.209,6.54,6.54,0,0,1,2.039.334,3.712,3.712,0,0,0,.886.217h.016c1.031-.873,2.035-1.826,3.1-2.834l.686-.65-2-1.129c-1.725-.976-3.355-1.9-4.963-2.792A5.629,5.629,0,0,0,85.872,30.448Zm.529,89.53h0a4.24,4.24,0,0,1-2.947-1.134,5.582,5.582,0,0,1-1.581-3.086c-.664-3.477-1.265-7.024-1.846-10.455-.182-1.074-.37-2.184-.558-3.276-1.134-6.607-2.473-14.422-3.807-22.3-.352-2.079-.426-3.714.357-4.937s2.293-1.841,4.326-2.406q5.54-1.538,11.078-3.08c6.725-1.871,13.678-3.806,20.521-5.7a7.1,7.1,0,0,1,1.873-.278c2.008,0,3.476,1.124,4.364,3.34,1.85,4.619,3.706,9.325,5.5,13.876q.98,2.484,1.96,4.968l1.136,2.874c1.612,4.078,3.279,8.295,4.9,12.449.262.672.458,1.369.6,1.877.052.186.1.347.136.474l.022.071v.074a5.661,5.661,0,0,1-.858,3.243,4.3,4.3,0,0,1-2.5,1.751c-16.058,4.48-29.15,8.115-41.2,11.437A5.583,5.583,0,0,1,86.4,119.979Zm27.415-55.642a6.111,6.111,0,0,0-1.607.242c-6.842,1.889-13.8,3.824-20.519,5.695q-5.539,1.541-11.079,3.08c-4.029,1.118-4.659,2.105-3.964,6.212,1.333,7.873,2.672,15.688,3.807,22.294.187,1.092.376,2.2.558,3.278.581,3.425,1.181,6.967,1.843,10.435.407,2.134,1.733,3.407,3.547,3.407h0a4.585,4.585,0,0,0,1.215-.173c12.051-3.322,25.142-6.956,41.2-11.436,1.708-.477,2.614-1.843,2.623-3.954-.037-.123-.077-.265-.121-.425-.137-.488-.325-1.157-.57-1.784-1.622-4.153-3.288-8.368-4.9-12.445l-1.136-2.874q-.981-2.484-1.96-4.968c-1.794-4.55-3.649-9.254-5.5-13.871C116.51,65.2,115.419,64.337,113.816,64.337ZM48.268,118.32l-7.19-4.108,2.6-4.532a26.852,26.852,0,0,1-5.659-5.537,21.993,21.993,0,0,1-3.3-6.415l-.134-.418,10.351-4.868L45.1,93a17.071,17.071,0,0,0,7.957,10.014,6.17,6.17,0,0,0,2.844.911,1.3,1.3,0,0,0,1.232-.56c.463-.808.108-1.849-3.09-4.536l-.377-.317c-4.879-4.092-12.253-10.275-7.445-18.662a11.9,11.9,0,0,1,10.663-5.933,18.044,18.044,0,0,1,6.539,1.318l2.811-4.9,3.9,23.32L68.15,94.5l-.2-.46a18.473,18.473,0,0,0-7.109-8.265,4.922,4.922,0,0,0-2.253-.789,1.127,1.127,0,0,0-1.067.608c-.51.89.22,1.846,3.395,4.447,2.751,2.27,5.589,4.734,7.421,7.7a11.315,11.315,0,0,1,1.773,5.044,9.806,9.806,0,0,1-1.388,5.706c-2.5,4.353-6.31,6.654-11.03,6.655a18.607,18.607,0,0,1-6.793-1.412Zm-5.825-4.48,5.454,3.116,2.572-4.485.406.169a17.921,17.921,0,0,0,6.819,1.5,11.3,11.3,0,0,0,10.163-6.152c1.828-3.189,1.708-6.371-.367-9.727-1.753-2.834-4.521-5.235-7.206-7.451a20.249,20.249,0,0,1-3.3-3.125,2.248,2.248,0,0,1-.322-2.592,2.12,2.12,0,0,1,1.935-1.111,5.761,5.761,0,0,1,2.749.921A17.351,17.351,0,0,1,65.5,88.39a19.826,19.826,0,0,1,3.17,4.8l.341-.146-3.3-19.782-1.852,3.232-.406-.167a17.3,17.3,0,0,0-6.566-1.406,10.922,10.922,0,0,0-9.8,5.43,9.168,9.168,0,0,0,.111,9.987c1.756,2.923,4.724,5.412,7.109,7.411l.378.317a15.433,15.433,0,0,1,3.072,3.137A2.413,2.413,0,0,1,58,103.863a2.227,2.227,0,0,1-2.1,1.063,7.069,7.069,0,0,1-3.34-1.043,18.172,18.172,0,0,1-8.246-10.045l-8.506,4a22.88,22.88,0,0,0,8.817,11.294l.367.263Zm60.8-5.386-1-3.674a21.375,21.375,0,0,1-3.055.229,16.346,16.346,0,0,1-7.657-1.8l-.391-.2,2.907-8.071.512.279a12.361,12.361,0,0,0,9.137,1.053,4.683,4.683,0,0,0,1.745-.841c.365-.311.51-.614.432-.9-.1-.362-.424-.731-2.089-.731-.464,0-1.016.028-1.688.086l-.354.031c-1.2.1-2.567.223-3.949.223a12.614,12.614,0,0,1-5.749-1.119,7.493,7.493,0,0,1-3.872-4.97,8.58,8.58,0,0,1,.784-6.444A11.729,11.729,0,0,1,94.6,76.736L93.565,72.93l6.07-1.649,1.06,3.888a20.224,20.224,0,0,1,2.179-.12,17.143,17.143,0,0,1,6.985,1.44l.442.2-3.123,7.775-.464-.187a13.684,13.684,0,0,0-4.994-.933,10.994,10.994,0,0,0-2.823.338,2.971,2.971,0,0,0-1.583.8.659.659,0,0,0-.119.636c.064.235.161.591,1.613.591.536,0,1.237-.045,2.274-.147,1.206-.114,2.608-.236,4.018-.236a13.224,13.224,0,0,1,5.781,1.076,7.071,7.071,0,0,1,3.844,4.731c1.414,5.188-.926,9.522-6.425,11.946l1.015,3.725Zm-.272-4.8.974,3.576,4.14-1.124L107.1,102.5l.408-.168c5.349-2.205,7.568-6.088,6.248-10.932-.943-3.459-3.694-5.07-8.66-5.07-1.366,0-2.741.119-3.922.231-1.069.1-1.8.152-2.37.152-1.1,0-2.258-.158-2.578-1.328a1.657,1.657,0,0,1,.3-1.52,3.909,3.909,0,0,1,2.1-1.148,12,12,0,0,1,3.085-.373,14.723,14.723,0,0,1,4.9.827l2.391-5.952a16.23,16.23,0,0,0-6.136-1.166,19.423,19.423,0,0,0-2.483.164l-.432.056-1.025-3.761-4.14,1.124,1,3.684-.406.169c-4.942,2.052-7.4,6.092-6.252,10.292,1.009,3.7,3.678,5.353,8.656,5.353,1.339,0,2.679-.117,3.862-.219l.355-.031c.7-.06,1.281-.089,1.773-.089,1.312,0,2.7.174,3.054,1.469a1.86,1.86,0,0,1-.748,1.923,5.618,5.618,0,0,1-2.132,1.046,13.368,13.368,0,0,1-9.361-.873l-2.216,6.154a15.41,15.41,0,0,0,6.807,1.5,20.688,20.688,0,0,0,3.339-.284ZM89.317,46.211h0a2.343,2.343,0,0,1-2.494-2.087c-.248-2.381,1.88-2.749,2.579-2.869,3.32-.574,5.939-2.619,7.784-6.079,4.463-8.363,4.38-16.729-.245-24.866A14.013,14.013,0,0,0,93.9,6.752a8.7,8.7,0,0,0-5.739-2.245,8.834,8.834,0,0,0-6.418,2.92c-4.621,4.9-6.358,11.016-5.467,19.26.024.218.055.434.088.663.036.25.074.509.1.769a.9.9,0,0,1-.113.494c-.01.022-.023.049-.028.061l-.052.144-.123.09c-.014.01-.036.029-.057.048a1.029,1.029,0,0,1-.385.234,9.586,9.586,0,0,1-2.474.541c-1.61,0-1.741-1.53-1.908-3.467a35.541,35.541,0,0,1,.276-9.16,23.9,23.9,0,0,1,9.085-15.1A12.8,12.8,0,0,1,88.259-.5,13.375,13.375,0,0,1,94.44,1.053a15.372,15.372,0,0,1,5.2,4.5,27.912,27.912,0,0,1,5.548,13.771,33.667,33.667,0,0,1-1.959,14.69,18.193,18.193,0,0,1-7.372,9.771,21.75,21.75,0,0,1-5.426,2.251A3.9,3.9,0,0,1,89.317,46.211Zm-1.158-42.7A9.688,9.688,0,0,1,94.553,6,15,15,0,0,1,97.81,9.816c4.806,8.455,4.893,17.146.258,25.831-2,3.746-4.857,5.965-8.5,6.593-1.389.24-1.865.723-1.755,1.78a1.353,1.353,0,0,0,1.5,1.191,2.905,2.905,0,0,0,.825-.129,20.873,20.873,0,0,0,5.178-2.138,17.221,17.221,0,0,0,6.961-9.254c3.6-10.354,2.444-19.618-3.447-27.535A13.266,13.266,0,0,0,88.259.5a11.811,11.811,0,0,0-6.986,2.314,22.469,22.469,0,0,0-5.619,6.227c-2.882,4.647-3.941,10.093-3.335,17.138a8.682,8.682,0,0,0,.346,2.184.5.5,0,0,0,.565.368,9.09,9.09,0,0,0,2.156-.49l.046-.039.009-.008.006-.012.013-.028c-.024-.218-.055-.433-.088-.661s-.067-.463-.093-.7a29.823,29.823,0,0,1,.541-10.653,20.873,20.873,0,0,1,5.193-9.4A9.823,9.823,0,0,1,88.159,3.507Zm18.206,35.068-.8-.265c-1.333-.444-2.162-.766-2.431-1.487-.308-.827.259-1.846,1.374-3.724l.69-1.162.233,1.331c.224,1.281.413,2.362.606,3.458Zm-1.678-3.784c-.412.747-.713,1.406-.611,1.682.077.208.471.405,1.012.609l-.032-.184ZM94.131,32.1l-.459-.248-3.226-1.742L88.9,29.274l.016-1.264.411-.07L97.264,26.6l2.373-.4-.269,1.323c-.225,1.106-.411,2.02-.605,2.972l-.135.664-.594-.325a4.41,4.41,0,0,0-1.969-.669c-.489,0-1.074.174-1.7,1.468Zm-3.976-3.284.767.414,2.782,1.5a2.72,2.72,0,0,1,2.359-1.57,4.432,4.432,0,0,1,1.85.488l.453-2.224-.936.158Z" transform="translate(17 14)" fill="rgba(0,0,0,0)"/>
  </g>
</svg>
