<svg xmlns="http://www.w3.org/2000/svg" width="194.54" height="73.88" viewBox="0 0 194.54 73.88">
  <defs>
    <clipPath id="clip-path" transform="translate(-0.16)">
      <rect fill="none" width="194.7" height="73.89"/>
    </clipPath>
  </defs>
  <g style="clip-path: url(#clip-path);">
    <path fill="#bad8eb" d="M161.46,0H130.94c-11,0-20.63,5.91-26.69,15a21.2,21.2,0,0,1-1.79,41c5.82,10.74,16.38,17.95,28.48,17.95h30.53c18.35,0,33.24-16.54,33.24-36.95S179.82,0,161.46,0" transform="translate(-0.16)"/>
    <path fill="#bad8eb" d="M76.74,35.23a21.2,21.2,0,0,1,14.49-20.1C85.18,6,75.45,0,64.46,0h-31C15,0,.16,16.55.16,36.93S15,73.88,33.41,73.88h31c12.13,0,22.73-7.26,28.53-18.06A21.19,21.19,0,0,1,76.74,35.23" transform="translate(-0.16)"/>
    <path fill="#ffffff" d="M37.85,59.21h0Z" transform="translate(-0.16)"/>
    <path fill="#003764" d="M41.89,13a4.65,4.65,0,1,0-4.71-4.64A4.68,4.68,0,0,0,41.89,13" transform="translate(-0.16)"/>
    <path fill="#003764" d="M54.17,45.2a2.71,2.71,0,0,0-1.83,2l0,0.1A13.75,13.75,0,0,1,43.41,56a13,13,0,0,1-5.55.47h0a14.56,14.56,0,0,1-7.4-3.56l-0.14-.14c-0.2-.19-0.39-0.4-0.58-0.6s-0.34-.38-0.51-0.59L29,51.37a14.05,14.05,0,0,1-2.49-4.77h0a14.46,14.46,0,0,1-.47-6.13,14,14,0,0,1,7.05-10.35l0.09-.06a2.78,2.78,0,0,0-.61-5.29A2.58,2.58,0,0,0,31,25h0A19.59,19.59,0,0,0,20.62,39.85a20.1,20.1,0,0,0,.73,8.87h0A18.88,18.88,0,0,0,44.79,61.49,19.29,19.29,0,0,0,57.46,48.65v0a2.82,2.82,0,0,0,0-1.62,2.65,2.65,0,0,0-3.32-1.86" transform="translate(-0.16)"/>
    <path fill="#003764" d="M76.19,50.41a2.1,2.1,0,0,0-2.83-.77l-3.1,1.74L62.39,39.52A2.82,2.82,0,0,0,60,38.07H45.21V33.37H55.46a3,3,0,0,0,0-5.88H45.21V21.4a3.32,3.32,0,0,0-6.64,0V40.71a3.41,3.41,0,0,0,3,3.33,6.48,6.48,0,0,0,.68,0H59.44L66.9,55.31a2.5,2.5,0,0,0,1.53,1,2.21,2.21,0,0,0,.47.06H69a2,2,0,0,0,.82-0.14l0.15,0,0.13,0,5.35-3a2,2,0,0,0,.78-2.79" transform="translate(-0.16)"/>
    <path fill="#003764" d="M169.45,63.74a0.5,0.5,0,0,1-.5.5H127.81a0.51,0.51,0,0,1-.5-0.5v-15a0.51,0.51,0,0,1,.5-0.5h41.14a0.5,0.5,0,0,1,.5.5v15m-26.74-8.37h4.06a0.44,0.44,0,0,0,.43-0.44V50.87a0.44,0.44,0,0,0-.43-0.44h-4.06a0.44,0.44,0,0,0-.44.44v4.06a0.44,0.44,0,0,0,.44.44M135,56.83h-4.06a0.43,0.43,0,0,0-.44.44v4.06a0.43,0.43,0,0,0,.44.43H135a0.44,0.44,0,0,0,.44-0.43V57.27a0.44,0.44,0,0,0-.44-0.44m0-1.46h4.05a0.44,0.44,0,0,0,.45-0.44V50.87a0.44,0.44,0,0,0-.45-0.44H135a0.44,0.44,0,0,0-.44.44v4.06a0.44,0.44,0,0,0,.44.44m15.38,0h4.06a0.44,0.44,0,0,0,.43-0.44V50.87a0.43,0.43,0,0,0-.43-0.44H150.4a0.43,0.43,0,0,0-.43.44v4.06a0.43,0.43,0,0,0,.43.44m7.69,0h4.06a0.44,0.44,0,0,0,.43-0.44V50.87a0.43,0.43,0,0,0-.43-0.44h-4.06a0.43,0.43,0,0,0-.43.44v4.06a0.43,0.43,0,0,0,.43.44m0,1.46H154a0.44,0.44,0,0,0-.43.44v4.06a0.43,0.43,0,0,0,.43.43h4.06a0.43,0.43,0,0,0,.44-0.43V57.27a0.44,0.44,0,0,0-.44-0.44m-15.39,0h-4.06a0.43,0.43,0,0,0-.43.44v4.06a0.43,0.43,0,0,0,.43.43h4.06a0.44,0.44,0,0,0,.44-0.43V57.27a0.44,0.44,0,0,0-.44-0.44m23.08,0h-4.07a0.44,0.44,0,0,0-.43.44v4.06a0.43,0.43,0,0,0,.43.43h4.07a0.43,0.43,0,0,0,.44-0.43V57.27a0.44,0.44,0,0,0-.44-0.44m-15.39,0h-4.06a0.44,0.44,0,0,0-.44.44v4.06a0.43,0.43,0,0,0,.44.43h4.06a0.44,0.44,0,0,0,.44-0.43V57.27a0.44,0.44,0,0,0-.44-0.44M128.3,45.67a0.41,0.41,0,0,0,.37.44h39.4a0.41,0.41,0,0,0,.37-0.44V8.58a0.41,0.41,0,0,0-.37-0.44h-39.4a0.41,0.41,0,0,0-.37.44V45.67Zm5.34-6.58v-25a0.35,0.35,0,0,1,.34-0.36h29a0.34,0.34,0,0,1,.33.36v25a0.34,0.34,0,0,1-.33.36H134a0.35,0.35,0,0,1-.34-0.36" transform="translate(-0.16)"/>
    <path fill="#b6e0f7" d="M94.35,49.6a1.18,1.18,0,0,1-1.68,0l-3.09-3.09a1.18,1.18,0,0,1,0-1.68L99.47,35l-9.89-9.89a1.18,1.18,0,0,1,0-1.68l3.09-3.09a1.18,1.18,0,0,1,1.68,0l13.82,13.82a1.18,1.18,0,0,1,0,1.67Z" transform="translate(-0.16)"/>
    <polygon fill="#003764" points="185.67 73.16 185.67 69.11 184.22 69.11 184.22 68.28 188.1 68.28 188.1 69.11 186.66 69.11 186.66 73.16 185.67 73.16"/>
    <polygon fill="#003764" points="188.72 73.16 188.72 68.28 190.2 68.28 191.09 71.61 191.96 68.28 193.44 68.28 193.44 73.16 192.53 73.16 192.53 69.32 191.56 73.16 190.61 73.16 189.64 69.32 189.64 73.16 188.72 73.16"/>
  </g>
</svg>
