<svg xmlns="http://www.w3.org/2000/svg" width="32" height="32" viewBox="0 0 32 32">
  <circle cx="16" cy="16" r="16" fill="#ededed"/>
  <g transform="translate(8 8)">
    <rect width="16" height="16" transform="translate(16 16) rotate(180)" fill="none"/>
    <path d="M7.063,13.794.252,7.845A.746.746,0,0,1,0,7.3a.725.725,0,0,1,.229-.559L7.033.209A.749.749,0,1,1,8.07,1.289L2.738,6.411H15.031a.75.75,0,0,1,0,1.5H2.607l5.439,4.755a.749.749,0,1,1-.984,1.128Z" transform="translate(16 15) rotate(180)" fill="#333"/>
  </g>
</svg>
