<svg xmlns="http://www.w3.org/2000/svg" viewBox="0 0 23.86 24">
    <g>
        <path d="M8.83,18a3,3,0,1,1-3,3A3,3,0,0,1,8.83,18Zm0,4.5A1.5,1.5,0,1,0,7.33,21a1.5,1.5,0,0,0,1.5,1.5Z" fill="#333"/>
        <path d="M20.2,18a3,3,0,1,1-3,3A3,3,0,0,1,20.2,18Zm0,4.5A1.5,1.5,0,1,0,18.7,21a1.5,1.5,0,0,0,1.5,1.5Z" fill="#333"/>
        <path d="M20.2,19.5H6.36A3.1,3.1,0,0,1,4.92,19a3.19,3.19,0,0,1-1.41-2.9V2.75l-3-1.31a.74.74,0,0,1-.4-1,.75.75,0,0,1,1-.4l3.51,1.5A.76.76,0,0,1,5,2.25V16.11a1.84,1.84,0,0,0,.68,1.62,1.75,1.75,0,0,0,.73.27H20.2a.75.75,0,1,1,0,1.5Z"
              fill="#333"/>
        <path d="M21,15.27H6.09a3.11,3.11,0,0,1-2.58-3.15.75.75,0,0,1,1.5,0,1.55,1.55,0,0,0,.62,1.35,2,2,0,0,0,.66.31H21c.85,0,1.25-1.14,1.34-1.44V5.23a.75.75,0,0,1,1.5,0v7.2a.47.47,0,0,1,0,.17,4.46,4.46,0,0,1-.54,1.27A2.65,2.65,0,0,1,21,15.27Z"
              fill="#333"/>
        <path d="M12.43,10.37a.75.75,0,0,1-.53-.22L9.05,7.3a.75.75,0,1,1,1.06-1.06l2.34,2.33,4.62-4.36a.75.75,0,0,1,1,1.09L13,10.17A.75.75,0,0,1,12.43,10.37Z" fill="#333"/>
    </g>
</svg>
