<svg xmlns="http://www.w3.org/2000/svg" xmlns:xlink="http://www.w3.org/1999/xlink" width="73" height="65.42" viewBox="0 0 73 65.42">
  <defs>
    <clipPath id="503e9539-8496-45af-aa2c-add30eb3a195">
      <path d="M35.27,60.42a3.92,3.92,0,1,1,3.84-3.91,3.88,3.88,0,0,1-3.84,3.91" fill="none" clip-rule="evenodd"/>
    </clipPath>
    <clipPath id="dd5ef224-1920-4726-aacc-cdc45339cd20">
      <path d="M54.55,60.42a3.92,3.92,0,1,1,3.84-3.91,3.88,3.88,0,0,1-3.84,3.91" fill="none" clip-rule="evenodd"/>
    </clipPath>
    <clipPath id="87d957ad-8f44-403f-a7b1-0da58408e138">
      <path d="M28.37,48.66a1.15,1.15,0,0,1,0-2.3H61.45a1.15,1.15,0,0,1,0,2.3Z" fill="none" clip-rule="evenodd"/>
    </clipPath>
    <clipPath id="e3f23c06-4693-4685-8575-3beb45b4ea33">
      <rect x="5" y="5" width="63" height="36.78" fill="none"/>
    </clipPath>
    <clipPath id="019e1749-0a2f-44e7-b9f8-c93cb954fa43">
      <rect x="5" y="5" width="64" height="37" fill="none"/>
    </clipPath>
    <clipPath id="45663ba0-cb9c-49c7-998b-9fa787dd36cb">
      <path d="M29.36,41.78c-3.53,0-4.22-2.5-4.36-3.58-.95-5-3.67-17.15-4.2-19.54l-2-9.57A2.11,2.11,0,0,0,16.61,7.3H6.12a1.15,1.15,0,0,1,0-2.3H16.6A4.18,4.18,0,0,1,21,8.6l1.34,6.12a1.32,1.32,0,0,0,1.4.88H64.54l.27,0h.36a3,3,0,0,1,2.33.92,3.64,3.64,0,0,1,.31,3.14l-.09.4c-2,8.64-3.42,15.06-4,18.06-.18,1.2-.54,3.65-4.36,3.65ZM24.23,17.89l-.42,0a.89.89,0,0,0-.53.29l0,0,0,.06a.87.87,0,0,0-.07.63L24,23.13l2.7,11.76.52,2.79a2.2,2.2,0,0,0,2.16,1.8h30a2.17,2.17,0,0,0,2.15-1.81L65.6,19.25a4.08,4.08,0,0,0,.05-.43.91.91,0,0,0-.18-.59.9.9,0,0,0-.54-.31l-.43,0Z" fill="none" clip-rule="evenodd"/>
    </clipPath>
    <clipPath id="b1a4a4f0-1d4e-4980-b597-a796b875e3c1">
      <rect x="5" y="5" width="63" height="37" fill="none"/>
    </clipPath>
    <clipPath id="554f01ba-4532-4e84-b66c-30aa929e75d4">
      <path d="M50.11,22.18l-5.73,5.74-5.74-5.74a.87.87,0,0,0-1.23,1.23l5.73,5.74-5.73,5.73a.87.87,0,1,0,1.23,1.23l5.74-5.73,5.73,5.73a.87.87,0,1,0,1.23-1.23l-5.73-5.73,5.73-5.74a.87.87,0,0,0-1.23-1.23" fill="none" clip-rule="evenodd"/>
    </clipPath>
  </defs>
  <title>cart-empty</title>
  <g id="78a3ec4d-d3da-41f5-8063-c1ed00465cac" data-name="Layer 2">
    <g id="b997c6cd-abc7-461e-94a8-d187bec72f51" data-name="Calque 2">
      <g clip-path="url(#503e9539-8496-45af-aa2c-add30eb3a195)">
        <rect x="26.42" y="47.59" width="17.69" height="17.83"/>
      </g>
      <g clip-path="url(#dd5ef224-1920-4726-aacc-cdc45339cd20)">
        <rect x="45.7" y="47.59" width="17.69" height="17.83"/>
      </g>
      <g clip-path="url(#87d957ad-8f44-403f-a7b1-0da58408e138)">
        <rect x="22.24" y="41.36" width="45.33" height="12.31"/>
      </g>
      <g clip-path="url(#e3f23c06-4693-4685-8575-3beb45b4ea33)">
        <g style="isolation: isolate">
          <g clip-path="url(#019e1749-0a2f-44e7-b9f8-c93cb954fa43)">
            <g clip-path="url(#45663ba0-cb9c-49c7-998b-9fa787dd36cb)">
              <g clip-path="url(#b1a4a4f0-1d4e-4980-b597-a796b875e3c1)">
                <rect width="73" height="46.78"/>
              </g>
            </g>
          </g>
        </g>
      </g>
      <g clip-path="url(#554f01ba-4532-4e84-b66c-30aa929e75d4)">
        <rect x="32.16" y="16.93" width="24.44" height="24.44"/>
      </g>
    </g>
  </g>
</svg>
