<svg xmlns="http://www.w3.org/2000/svg" width="24" height="24" viewBox="0 0 24 24">
  <g id="cart" transform="translate(0.5)">
    <rect id="Rectangle_6404" data-name="Rectangle 6404" width="24" height="24" transform="translate(-0.5)" fill="none"/>
    <g id="Groupe_13107" data-name="Groupe 13107" transform="translate(-0.5)">
      <path id="Ellipse_990" data-name="Ellipse 990" d="M2.252-.75a3,3,0,1,1-3,3A3.005,3.005,0,0,1,2.252-.75Zm0,4.5a1.5,1.5,0,1,0-1.5-1.5A1.5,1.5,0,0,0,2.252,3.753Z" transform="translate(6.582 18.746)" fill="#333"/>
      <path id="Ellipse_991" data-name="Ellipse 991" d="M2.252-.75a3,3,0,1,1-3,3A3.005,3.005,0,0,1,2.252-.75Zm0,4.5a1.5,1.5,0,1,0-1.5-1.5A1.5,1.5,0,0,0,2.252,3.753Z" transform="translate(17.949 18.746)" fill="#333"/>
      <path id="Tracé_6012" data-name="Tracé 6012" d="M20.646,21.583H6.806A3.13,3.13,0,0,1,5.366,21.1a3.206,3.206,0,0,1-1.414-2.9V4.835L.9,3.527a.75.75,0,0,1,.591-1.38L5,3.651a.75.75,0,0,1,.455.69V18.2a1.824,1.824,0,0,0,.68,1.613,1.684,1.684,0,0,0,.734.274H20.646a.75.75,0,0,1,0,1.5Z" transform="translate(-0.444 -2.086)" fill="#333"/>
      <path id="Tracé_6013" data-name="Tracé 6013" d="M21.466,17.354H6.654a.751.751,0,0,1-.121-.01A3.109,3.109,0,0,1,3.95,14.195a.75.75,0,0,1,1.5,0,1.555,1.555,0,0,0,.619,1.346,1.966,1.966,0,0,0,.664.312H21.466c.847,0,1.248-1.14,1.34-1.442V8.061H4.7a.75.75,0,1,1,0-1.5H23.556a.75.75,0,0,1,.75.75v7.2a.751.751,0,0,1-.021.175,4.694,4.694,0,0,1-.541,1.266A2.643,2.643,0,0,1,21.466,17.354Z" transform="translate(-0.442 -2.083)" fill="#333"/>
    </g>
  </g>
</svg>
