<svg id="icon-fruits-and-vegetables" xmlns="http://www.w3.org/2000/svg" width="48" height="48" viewBox="0 0 48 48">
  <rect id="bg" width="48" height="48" fill="none"/>
  <path id="icon" d="M3044,975.493a22.62,22.62,0,0,1-8.562-1.661,21.988,21.988,0,0,1-6.992-4.531,21.065,21.065,0,0,1-4.714-6.721,20.317,20.317,0,0,1-1.729-8.23h43.993a20.3,20.3,0,0,1-1.729,8.23,21.065,21.065,0,0,1-4.714,6.721,22,22,0,0,1-6.992,4.531,22.619,22.619,0,0,1-8.517,1.661Zm14.194-23.557,3.207-3.082a1.309,1.309,0,0,0,0-1.9,1.441,1.441,0,0,0-1.98,0l-5.187,4.981h-.81v0l-.008,0h.006a9.429,9.429,0,0,0-2.44-6.114,11.478,11.478,0,0,1,13.168-2.08,1.37,1.37,0,0,1,.6.574,10.245,10.245,0,0,1,.89,7.625Zm-12.8,0v-2.687h0a1.4,1.4,0,0,0-2.8,0v2.687h-5.591c0-4.807,6.105-7.794,6.364-7.92a1.456,1.456,0,0,1,1.251,0c.259.127,6.365,3.113,6.365,7.92Zm-23.029,0a10.231,10.231,0,0,1,.892-7.624,1.352,1.352,0,0,1,.6-.574,11.472,11.472,0,0,1,13.17,2.075,9.426,9.426,0,0,0-2.439,6.12h-.82l-5.181-4.979a1.441,1.441,0,0,0-1.98,0,1.309,1.309,0,0,0,0,1.9l3.206,3.079Zm23.5-10.32a4.345,4.345,0,0,0-3.753,0h0a18.722,18.722,0,0,0-3.508,2.287,14.078,14.078,0,0,0-3.355-2.445,14.415,14.415,0,0,1,17.49,0,14.076,14.076,0,0,0-3.355,2.447A18.715,18.715,0,0,0,3045.869,941.612Z" transform="translate(-3020 -930.498)" fill="#77b800" stroke="rgba(0,0,0,0)" stroke-width="1"/>
</svg>
