<svg id="icon-beverages" xmlns="http://www.w3.org/2000/svg" width="48" height="48" viewBox="0 0 48 48">
  <rect id="bg" width="48" height="48" transform="translate(0 0)" fill="none"/>
  <path id="icon" d="M25.964,17.811l-.309-1.564A4.251,4.251,0,0,0,21.5,12.865H14.312V5.141l7.136-2.625A1.289,1.289,0,0,0,22.252.865,1.323,1.323,0,0,0,20.574.073l-.051.019L12.517,3.07a1.263,1.263,0,0,0-.828,1.212V12.92H4.509A4.219,4.219,0,0,0,.345,16.3L.037,17.862a1.168,1.168,0,0,0,.256,1.061,1.3,1.3,0,0,0,1.027.453h.366L3.943,46.837A1.279,1.279,0,0,0,5.224,48h15.4a1.279,1.279,0,0,0,1.283-1.161L24.27,19.325h.411a1.3,1.3,0,0,0,1.027-.454,1.168,1.168,0,0,0,.256-1.061M11.7,28.765A11.2,11.2,0,0,0,5.59,27.4a2.633,2.633,0,0,0-.61.1l-.667-8.177H11.7Zm9.085,1.311a9.244,9.244,0,0,1-2.105.557,8.6,8.6,0,0,1-4.363-.705v-10.6h7.341Z" transform="translate(11 0)" fill="#f18e00"/>
</svg>
