<svg id="icon-pantry" xmlns="http://www.w3.org/2000/svg" width="48" height="48" viewBox="0 0 48 48">
  <rect id="bg" width="48" height="48" fill="none"/>
  <path id="icon" d="M3044.666,1073a1.218,1.218,0,0,1-1.217-1.219v-6.1h17.061v6.1a1.217,1.217,0,0,1-1.218,1.218h-14.625v0Zm-7.31,0h-14.624a1.31,1.31,0,0,1-1.219-1.219v-17.075a1.217,1.217,0,0,1,1.217-1.219h14.626a1.308,1.308,0,0,1,1.218,1.219v17.075a1.217,1.217,0,0,1-1.216,1.219Zm6.094-9.757v-7.318h17.063v7.318Zm.051-9.755a7.994,7.994,0,0,1,2.74-5.742c1.161-1.165,2.079-2.084,2.079-5.237v-8.292a1.218,1.218,0,0,1,1.218-1.218h4.881a1.217,1.217,0,0,1,1.217,1.219v8.293c0,3.153.918,4.07,2.08,5.234h0a8,8,0,0,1,2.74,5.742Zm-19.552-2.445v-3.659a1.217,1.217,0,0,1,1.22-1.214h2.623l1.033-7.318h2.437l1.032,7.313h2.627a1.217,1.217,0,0,1,1.216,1.219l0,3.659Z" transform="translate(-3017.514 -1030)" fill="#1269a2" stroke="rgba(0,0,0,0)" stroke-width="1"/>
</svg>
