<svg xmlns="http://www.w3.org/2000/svg" width="24" height="24" viewBox="0 0 24 24">
  <path d="M24,12a12,12,0,1,0-12.781,11.89,2.907,2.907,0,0,0,.747.109,2.783,2.783,0,0,0,.7-.1A11.869,11.869,0,0,0,24,12M11.966,22.531c-1.222,0-2.532-1.7-3.34-4.488h6.567c-.781,2.792-2.046,4.488-3.227,4.488M8.274,16.574a23.024,23.024,0,0,1-.419-3.84h8.082a23.634,23.634,0,0,1-.405,3.84Zm-6.839-3.84H6.388a21.473,21.473,0,0,0,.4,3.84H2.457a10.47,10.47,0,0,1-1.022-3.84M11.966,1.469c1.181,0,2.446,1.7,3.227,4.488H8.626c.808-2.791,2.118-4.488,3.34-4.488m3.566,5.957a23.633,23.633,0,0,1,.405,3.839H7.855a23.023,23.023,0,0,1,.419-3.839ZM22.5,11.265H17.4a21.955,21.955,0,0,0-.387-3.839h4.456A10.5,10.5,0,0,1,22.5,11.265m-16.11,0H1.435A10.481,10.481,0,0,1,2.457,7.426h4.33a21.4,21.4,0,0,0-.4,3.839M17.4,12.734H22.5a10.412,10.412,0,0,1-1.022,3.84H17.017a21.947,21.947,0,0,0,.387-3.84m3.207-6.777H16.687a22.147,22.147,0,0,0-.7-2.206A9.617,9.617,0,0,0,14.974,1.9a10.421,10.421,0,0,1,5.637,4.059M4.494,4.55A10.527,10.527,0,0,1,8.862,1.932,9.7,9.7,0,0,0,7.85,3.744a21.5,21.5,0,0,0-.724,2.213h-3.8A10.678,10.678,0,0,1,4.494,4.55M3.322,18.043H7.129a21.343,21.343,0,0,0,.725,2.213,9.658,9.658,0,0,0,1.014,1.819,10.406,10.406,0,0,1-5.546-4.032m11.66,4.049a9.641,9.641,0,0,0,1-1.842,21.746,21.746,0,0,0,.7-2.207h3.928a10.569,10.569,0,0,1-5.633,4.049" transform="translate(0 0)" fill="#fff"/>
</svg>
