<svg xmlns="http://www.w3.org/2000/svg" viewBox="0 0 97.51 97.51">
  <path d="M97.48,37.26a1.65,1.65,0,0,0-.06-.32,2.31,2.31,0,0,0-.1-.28,1.32,1.32,0,0,0-.16-.25,1.38,1.38,0,0,0-.22-.26l-.06-.07L81.25,23.94V11.36a4.87,4.87,0,0,0-4.88-4.88H58.76L51.71,1a4.82,4.82,0,0,0-5.93,0L38.73,6.48H21.11a4.88,4.88,0,0,0-4.87,4.88V23.94L.61,36.08l-.06.07a1.78,1.78,0,0,0-.22.26,1.32,1.32,0,0,0-.16.25,1.31,1.31,0,0,0-.09.28,1.14,1.14,0,0,0-.07.32s0,.06,0,.1V92.62a4.8,4.8,0,0,0,1,2.87l0,.05s0,0,.05,0A4.86,4.86,0,0,0,4.86,97.5H92.63a4.86,4.86,0,0,0,3.85-1.93l0,0,0-.05a4.8,4.8,0,0,0,1-2.87V37.36S97.48,37.3,97.48,37.26ZM47.77,3.57a1.56,1.56,0,0,1,1.94,0l3.75,2.91H44ZM5.27,94.25l42.5-33a1.56,1.56,0,0,1,1.94,0l42.51,33Zm89-2.54-42.54-33a4.82,4.82,0,0,0-5.93,0l-42.54,33V39.84L29.87,60.52a1.63,1.63,0,1,0,2-2.57L4.8,36.94l11.44-8.89V40.61a1.63,1.63,0,0,0,3.25,0V11.36a1.62,1.62,0,0,1,1.62-1.63H76.37A1.63,1.63,0,0,1,78,11.36V40.61a1.63,1.63,0,0,0,3.25,0V28.05l11.43,8.89L65.58,58a1.62,1.62,0,0,0,1.2,2.9,1.54,1.54,0,0,0,.79-.33L94.25,39.84V91.71ZM68.25,39v-6.5A19.51,19.51,0,1,0,48.74,52h0a1.63,1.63,0,1,0,0-3.25A16.26,16.26,0,1,1,65,32.48h0V39a3.25,3.25,0,1,1-6.5,0v-6.5a1.63,1.63,0,1,0-3.25,0,6.5,6.5,0,1,1-6.5-6.5h0a1.63,1.63,0,1,0,0-3.25,9.75,9.75,0,1,0,6.57,16.93A6.48,6.48,0,0,0,68.25,39Z" transform="translate(0.01 0.01)" fill="#fff" fill-rule="evenodd"/>
</svg>
