<svg id="icon-baby" xmlns="http://www.w3.org/2000/svg" width="48" height="48" viewBox="0 0 48 48">
  <rect id="bg" width="48" height="48" fill="none"/>
  <path id="icon" d="M3023.574-316.638c-3.513-4.66-2.884-10.777-2.2-14a.728.728,0,0,1,.2-.363.725.725,0,0,1,1.026.013c7.927,8.093,16.2,2.35,17.795,1.107a1.026,1.026,0,0,0,.2-.22,1.071,1.071,0,0,0-.273-1.492c-3.131-2.164-4.938-4.473-5.353-6.87-.7-4.015,2.877-9.2,7.942-9.687a8.927,8.927,0,0,1,8.38,4.621,1.738,1.738,0,0,0,1.4.828l5.306.216h0a.8.8,0,0,1,.556.192.8.8,0,0,1,.086,1.129,35.63,35.63,0,0,1-6.46,4.374c-1.688.966-2.548,1.053-2.533,2.351.033,2.114,3.823,5.419,4.548,6.033a11.724,11.724,0,0,1,3.791,9.511c-.623,6.306-7.936,9.094-15.808,9.093C3034.762-309.808,3026.841-312.289,3023.574-316.638Zm6.916-4.572c-.907,4.15,3.568,8.556,9.344,7.846a7.2,7.2,0,0,0,6.022-3.888v0a.838.838,0,0,0-.394-1.118.838.838,0,0,0-1.118.394,5.544,5.544,0,0,1-4.716,2.952c-3.411.422-7.289-1.522-7.537-4.915a8.328,8.328,0,0,0,6.094-.477,5.922,5.922,0,0,0,2.78-3.384l.005-.022a.824.824,0,0,0-.6-1,.832.832,0,0,0-1.02.589,4.318,4.318,0,0,1-1.976,2.351,7.4,7.4,0,0,1-5.813.054.786.786,0,0,0-.083-.022.838.838,0,0,0-.172-.018A.832.832,0,0,0,3030.49-321.211Zm11.707-21.213a2.664,2.664,0,0,0,2.661,2.668,2.666,2.666,0,0,0,2.668-2.66,2.663,2.663,0,0,0-2.66-2.669h-.005A2.664,2.664,0,0,0,3042.2-342.424Zm2.629,1.041a1.071,1.071,0,0,1-1.035-1.035,1.073,1.073,0,0,1,1.109-1.036,1.073,1.073,0,0,1,1.035,1.036,1.073,1.073,0,0,1-1.072,1.035Z" transform="translate(-3015.842 353.171)" fill="#f18e00" stroke="rgba(0,0,0,0)" stroke-width="1"/>
</svg>
