<?xml version="1.0" encoding="UTF-8"?>
<svg id="Layer_1" xmlns="http://www.w3.org/2000/svg" xmlns:xlink="http://www.w3.org/1999/xlink" version="1.1" viewBox="0 0 48 48">
    <!-- Generator: Adobe Illustrator 29.4.0, SVG Export Plug-In . SVG Version: 2.1.0 Build 152)  -->
    <defs>
        <style>
            .st0 {
            fill: none;
            }

            .st1 {
            clip-path: url(#clippath-1);
            }

            .st2 {
            clip-path: url(#clippath-2);
            }

            .st3 {
            fill: #fff;
            }

            .st4 {
            clip-path: url(#clippath);
            }

            .st5 {
            fill: #1269a2;
            }
        </style>
        <clipPath id="clippath">
            <circle class="st0" cx="24" cy="24.2" r="24"/>
        </clipPath>
        <clipPath id="clippath-1">
            <rect class="st0" x="0" y="0" width="48" height="48"/>
        </clipPath>
        <clipPath id="clippath-2">
            <circle class="st0" cx="24" cy="24.1" r="24"/>
        </clipPath>
    </defs>
    <g class="st4">
        <path class="st3" d="M35.8,20.1c-2.3,0-4.3.9-6.2,3.2-2.4,2.7-2.2,8.5-2.2,9.4h-1.5v-3.6c0-2.7,2.7-8.9,2.7-8.9,2.6-5.4.9-10.5.9-10.5-1-3.6-5.4-8.3-5.4-8.3,0,0-4.4,4.6-5.4,8.2,0,0-1.7,5.1.9,10.5,0,0,2.7,6.2,2.7,8.9v3.6h-1.6c0-1.2,0-6.7-2.2-9.3-1.9-2.2-3.9-3.2-6.2-3.2-3.6,0-6.6,2.8-6.6,6.4s2.8,6.2,6.4,6.4c-.5-.5-.8-1.2-.8-2,0-1.7,1.5-3.1,3.3-3.1s2.8,1,3.2,2.3c0,0,.4,1.3.2,2.6h-3.7v3.5h7.4c.1.5.3,2.7-3.1,3.8,0,0,.1,2.4,3,2.6,0,0,.5,4,2.3,4.2,0,0,1.8-.2,2.3-4.1,0,0,3.1-.8,3.1-2.6,0,0-3.6-.6-3.1-3.9h7.5v-3.5h-3.5c-.2-1.3.2-2.7.2-2.7.4-1.3,1.6-2.3,3.2-2.3s3.3,1.4,3.3,3.1-.3,1.5-.8,2c3.5-.1,6.4-2.9,6.4-6.4s-2.9-6.4-6.6-6.4"/>
    </g>
    <g class="st1">
        <path class="st5" d="M24,48.1c13.3,0,24-10.7,24-24S37.2,0,24,0,0,10.8,0,24.1s10.7,24,24,24"/>
    </g>
    <g class="st2">
        <path class="st3" d="M35.8,20c-2.3,0-4.3.9-6.2,3.2-2.4,2.7-2.2,8.5-2.2,9.4h-1.5v-3.6c0-2.7,2.7-8.9,2.7-8.9,2.6-5.4.9-10.5.9-10.5-1-3.6-5.4-8.3-5.4-8.3,0,0-4.4,4.6-5.4,8.2,0,0-1.7,5.1.9,10.5,0,0,2.7,6.2,2.7,8.9v3.6h-1.6c0-1.2,0-6.7-2.2-9.3-1.9-2.2-3.9-3.2-6.2-3.2-3.6,0-6.6,2.8-6.6,6.4s2.8,6.2,6.4,6.4c-.5-.5-.8-1.2-.8-2,0-1.7,1.5-3.1,3.3-3.1s2.8,1,3.2,2.3c0,0,.4,1.3.2,2.6h-3.7v3.5h7.4c.1.5.3,2.7-3.1,3.8,0,0,.1,2.4,3,2.6,0,0,.5,4,2.3,4.2,0,0,1.8-.2,2.3-4.1,0,0,3.1-.8,3.1-2.6,0,0-3.6-.6-3.1-3.9h7.5v-3.5h-3.5c-.2-1.3.2-2.7.2-2.7.4-1.3,1.6-2.3,3.2-2.3s3.3,1.4,3.3,3.1-.3,1.5-.8,2c3.5-.1,6.4-2.9,6.4-6.4s-2.9-6.4-6.6-6.4"/>
    </g>
</svg>