<svg id="icon-bread-and-bakery-products" xmlns="http://www.w3.org/2000/svg" width="48" height="48" viewBox="0 0 48 48">
  <rect id="bg" width="48" height="48" fill="none"/>
  <path id="icon" d="M3033.541,64.017a4.881,4.881,0,0,1-3.182-1.548,19.958,19.958,0,0,1-3.41-5.338l11.126.675a10.358,10.358,0,0,1-1.249,3.951c-1.254,2.107-2.748,2.266-3.169,2.266A1.068,1.068,0,0,1,3033.541,64.017Zm-9.235-11.567a.57.57,0,0,1-.5-.368,15.557,15.557,0,0,1,.139-10.285l15.032,9.49a5.041,5.041,0,0,0,1.7.648,5.317,5.317,0,0,1-1.988,1.352l.007,0a.809.809,0,0,1-.2.025Zm17.113-4.991L3024.545,36.8a.573.573,0,0,1-.239-.656c.136-.423,3.436-10.393,12.869-12.845a.57.57,0,0,1,.624.247l10.648,16.872a.509.509,0,0,1,.081.385h0c-1.467,6.444-6.812,6.742-6.812,6.742A.572.572,0,0,1,3041.419,47.459Zm10.868-9.467-9.5-15.044a15.524,15.524,0,0,1,10.287-.139.57.57,0,0,1,.367.5l.862,14.2a.6.6,0,0,1-.02.2,5.45,5.45,0,0,1-1.321,1.95A5.1,5.1,0,0,0,3052.287,37.992Zm5.863-12.025a20.163,20.163,0,0,1,5.325,3.4h0A4.694,4.694,0,0,1,3065,32.856a4.048,4.048,0,0,1-2.252,2.984,10.5,10.5,0,0,1-3.923,1.234Z" transform="translate(-3020.001 -19)" fill="#f18e00" stroke="rgba(0,0,0,0)" stroke-width="1"/>
</svg>
