<svg xmlns="http://www.w3.org/2000/svg" xmlns:xlink="http://www.w3.org/1999/xlink" width="183" height="184" viewBox="0 0 183 184">
  <defs>
    <clipPath id="clip-path">
      <rect id="Rectangle_6558" data-name="Rectangle 6558" width="147.536" height="96.105" fill="none"/>
    </clipPath>
    <clipPath id="clip-path-2">
      <rect id="Rectangle_6559" data-name="Rectangle 6559" width="132.955" height="82.342" transform="matrix(0.997, -0.079, 0.079, 0.997, 0, 10.462)" fill="none"/>
    </clipPath>
    <clipPath id="clip-watatow">
      <rect width="183" height="184"/>
    </clipPath>
  </defs>
  <g id="watatow" clip-path="url(#clip-watatow)">
    <g id="W" transform="translate(17.73 43.948)">
      <g id="Groupe_101422" data-name="Groupe 101422" transform="translate(0 0)">
        <g id="Groupe_101421" data-name="Groupe 101421" clip-path="url(#clip-path)">
          <path id="Tracé_55026" data-name="Tracé 55026" d="M45.433,40.087,60.705,90.214a8.6,8.6,0,0,1,.3,1.437l.005.067a5.543,5.543,0,0,1-1.442,4.227,5.307,5.307,0,0,1-1.5,1.185,6.682,6.682,0,0,1-2.907.863,9.76,9.76,0,0,1-9.812-6.515L29.837,41.318,8.514,36.432,0,43.673,14.293,91.6a61.8,61.8,0,0,0,5.034,12.291,36.6,36.6,0,0,0,7.956,10.061,31.493,31.493,0,0,0,11.74,6.5,44.609,44.609,0,0,0,16.52,1.438c1.213-.1,2.518-.2,3.862-.4a43.572,43.572,0,0,0,4.561-.918A29.492,29.492,0,0,0,80.481,109.13l.03-.032.1.021A54.4,54.4,0,0,0,94.6,115.579a42.949,42.949,0,0,0,15.195,1.927l.586-.046a45.622,45.622,0,0,0,10.157-1.8c1.041-.331,2.006-.649,2.955-1.035a24.09,24.09,0,0,0,8.46-5.676,20.178,20.178,0,0,0,4.383-7.972,27,27,0,0,0,.8-9.6,44.536,44.536,0,0,0-1.8-9.265l-14.21-47.994L99.5,29.25l-8.514,7.241,14.462,49.933a10,10,0,0,1,.245,1.416l0,.058a5.832,5.832,0,0,1-1.436,4.3,11.1,11.1,0,0,1-1.217.953,6.533,6.533,0,0,1-3.131,1.018l-.046,0a9.772,9.772,0,0,1-9.815-6.487L75.983,37.675,53.947,32.846Z" transform="translate(0 -25.97)" fill="#ee3124"/>
        </g>
      </g>
      <g id="Groupe_101424" data-name="Groupe 101424" transform="translate(8.514 0)">
        <g id="Groupe_101423" data-name="Groupe 101423" transform="translate(0 0)" clip-path="url(#clip-path-2)">
          <path id="Tracé_55027" data-name="Tracé 55027" d="M121.356,14.016l15.272,50.127a8.616,8.616,0,0,1,.3,1.437l.005.067a5.543,5.543,0,0,1-1.442,4.227,5.307,5.307,0,0,1-1.5,1.185,6.681,6.681,0,0,1-2.907.863,9.76,9.76,0,0,1-9.812-6.515L105.76,15.247,75.923,17.6,90.216,65.53A61.8,61.8,0,0,0,95.25,77.821a36.6,36.6,0,0,0,7.956,10.061,31.493,31.493,0,0,0,11.74,6.5,44.608,44.608,0,0,0,16.52,1.438c1.213-.1,2.518-.2,3.862-.4a43.574,43.574,0,0,0,4.561-.918A29.492,29.492,0,0,0,156.4,83.06l.03-.032.1.021a54.4,54.4,0,0,0,13.981,6.459,42.949,42.949,0,0,0,15.195,1.927l.586-.046a45.623,45.623,0,0,0,10.157-1.8c1.041-.331,2.006-.649,2.955-1.035a24.09,24.09,0,0,0,8.46-5.676,20.178,20.178,0,0,0,4.383-7.972,27,27,0,0,0,.8-9.6,44.535,44.535,0,0,0-1.8-9.265L197.041,8.042,166.912,10.42l14.462,49.933a9.989,9.989,0,0,1,.245,1.416l0,.058a5.832,5.832,0,0,1-1.436,4.3,11.116,11.116,0,0,1-1.217.953A6.533,6.533,0,0,1,175.84,68.1l-.046,0a9.772,9.772,0,0,1-9.815-6.487L151.906,11.6Z" transform="translate(-75.923 -7.14)" fill="#faea25"/>
        </g>
      </g>
    </g>
  </g>
</svg>
