<svg id="icon-cooked-meals" xmlns="http://www.w3.org/2000/svg" width="48.575" height="48" viewBox="0 0 48.575 48">
  <rect id="bg" width="48" height="48" fill="none"/>
  <path id="icon" d="M3051.766,878.147l-13.921,0c-4.212,0-6.091-1.967-6.977-4.188-7.485-.887-8.483-5.156-8.867-7.884h46c-.36,2.578-2.2,6.523-8.732,7.7a7.622,7.622,0,0,1-6.946,4.391Q3052.045,878.167,3051.766,878.147Zm-28.09-14.234a.956.956,0,0,1,0-.218,4.99,4.99,0,0,1,9.977,0v0h-.013a1.3,1.3,0,0,1,0,.218Zm12.053-.024a10.4,10.4,0,0,1-.576-1.738,9.149,9.149,0,0,0-3.5-5.388l-.857-.616a3.6,3.6,0,0,1-1.609-3.157l-3.583-2.337a2.364,2.364,0,0,1-.979.385,2.266,2.266,0,0,1-1.691-.418,2.172,2.172,0,0,1-.5-3.087,2.281,2.281,0,0,1,1.453-.88,2.237,2.237,0,0,1,2-2.471,2.271,2.271,0,0,1,2.538,1.945,2.156,2.156,0,0,1-.094.945l3.833,2.51a3.8,3.8,0,0,1,2.882.56c.066.043.13.089.193.137l.849.6a9.58,9.58,0,0,0,6.334,1.66,13.724,13.724,0,0,1,8.8,2.67,13.914,13.914,0,0,1,4.256,4.807,6.045,6.045,0,0,1,8.347-.829,5.719,5.719,0,0,1,2.185,4.481h.007v.217Z" transform="translate(-3020 -837.167)" fill="#f18e00" stroke="rgba(0,0,0,0)" stroke-width="1"/>
</svg>
