<svg id="icon-fish-and-seafood" xmlns="http://www.w3.org/2000/svg" width="48" height="48" viewBox="0 0 48 48">
  <rect id="bg" width="48" height="48" fill="none"/>
  <path id="icon" d="M3458-826v-6.626c5.751,5.125,19.627,7.375,24.875,7.5,6.5,0,12-2.374,15.125-5.874v5c0,5.251-6.75,9.625-15.125,9.625S3458-820.623,3458-826Zm.125-10.374h13.751a15.847,15.847,0,0,1,4.25.5,8.672,8.672,0,0,0,2.875.5h0c1.75,0,3.251-1,3-2,0-1.125-1.376-2-3.127-2a13.966,13.966,0,0,0-2.875.5,15.767,15.767,0,0,1-4.25.5h-13.626c1.875-4.875,16.751-8.626,24.626-8.626,8.37,0,15.121,4.253,15.121,9.628s-6.749,9.625-15.125,9.625C3474.877-827.747,3460-831.5,3458.127-836.373Zm-.127-.916a2.481,2.481,0,0,0,.127.791A2.481,2.481,0,0,1,3458-837.289Zm0-.083c0,.028,0,.056,0,.083C3458-837.317,3458-837.345,3458-837.373Z" transform="translate(-3454 855.687)" fill="#f18e00" stroke="rgba(0,0,0,0)" stroke-width="1"/>
</svg>
