<svg xmlns="http://www.w3.org/2000/svg" width="24" height="24" viewBox="0 0 24 24">
  <rect width="24" height="24" fill="none"/>
  <path d="M7.912,1.5a6.419,6.419,0,0,1,6.412,6.412A11.045,11.045,0,0,1,12.8,12.368L7.912,21.442,3.026,12.367A11.036,11.036,0,0,1,1.5,7.912,6.419,6.419,0,0,1,7.912,1.5m0,10.039A3.626,3.626,0,1,0,4.285,7.912a3.631,3.631,0,0,0,3.627,3.627M7.912,0A7.921,7.921,0,0,0,0,7.912a12.734,12.734,0,0,0,1.705,5.167l5.73,10.64a.545.545,0,0,0,.954,0l5.73-10.64a12.734,12.734,0,0,0,1.7-5.167A7.921,7.921,0,0,0,7.912,0m0,10.039a2.126,2.126,0,1,1,2.127-2.127,2.122,2.122,0,0,1-2.127,2.127" transform="translate(4)" fill="#fff"/>
</svg>
