<svg id="icon-store-in-store" xmlns="http://www.w3.org/2000/svg" xmlns:xlink="http://www.w3.org/1999/xlink" width="42" height="42" viewBox="0 0 42 42">
  <defs>
    <clipPath id="clip-path">
      <rect id="Rectangle_7023" data-name="Rectangle 7023" width="42" height="42" fill="none"/>
    </clipPath>
  </defs>
  <g id="Groupe_15308" data-name="Groupe 15308">
    <g id="Groupe_15308-2" data-name="Groupe 15308" clip-path="url(#clip-path)">
      <path id="Tracé_54571" data-name="Tracé 54571" d="M38.924,11.023a9.256,9.256,0,1,1-9.256-9.256,9.256,9.256,0,0,1,9.256,9.256" fill="#fff"/>
      <path id="Tracé_54572" data-name="Tracé 54572" d="M7.294,27.172a4.369,4.369,0,0,0,3.8-2.219l.764-1.315.764,1.315a4.371,4.371,0,0,0,3.8,2.219,4.427,4.427,0,0,0,3.8-2.219l.764-1.315.764,1.315a4.37,4.37,0,0,0,7.607,0l.776-1.315.764,1.316a4.456,4.456,0,0,0,4.26,2.2c2.3-.236,3.9-2.363,3.751-4.972L37.659,18.59A10.987,10.987,0,0,1,18.807,9.2H7.6L3.088,22.177c-.125,2.645,1.467,4.739,3.756,4.973.146.013.3.022.45.022" fill="#fff"/>
      <path id="Tracé_54573" data-name="Tracé 54573" d="M35.332,28.907c-.211.021-.419.031-.63.031h0a6.173,6.173,0,0,1-4.569-2.05A6.112,6.112,0,0,1,21.5,27.4,6.358,6.358,0,0,1,21,26.889a6.112,6.112,0,0,1-9.136,0,6.258,6.258,0,0,1-5.192,2.02,5.894,5.894,0,0,1-1.3-.287V40.23H17.427V32.813h7.355V40.23H36.624V28.622a5.8,5.8,0,0,1-1.292.285" fill="#fff"/>
      <path id="Tracé_54574" data-name="Tracé 54574" d="M27.817,8.544l-3.638.761,2.5,2.755-.4,3.7,3.39-1.523,3.388,1.519-.4-3.7,2.5-2.755-3.643-.757L29.665,5.319Z" fill="#d81e05"/>
    </g>
  </g>
</svg>
