<svg xmlns="http://www.w3.org/2000/svg" width="40" height="41.003" viewBox="0 0 40 41.003">
  <g transform="translate(0 0.503)">
    <rect width="40" height="40" transform="translate(0 0.001)" fill="none"/>
    <path d="M2.2,34.555V16.321a5,5,0,0,1-1.092-.9,4.023,4.023,0,0,1-.9-4.076l.025-.075L3.722,3.161A5.124,5.124,0,0,1,8.691.006H29.024a5.14,5.14,0,0,1,4.969,3.167l3.131,8.137a.052.052,0,0,1,.019.037,4.014,4.014,0,0,1-.891,4.065,4.852,4.852,0,0,1-1.1.9V34.555a5.179,5.179,0,0,1-4.868,5.438L7.079,40A5.185,5.185,0,0,1,2.2,34.555Zm2.346,0A2.85,2.85,0,0,0,7.079,37.64h23.2A2.849,2.849,0,0,0,32.8,34.555V17.437H4.55ZM5.9,4.038,2.429,12.149a1.663,1.663,0,0,0,.421,1.688,3.175,3.175,0,0,0,2.333.936h27a3.2,3.2,0,0,0,2.327-.942,1.658,1.658,0,0,0,.408-1.692L31.784,4V3.97a2.85,2.85,0,0,0-2.76-1.619H8.691A2.845,2.845,0,0,0,5.924,3.976V3.97A.213.213,0,0,1,5.9,4.038Zm10.289,28.2,1.343-6.216a.877.877,0,0,0,.025-.182.667.667,0,0,0-.213-.495.562.562,0,0,0-.188-.132.844.844,0,0,0-.352-.076,1.167,1.167,0,0,0-1.1.885l-1.374,6.223H10.761L12.01,26.3a7.579,7.579,0,0,1,.483-1.536,4.246,4.246,0,0,1,.846-1.3,3.633,3.633,0,0,1,1.336-.9,5.125,5.125,0,0,1,1.945-.338c.145,0,.3,0,.465.011a5.326,5.326,0,0,1,.552.07A3.486,3.486,0,0,1,19.7,23.54h.013a6.355,6.355,0,0,1,1.6-.916,5.021,5.021,0,0,1,1.788-.382h.069a5.63,5.63,0,0,1,1.223.12c.125.031.245.062.357.1a2.8,2.8,0,0,1,1.06.6,2.559,2.559,0,0,1,.6.916,3.455,3.455,0,0,1,.182,1.16,5.887,5.887,0,0,1-.125,1.142l-1.243,5.946h-3.6l1.248-6.185a1.453,1.453,0,0,0,.013-.169.725.725,0,0,0-.208-.5,1.283,1.283,0,0,0-.156-.1.8.8,0,0,0-.383-.094,1.172,1.172,0,0,0-1.1.879l-1.2,6.2Z" transform="translate(1.667)" fill="#fff" stroke="rgba(0,0,0,0)" stroke-width="1"/>
  </g>
</svg>
