<svg id="icon-meat-and-poultry" xmlns="http://www.w3.org/2000/svg" width="48" height="48" viewBox="0 0 48 48">
  <rect id="bg" width="48" height="48" fill="none"/>
  <path id="icon" d="M3415.763,654.776c-4.448-2.434-6.763-6.107-6.763-10.561V641c0-7.713,6.808-7.713,12.274-7.76,4.26,0,8.244,0,9.726-2.663a11.691,11.691,0,0,1,12.784-5.235c2.779.734,9.216,3.673,9.216,15.658v3.213c0,8.954-11.811,13.777-22.926,13.777q-.383.01-.764.01A30.051,30.051,0,0,1,3415.763,654.776Zm17.369-23.051c-2.178,3.9-7.319,3.95-11.858,3.95-6.253.046-9.819.276-9.819,5.327,0,3.582,1.853,6.428,5.511,8.45a27.5,27.5,0,0,0,13.108,2.893h.005c9.911,0,20.47-3.95,20.47-11.39,0-7.254-2.685-12.071-7.363-13.27a8.506,8.506,0,0,0-2.177-.276h-.07A9.2,9.2,0,0,0,3433.132,631.724Zm-3.226,17.8a.708.708,0,0,1-.53-.854v-.046a5.109,5.109,0,0,0,.046-1.884.811.811,0,0,1,.371-.689h0a24.876,24.876,0,0,1,16.211-2.938.73.73,0,0,1,.325.152.7.7,0,0,1,.091,1c-2.827,3.306-9.774,5.281-16.351,5.281A.74.74,0,0,1,3429.906,649.524Zm-4-.208a20.5,20.5,0,0,1-7.551-2.249c-2.734-1.516-4.076-3.491-4.076-6.017,0-1.93,0-2.526,7.041-2.572h.422a.77.77,0,0,1,.549.23c1.853,2.066,5.282,6.659,4.679,9.414a1.771,1.771,0,0,1-.416.918.62.62,0,0,1-.525.288A.639.639,0,0,1,3425.9,649.316Zm2.408-6.159a24.683,24.683,0,0,0-2.316-3.765.74.74,0,0,1-.136-.348.727.727,0,0,1,.647-.8c3.567-.365,7.086-1.56,9.078-5.143a5.379,5.379,0,0,1,1.482-1.6.731.731,0,0,1,.4-.143.722.722,0,0,1,.754.688l-.006,0a25.011,25.011,0,0,1-.88,8.219.693.693,0,0,1-.55.506,28.317,28.317,0,0,0-7.5,2.709l-.033.017a.711.711,0,0,1-.94-.337Zm18.571-2.34a24.588,24.588,0,0,0-5.975-.459.768.768,0,0,1-.142-.012.739.739,0,0,1-.6-.86,31.453,31.453,0,0,0,.51-8.495.721.721,0,0,1,0-.122.681.681,0,0,1,.741-.614,3.512,3.512,0,0,1,1.066.138h0c3.153.827,5.05,4.316,5.28,9.688a.816.816,0,0,1-.012.14.747.747,0,0,1-.868.594Z" transform="translate(-3407 -618)" fill="#f18e00" stroke="rgba(0,0,0,0)" stroke-width="1"/>
</svg>
