<svg xmlns="http://www.w3.org/2000/svg" width="48" height="49" viewBox="0 0 48 49">
  <g id="icon-frozen" transform="translate(0 0.5)">
    <rect id="bg" width="48" height="48" fill="none"/>
    <path id="icon" d="M3020.375,161.767V149.439h6.466v12.329a3.233,3.233,0,0,1-6.466,0Zm-2.018-14.5A5.391,5.391,0,0,1,3013,141.91v-14.3A10.641,10.641,0,0,1,3023.61,117h.052a10.561,10.561,0,0,1,10.51,10.611v14.3a5.391,5.391,0,0,1-5.357,5.357Zm-1.518-19.658v6.72a1.1,1.1,0,0,0,1.062,1.061,1.068,1.068,0,0,0,1.062-1.061v-6.794a4.634,4.634,0,0,1,4.647-4.623l0,0a1.061,1.061,0,0,0,0-2.121h-.093A6.749,6.749,0,0,0,3016.839,127.608Z" transform="translate(-2999.586 -117)" fill="#1269a2" stroke="rgba(0,0,0,0)" stroke-width="1"/>
  </g>
</svg>
