<svg xmlns="http://www.w3.org/2000/svg" xmlns:xlink="http://www.w3.org/1999/xlink" width="183" height="184" viewBox="0 0 183 184">
  <defs>
    <clipPath id="clip-path">
      <rect id="Rectangle_6561" data-name="Rectangle 6561" width="120.843" height="121.629" fill="none"/>
    </clipPath>
    <clipPath id="clip-icone-61020-metrogo">
      <rect width="183" height="184"/>
    </clipPath>
  </defs>
  <g id="icone-61020-metrogo" clip-path="url(#clip-icone-61020-metrogo)">
    <g id="Groupe_101426" data-name="Groupe 101426" transform="translate(27.078 22.186)">
      <g id="Groupe_101425" data-name="Groupe 101425" transform="translate(0 0)" clip-path="url(#clip-path)">
        <path id="Tracé_55063" data-name="Tracé 55063" d="M23.6,23.906c.232.21.454.435.7.633l.78.561a16.626,16.626,0,0,0,1.641,1.015c.276.172.567.3.852.445l.78.385.77.373c.235.119.561.257.714.36a13.038,13.038,0,0,1,1.115.676l.539.373c.169.128.307.266.463.395a4.94,4.94,0,0,1,.814.824A6.109,6.109,0,0,1,33.808,31.8a7.321,7.321,0,0,1,.319,2.111,5.218,5.218,0,0,1,.016.542l-.066.554c-.056.366-.047.73-.135,1.1a19.122,19.122,0,0,1-.557,2.167,36.777,36.777,0,0,1-1.541,4.011c-.6,1.237-1.09,2.4-1.644,3.4-.535,1.005-.961,1.907-1.365,2.63s-.68,1.312-.889,1.707l-.3.614.573-.5c.363-.332.918-.811,1.575-1.444.686-.623,1.453-1.406,2.286-2.333a40.766,40.766,0,0,0,2.693-3.185,29.957,29.957,0,0,0,2.58-4.071A19.49,19.49,0,0,0,38.4,36.713a10.467,10.467,0,0,0,.36-1.306l.163-.67c.044-.225.05-.467.075-.7a8.02,8.02,0,0,0-1.569-5.947A8.872,8.872,0,0,0,36.2,26.727c-.235-.21-.454-.435-.7-.629l-.78-.561a16.762,16.762,0,0,0-1.707-1.052c-.316-.188-.532-.272-.8-.41l-.767-.379-.761-.366c-.216-.11-.47-.21-.661-.332a12.209,12.209,0,0,1-1.184-.711l-.539-.373c-.175-.128-.307-.263-.467-.395a5.064,5.064,0,0,1-.814-.824,6.184,6.184,0,0,1-1.046-1.857,7.543,7.543,0,0,1-.319-2.111,5.256,5.256,0,0,1-.013-.545l.063-.551c.06-.37.047-.733.138-1.1a19.8,19.8,0,0,1,.554-2.167,36.8,36.8,0,0,1,1.544-4.011c.6-1.237,1.09-2.4,1.641-3.4.532-1,.946-1.907,1.368-2.634s.689-1.315.9-1.71l.3-.614-.57.507c-.36.332-.918.811-1.569,1.44-.676.617-1.447,1.4-2.286,2.333a41.422,41.422,0,0,0-2.69,3.185,29.174,29.174,0,0,0-2.58,4.071A18.387,18.387,0,0,0,21.4,13.926a10.478,10.478,0,0,0-.363,1.306l-.163.67c-.047.225-.05.467-.075.7a8.02,8.02,0,0,0,1.566,5.94A8.732,8.732,0,0,0,23.6,23.906" transform="translate(44.184 0.001)" fill="#fff"/>
        <path id="Tracé_55064" data-name="Tracé 55064" d="M18.169,3.052l0,.006.009-.006Z" transform="translate(38.72 6.507)" fill="#fff"/>
        <path id="Tracé_55065" data-name="Tracé 55065" d="M16.428,21.38a7.169,7.169,0,0,0,1.027,1.149c.194.178.382.366.589.532l.651.47a14.2,14.2,0,0,0,1.365.849c.229.141.467.244.7.363l.629.313.623.3c.188.094.46.21.567.285a9.562,9.562,0,0,1,.842.51l.41.279c.128.1.232.2.351.3a3.671,3.671,0,0,1,.617.611,4.833,4.833,0,0,1,.8,1.387,5.782,5.782,0,0,1,.269,1.616,3.255,3.255,0,0,1-.019.855c-.044.288-.028.573-.091.864a15.42,15.42,0,0,1-.4,1.722,30.931,30.931,0,0,1-1.146,3.232c-.442,1-.817,1.942-1.231,2.759-.388.824-.7,1.559-1,2.151s-.495,1.077-.648,1.4l-.216.5.489-.391c.307-.26.783-.636,1.337-1.137.573-.492,1.228-1.112,1.938-1.844a32.825,32.825,0,0,0,2.261-2.546,23.432,23.432,0,0,0,2.18-3.285,15.178,15.178,0,0,0,.889-1.948,7.918,7.918,0,0,0,.313-1.071,5.141,5.141,0,0,0,.21-1.13A6.625,6.625,0,0,0,29.458,25.5a7.448,7.448,0,0,0-1.027-1.149c-.194-.175-.379-.37-.589-.532l-.651-.47a14.281,14.281,0,0,0-1.431-.883c-.269-.163-.435-.225-.651-.338l-.617-.307-.611-.291c-.172-.088-.37-.163-.517-.257a9.811,9.811,0,0,1-.908-.545,6.482,6.482,0,0,1-.764-.573,3.923,3.923,0,0,1-.614-.614A4.617,4.617,0,0,1,20,16.527a3.259,3.259,0,0,1,.022-.855c.044-.288.028-.573.091-.864a15.419,15.419,0,0,1,.4-1.722,31.042,31.042,0,0,1,1.14-3.225c.445-1,.82-1.942,1.231-2.753.385-.82.7-1.559,1.005-2.154s.5-1.08.654-1.4l.213-.5-.482.385c-.3.266-.78.639-1.331,1.137-.567.482-1.224,1.1-1.935,1.841Q19.81,7.639,18.742,8.97a23.251,23.251,0,0,0-2.18,3.285,14.329,14.329,0,0,0-.889,1.945,8.409,8.409,0,0,0-.316,1.071,5.294,5.294,0,0,0-.21,1.13,6.646,6.646,0,0,0,.138,2.618,6.722,6.722,0,0,0,1.143,2.361" transform="translate(32.135 6.513)" fill="#fff"/>
        <path id="Tracé_55066" data-name="Tracé 55066" d="M13.022,36.307v.266a4.688,4.688,0,0,0,.921,2.771,4.746,4.746,0,0,0,2.386,1.7,71.649,71.649,0,0,0,42.294,0,4.722,4.722,0,0,0,3.307-4.475v-.266a64.1,64.1,0,0,1-24.457,4.616,64.072,64.072,0,0,1-24.45-4.616" transform="translate(27.756 77.388)" fill="#fff"/>
        <path id="Tracé_55067" data-name="Tracé 55067" d="M114.681,40.934C110.387,38.06,102.39,33.425,96,33.885c-6.094.438-9.385,2.386-11.182,3.83-1.873-2.461-5.2-6.529-10.634-6.77C69.45,30.735,64.342,32.62,61.32,34a6.528,6.528,0,0,0-6.238-4.224c-3.62,0-8.94,2.455-11.828,3.943-1.168-1.109-3.2-2.057-6.8-1.885-2.026.106-5.474,1.347-9.21,2.969-3.416-4.171-7.55-9.1-9.946-11.486a83.494,83.494,0,0,0-7.484-7.1A54.685,54.685,0,0,0,2.85,11.652S-.442,12.6.05,13.835a27.214,27.214,0,0,0,4.005,7.3c2.436,3.229,8.06,7.788,8.176,8.026.921.974,5.142,4.638,9.238,8.308-2.164,1.055-4.221,2.107-5.987,3.034C8.7,41.852,9.617,42.9,9.617,44.961a40.891,40.891,0,0,0,3.535,15.908,51.429,51.429,0,0,0,4.393,8.092,53.688,53.688,0,0,0,6.128,7.6c4.945,5.1,10.86,6.037,17.4,8.84a60.68,60.68,0,0,0,24.159,4.766,60.722,60.722,0,0,0,24.156-4.757c6.542-2.806,12.457-3.742,17.4-8.843a53.47,53.47,0,0,0,6.128-7.6,51.16,51.16,0,0,0,4.4-8.089,40.915,40.915,0,0,0,3.532-15.911c0-1.419-2.136-2.793-6.163-4.033M15.889,45.6c2.893-1.544,6.188-3.225,9.332-4.722,1.6,1.478,2.966,2.8,3.824,3.736a8.2,8.2,0,0,1,2.042,3.952,88.749,88.749,0,0,1-15.2-2.965M98.635,48.66a278.836,278.836,0,0,1-33.406,1.813c-5.029.031-10.055-.1-15.075-.341A16.542,16.542,0,0,0,45.4,45.644c-7.6-4.923-10.866-1.823-12.9-4.35-.435-.545-1.212-1.516-2.183-2.718A24.768,24.768,0,0,1,36.7,36.519c2.508-.135,3.351.52,3.41.532l.36,3.6,3.141-1.794c2.975-1.7,8.718-4.387,11.471-4.387,2.035,0,2.308,2.562,2.342,3.056l.2,3.82,3.319-1.907c.069-.041,7.033-4.115,13.039-3.8,3.495.153,5.821,3.229,7.362,5.261.961,1.271,2.574,3.4,4.682,1.979a6.634,6.634,0,0,0,.839-.708c1.093-1.024,3.366-3.163,9.476-3.6,5.4-.379,13.409,4.541,17.279,7.331A99.667,99.667,0,0,1,98.635,48.66m17.652-3.7h0" transform="translate(0 24.837)" fill="#fff"/>
      </g>
    </g>
  </g>
</svg>
