<svg width="34" height="34" viewBox="0 0 34 34" fill="none" xmlns="http://www.w3.org/2000/svg">
<g id="Section container">
<path d="M0.627899 17C0.627899 8.16344 7.79134 1 16.6279 1V1C25.4645 1 32.6279 8.16344 32.6279 17V17C32.6279 25.8366 25.4645 33 16.6279 33V33C7.79134 33 0.627899 25.8366 0.627899 17V17Z" stroke="#E0E0E0" stroke-linejoin="bevel"/>
<path id="icon" fill-rule="evenodd" clip-rule="evenodd" d="M16.4933 26C16.3349 26 16.1776 25.959 16.0393 25.8815L13.2901 24.3357L10.9975 25.6246C10.8569 25.7039 10.7049 25.7443 10.5456 25.7443C10.3106 25.7443 10.0782 25.6514 9.90713 25.4907C9.72705 25.3209 9.6279 25.0906 9.6279 24.8427V10.0936C9.6279 9.5965 10.0383 9.19253 10.5431 9.19253C10.6662 9.19253 10.7879 9.21697 10.9037 9.26562L13.2901 10.2721L16.1322 9.07332C16.2468 9.02467 16.3681 9 16.4931 9C16.6178 9 16.7395 9.02467 16.8537 9.07332L19.6971 10.2721L22.0822 9.26562C22.1984 9.21697 22.3197 9.19253 22.4433 9.19253C22.948 9.19253 23.3584 9.5965 23.3584 10.0936V24.8427C23.3584 25.3399 22.9471 25.7443 22.4417 25.7443C22.2814 25.7443 22.1299 25.7039 21.9888 25.6246L19.6971 24.3357L16.9475 25.8815C16.8092 25.959 16.6524 26 16.4933 26H16.4933ZM13.908 21.4593C13.9338 21.4623 13.9573 21.4637 13.9799 21.4637H16.0173C16.2979 21.4637 16.5261 21.2351 16.5261 20.9543C16.5261 20.6739 16.2979 20.4457 16.0173 20.4457H13.9799C13.9545 20.4457 13.9292 20.4487 13.908 20.451C13.8867 20.4487 13.8616 20.4457 13.8353 20.4457H11.7989C11.5178 20.4457 11.2891 20.6739 11.2891 20.9543C11.2891 21.2352 11.5178 21.4637 11.7989 21.4637H13.8353C13.8582 21.4637 13.8819 21.4623 13.908 21.4593ZM13.908 19.1557C13.9333 19.1593 13.9573 19.1612 13.9799 19.1612H16.0173C16.2979 19.1612 16.5261 18.9325 16.5261 18.6516C16.5261 18.371 16.2979 18.1427 16.0173 18.1427H13.9799C13.9557 18.1427 13.9317 18.1448 13.908 18.1485C13.884 18.1448 13.8602 18.1427 13.8353 18.1427H11.7989C11.5178 18.1427 11.2891 18.371 11.2891 18.6516C11.2891 18.9325 11.5178 19.1612 11.7989 19.1612H13.8353C13.8582 19.1612 13.8824 19.1593 13.908 19.1557ZM11.7989 15.8403C11.5178 15.8403 11.2891 16.0686 11.2891 16.3492C11.2891 16.6296 11.5178 16.8579 11.7989 16.8579H15.6919C15.7018 16.8588 15.7117 16.8588 15.7221 16.8588H19.7966C20.0775 16.8588 20.3057 16.6303 20.3057 16.3492C20.3057 16.0686 20.0775 15.8403 19.7966 15.8403H15.8732H11.7989ZM13.908 14.5497C13.9333 14.5531 13.9573 14.5552 13.9799 14.5552H16.0173C16.2979 14.5552 16.5261 14.3269 16.5261 14.0463C16.5261 13.7662 16.2979 13.5379 16.0173 13.5379H13.9799C13.9587 13.5379 13.9363 13.5391 13.908 13.5423C13.8824 13.5393 13.8575 13.5379 13.8353 13.5379H11.7989C11.5178 13.5379 11.2891 13.7662 11.2891 14.0463C11.2891 14.3269 11.5178 14.5552 11.7989 14.5552H13.8353C13.8582 14.5552 13.8824 14.5531 13.908 14.5497Z" fill="#F18E00"/>
</g>
</svg>
