<svg xmlns="http://www.w3.org/2000/svg" width="25" height="24" viewBox="0 0 25 24" fill="none">
  <path d="M12.4746 15.0393C12.5495 15.125 12.6306 15.2074 12.7168 15.2864C13.0111 15.5479 13.3538 15.7492 13.7256 15.8782C14.0977 16.0072 14.4921 16.0616 14.8848 16.0383C15.2775 16.015 15.6626 15.9144 16.0166 15.7424C16.3708 15.5703 16.6881 15.3298 16.9492 15.0354L17.3213 14.6165L17.6953 15.0334C17.9781 15.3485 18.3244 15.6012 18.7109 15.7747C19.0972 15.9478 19.5149 16.0374 19.9375 16.0393C19.9892 16.0393 20.0405 16.0389 20.0918 16.0364L20.248 16.0247C20.461 16.0025 20.6707 15.9566 20.873 15.887L21.5361 15.6584V23.5002H13.7617V19.2571H10.5547V23.5002H2.65918V15.6594L3.32129 15.887C3.52356 15.9563 3.73319 16.0028 3.94629 16.0256H3.94727C4.421 16.0685 4.89814 16.0014 5.34082 15.8293C5.78434 15.6568 6.18285 15.3831 6.50293 15.0315L6.87695 14.6213L7.24609 15.0364C7.52711 15.3524 7.87219 15.6053 8.25781 15.7786C8.64317 15.9516 9.06134 16.0402 9.48438 16.0403C9.90784 16.0403 10.3273 15.9517 10.7129 15.7786C11.0985 15.6053 11.4436 15.3524 11.7246 15.0364L12.1016 14.6125L12.4746 15.0393ZM17.3447 0.50415C18.7767 0.575342 20.1357 1.1761 21.1543 2.19458C22.2408 3.28117 22.8515 4.75535 22.8516 6.29224C22.8515 7.43835 22.5117 8.55909 21.875 9.51196C21.6813 9.80183 21.4628 10.0723 21.2227 10.3206C21.2358 10.3068 21.2497 10.2935 21.2627 10.2795L21.8281 9.67407L22.0996 10.4563L22.8145 12.511L22.8369 12.5774L22.8418 12.6467C22.939 14.3491 21.8829 15.8489 20.248 16.0168L20.2422 16.0178C19.6639 16.0707 19.0818 15.9572 18.5654 15.6907C18.0488 15.4238 17.6188 15.0143 17.3271 14.512V14.511L17.3193 14.4973L17.3135 14.5061L17.3145 14.5071C17.0529 14.9694 16.6723 15.354 16.2139 15.6213C15.7553 15.8886 15.2338 16.0295 14.7031 16.0295C14.1726 16.0295 13.651 15.8887 13.1924 15.6213C12.7339 15.354 12.3534 14.9695 12.0918 14.5071V14.5061L12.0898 14.5042L12.0859 14.512C11.8224 14.9693 11.4435 15.35 10.9873 15.6165C10.5308 15.883 10.0121 16.0261 9.4834 16.0305H9.47852C9.01371 16.03 8.55691 15.9213 8.14355 15.7151L7.96973 15.6204C7.51203 15.3531 7.13163 14.9693 6.87012 14.5071V14.5061L6.86816 14.5042L6.86621 14.5061L6.86719 14.5071C6.60597 14.9692 6.22653 15.3538 5.76855 15.6213C5.31064 15.8887 4.78934 16.03 4.25879 16.0305H4.25781C4.15335 16.0305 4.0496 16.0242 3.95605 16.0159H3.94922C2.32025 15.8492 1.27153 14.3679 1.35254 12.6497L1.35547 12.5774L1.37891 12.509L3.95996 5.08521L4.07715 4.74927H11.4385L11.3369 5.33521C11.1226 6.56292 11.31 7.82736 11.8721 8.9397C12.4342 10.0519 13.3407 10.9534 14.4561 11.509C15.5715 12.0645 16.8371 12.2451 18.0635 12.0237C19.2604 11.8075 20.3572 11.2188 21.2002 10.344C20.6555 10.901 20.0009 11.3448 19.2744 11.6458C18.2158 12.0842 17.0508 12.1993 15.9268 11.9758C14.8027 11.7522 13.7702 11.2 12.96 10.3899C12.1497 9.57963 11.5967 8.54719 11.373 7.4231C11.1494 6.29887 11.2646 5.13321 11.7031 4.07446C12.1417 3.01567 12.885 2.11061 13.8379 1.47388C14.7907 0.837338 15.9116 0.497314 17.0576 0.497314L17.3447 0.50415Z" stroke="#333333"/>
  <path d="M15.9981 4.87415L13.917 5.30948L15.3471 6.88547L15.1183 9.00205L17.0575 8.13082L18.9956 8.99976L18.7668 6.88318L20.1969 5.30719L18.113 4.87415L17.0552 3.0293L15.9981 4.87415Z" fill="#333333"/>
</svg>