<svg xmlns="http://www.w3.org/2000/svg" width="21" height="24" viewBox="0 0 21 24" fill="none">
  <path fill-rule="evenodd" clip-rule="evenodd" d="M15.0954 15.3215V15.3205C14.0334 15.3205 12.9304 15.5505 11.9474 15.9585L12.6654 7.85952C12.6674 7.83752 12.6684 7.81552 12.6684 7.79352C12.6684 7.37652 12.3304 7.03852 11.9134 7.03852H11.9064L7.08741 7.05252V3.71752L11.3044 1.41752C11.6704 1.21752 11.8054 0.759523 11.6054 0.393523C11.4064 0.0265234 10.9474 -0.108477 10.5814 0.0915234L5.97141 2.59952C5.72741 2.73252 5.57641 2.98852 5.57741 3.26652V7.05752L0.752408 7.07152C0.733408 7.07152 0.714408 7.07252 0.695408 7.07352C0.279408 7.10752 -0.0305917 7.47052 0.00240826 7.88652L1.22241 23.2975C1.25141 23.6925 1.57941 23.9975 1.97541 23.9975H10.5434C10.9344 23.9975 11.2604 23.6985 11.2954 23.3095L11.3174 23.0625C12.4404 23.6535 13.7994 23.9915 15.0954 23.9915H15.5844L15.6124 23.9695C18.2694 23.7695 20.0834 22.0555 20.0834 19.6565C20.0834 17.1035 18.0324 15.3215 15.0954 15.3215ZM7.08741 14.5515V8.56252L11.0844 8.55052L10.6364 13.6165C10.6254 13.6155 10.6154 13.6095 10.6034 13.6095C9.65441 13.6015 8.71941 13.8285 7.87941 14.2695C7.62641 14.4105 7.35641 14.5155 7.07941 14.5925C7.08041 14.5775 7.08741 14.5655 7.08741 14.5515ZM1.91941 12.9645L1.57241 8.57852L5.57741 8.56652V14.5515C5.57741 14.5815 5.59141 14.6075 5.59441 14.6365C4.27441 14.4315 3.02841 13.8865 2.00641 13.0145C1.98041 12.9915 1.94741 12.9835 1.91941 12.9645ZM2.67241 22.4875L2.07441 14.9295C3.30041 15.6955 4.70241 16.1485 6.15941 16.2345C6.98241 16.2285 7.79241 16.0225 8.51841 15.6345C9.12941 15.3045 9.81041 15.1335 10.5034 15.1245L10.3484 16.8745C9.41541 17.6065 8.80141 18.5585 8.80141 19.6555C8.80141 20.5605 9.22341 21.3655 9.89241 22.0315L9.85241 22.4875H2.67241ZM15.0954 22.5995C12.5824 22.5995 10.1954 21.1235 10.1954 19.6595C10.1954 18.1955 12.5774 16.7205 15.0954 16.7205L15.0904 16.7245C17.3234 16.7245 18.6824 17.9445 18.6824 19.6635C18.6824 21.3825 17.3294 22.5995 15.0954 22.5995Z" fill="#333333"/>
</svg>