<svg id="icon-hiring" xmlns="http://www.w3.org/2000/svg" width="64.001" height="64" viewBox="0 0 64.001 64">
  <rect id="bg" width="64" height="64" fill="none"/>
  <path id="icon" d="M37.071,57.6H.927a.93.93,0,0,1-.634-.252A.948.948,0,0,1,0,56.7V8.053A.944.944,0,0,1,.293,7.4a.925.925,0,0,1,.64-.252H20.2a.474.474,0,0,1,.129,0,.909.909,0,1,1-.139,1.813H1.918V55.791H36.11V36.547a.944.944,0,0,1,.937-.912h.03v0H37.1a.938.938,0,0,1,.931.9V56.7a.936.936,0,0,1-.931.906ZM31,50.033H7.062a.656.656,0,0,1-.124,0h-.03a.911.911,0,0,1-.6-.312.923.923,0,0,1-.218-.664A.914.914,0,0,1,7,48.221H31.007a.511.511,0,0,1,.134,0,.881.881,0,0,1,.614.316.864.864,0,0,1,.218.658.881.881,0,0,1-.312.619.9.9,0,0,1-.589.223A.407.407,0,0,1,31,50.033ZM31,44.8H7.062a.439.439,0,0,1-.124,0,.91.91,0,0,1-.531-1.6.885.885,0,0,1,.664-.215H31.007c.044,0,.084,0,.129,0a.908.908,0,0,1,.837.973.912.912,0,0,1-.9.848C31.047,44.807,31.026,44.8,31,44.8Zm31.442-4.375L50,28.168A16.489,16.489,0,0,1,39.108,32.33,16.324,16.324,0,0,1,22.638,16.162,16.467,16.467,0,0,1,50.652,4.732a15.944,15.944,0,0,1,.639,22.156L63.723,39.127a.946.946,0,0,1,.277.689.927.927,0,0,1-.272.609.914.914,0,0,1-.645.264A.93.93,0,0,1,62.443,40.426ZM24.466,16.162a14.488,14.488,0,0,0,14.593,14.35,14.752,14.752,0,0,0,10.646-4.549,14.122,14.122,0,0,0,3.93-9.8,14.586,14.586,0,0,0-29.169,0ZM31,39.568H6.938l-.03,0A.911.911,0,0,1,7.07,37.75H31.007a.765.765,0,0,1,.134,0,.883.883,0,0,1,.614.318.871.871,0,0,1,.218.658.9.9,0,0,1-.9.842Zm-16.84-6.391A17.171,17.171,0,0,1,9.043,32.4C6.6,31.563,6.095,30.3,6.095,29.4a7.9,7.9,0,0,1,4.975-7.184,4.874,4.874,0,0,1-1.933-3.84,5.137,5.137,0,0,1,5.157-4.994h.318a5.143,5.143,0,0,1,5.162,4.988,4.895,4.895,0,0,1-1.962,3.861A7.9,7.9,0,0,1,22.8,29.393c0,2.793-4.493,3.779-8.344,3.785ZM8.012,29.406c0,.932,2.508,1.928,6.253,1.957l.178,0c3.851,0,6.437-1.016,6.437-1.963a6.221,6.221,0,0,0-6.237-6.035H14.25A6.217,6.217,0,0,0,8.012,29.406Zm3.043-11.059v.041a3.28,3.28,0,0,0,3.289,3.18h.145a3.292,3.292,0,0,0,3.363-3.18,3.279,3.279,0,0,0-3.294-3.178h-.223A3.269,3.269,0,0,0,11.055,18.348ZM36.3,24.111l-6.867-6.434a.317.317,0,0,0-.061-.059.886.886,0,0,1-.223-.629.867.867,0,0,1,.288-.605.993.993,0,0,1,1.348,0l6.188,5.809L48.953,10.965l.02.07-.016-.074a.991.991,0,0,1,1.348.045.875.875,0,0,1,0,1.242L37.651,24.111a1,1,0,0,1-1.348,0Z" transform="translate(0 3.199)" fill="#fff"/>
</svg>
