<svg id="icon-value-pack" xmlns="http://www.w3.org/2000/svg" width="48" height="48" viewBox="0 0 48 48">
  <rect id="bg" width="48" height="48" fill="none"/>
  <path id="icon" d="M3028.383,797c-3.15,0-7.917-3.154-7.917-9.454,0-11.03,11.085-20.484,11.085-20.484h15.833s11.082,9.454,11.082,20.484c0,6.3-4.752,9.454-7.916,9.454Zm9.5-8.032v2.516h3.164v-2.522l0,0c2.427-.461,3.883-1.969,3.883-4.225,0-2.11-1.175-3.265-3.9-3.834l-1.633-.345c-1.591-.354-2.236-.815-2.236-1.647,0-1.026.988-1.681,2.358-1.681a2.266,2.266,0,0,1,2.5,1.777h2.642a4.205,4.205,0,0,0-3.635-3.881v-2.544h-3.165v2.537a4.1,4.1,0,0,0-3.57,4.028c0,2.056,1.215,3.337,3.684,3.851l1.764.375c1.664.372,2.338.863,2.338,1.725,0,1.014-1.045,1.725-2.516,1.725-1.6,0-2.7-.7-2.839-1.795h-2.742C3034.088,787.108,3035.554,788.54,3037.885,788.971Zm-5.817-24.786-1.374-3.785a1.443,1.443,0,0,1-.1-.521,1.462,1.462,0,0,1,1.477-1.447h4.088a4.4,4.4,0,0,1,.323-.314,4.55,4.55,0,0,1,6.3.314h4.086a1.539,1.539,0,0,1,.54.1,1.429,1.429,0,0,1,.833,1.87l-1.374,3.783Z" transform="translate(-3015.465 -754.001)" fill="#77b800" stroke="rgba(0,0,0,0)" stroke-width="1"/>
</svg>
