<svg xmlns="http://www.w3.org/2000/svg" width="16" height="16" viewBox="0 0 16 16" fill="none">
    <path fill-rule="evenodd" clip-rule="evenodd" d="M4.14258 16.0098C3.87891 16.0098 3.66113 15.8047 3.6416 15.542L2.71875 3.45801H1.50391C1.22364 3.45801 1 3.23047 1 2.95508C1 2.67188 1.22363 2.44727 1.50391 2.44727H3.14454C3.17188 2.44532 3.19825 2.44532 3.22462 2.44727H5.47169V0.516606C5.47169 0.237306 5.69532 0.00976562 5.97169 0.00976562H10.4375C10.7139 0.00976562 10.9414 0.237306 10.9414 0.516606V2.44727H13.1504C13.1729 2.44532 13.1963 2.44532 13.2197 2.44727H14.9287C15.209 2.44727 15.4326 2.67188 15.4326 2.95508C15.4326 3.23047 15.209 3.45801 14.9287 3.45801H13.6524L12.8174 15.5381C12.8008 15.8018 12.5801 16.0098 12.3164 16.0098L4.14258 16.0098ZM4.60742 14.9951H11.8477L12.6455 3.458H10.4375H5.97167H3.72558L4.60742 14.9951ZM9.93359 2.44726V1.02148H6.47558V2.44726H9.93359ZM9.70996 13.7148C9.42969 13.7021 9.21484 13.4648 9.22851 13.1855L9.57031 5.17675C9.58301 4.89843 9.81738 4.67968 10.0957 4.69335C10.3721 4.70702 10.5869 4.94042 10.5771 5.21972L10.2334 13.2314C10.2197 13.5 9.99903 13.7148 9.72852 13.7148C9.72266 13.7148 9.7168 13.7148 9.70997 13.7148H9.70996ZM6.71973 13.7148C6.45313 13.7148 6.23243 13.5 6.21875 13.2314L5.87793 5.21972C5.86523 4.94042 6.0791 4.70702 6.35547 4.69335C6.63477 4.67968 6.86914 4.89843 6.88184 5.17675L7.22364 13.1855C7.23634 13.4648 7.02247 13.7021 6.74219 13.7148C6.73633 13.7148 6.72949 13.7148 6.71973 13.7148Z" fill="white"/>
</svg>