<svg id="icon-world-cuisine" xmlns="http://www.w3.org/2000/svg" width="48" height="48" viewBox="0 0 48 48">
  <rect id="bg" width="48" height="48" fill="none"/>
  <path id="icon" d="M3023.755-131.53a.839.839,0,0,1,.469-1.091l4.9-1.715h-6.289a.831.831,0,0,1-.833-.833.832.832,0,0,1,.833-.833h11.048l23.674-8.293a.832.832,0,0,1,1.041.5.832.832,0,0,1-.49,1.071l-19.18,6.72h22.239v0a.832.832,0,0,1,.832.833.832.832,0,0,1-.832.833h-26.992l-9.389,3.287a.841.841,0,0,1-.279.047A.839.839,0,0,1,3023.755-131.53Zm7.411-11.141c-5.141,0-9.167-2.2-9.167-5v-10c0-2.8,4.026-5,9.167-5s9.167,2.2,9.167,5v10c0,2.8-4.027,5-9.167,5Zm-7.5-15c0,1.581,3.08,3.333,7.5,3.333s7.5-1.756,7.5-3.333-3.081-3.332-7.5-3.332S3023.667-159.25,3023.667-157.669Zm20,6.667v-10c0-2.8,4.025-5,9.164-5h0c5.14,0,9.166,2.2,9.166,5v10c0,2.8-4.026,5-9.166,5S3043.666-148.2,3043.666-151Zm1.665-10c0,1.576,3.08,3.332,7.5,3.332s7.5-1.754,7.5-3.332-3.08-3.335-7.5-3.335S3045.331-162.576,3045.331-161ZM3027-157.667c0-1.45,2.611-1.668,4.167-1.668s4.164.218,4.164,1.668-2.608,1.668-4.164,1.668S3027-156.217,3027-157.667ZM3048.666-161c0-1.45,2.606-1.667,4.164-1.667S3057-162.453,3057-161s-2.608,1.666-4.167,1.666S3048.666-159.55,3048.666-161Z" transform="translate(-3018 173)" fill="#1269a2" stroke="rgba(0,0,0,0)" stroke-width="1"/>
</svg>
