<svg id="icon-deli-and-prepared-meals" xmlns="http://www.w3.org/2000/svg" width="48" height="48" viewBox="0 0 48 48">
  <rect id="bg" width="48" height="48" fill="none"/>
  <path id="icon" d="M3058.63-33.106h-33.256a1.614,1.614,0,0,1-1.615-1.613v-4.573h36.484v4.573h0a1.612,1.612,0,0,1-1.612,1.612Zm-35.661-7.914c-.533,0-.969-.579-.969-1.292s.43-1.293.969-1.293h38.07c.529,0,.96.58.96,1.293s-.431,1.292-.96,1.292Zm-.632-4.11,0,0a1.563,1.563,0,0,1,.2-1.753,35.03,35.03,0,0,0,4.639.171,28.167,28.167,0,0,1,5.724-.97c4.19.164,7.8,1.106,12.018.259s7.673.123,11.83.158a13.587,13.587,0,0,0,2.357-.254,12.3,12.3,0,0,1,2.616-.245c.576,3.091-.533,3.037-2.888,2.622a19.143,19.143,0,0,0-3.687-.212,13.459,13.459,0,0,1-4.692-.523c-1.492-.512-3.18-.112-4.872.288a11.027,11.027,0,0,1-4.208.459c-1.754-.293-2.881-1.1-4.735-.673-1.818.419-3.573,1.276-5.463,1.1-.445-.043-1.447.019-2.626.081-.906.048-1.916.1-2.86.1C3024.136-44.529,3022.761-44.658,3022.338-45.13Zm1.422-4.41v-4.573a1.618,1.618,0,0,1,1.615-1.615h15.36l1.832-8.1c-.622-.149-1.045-.607-.949-1.022l.819-3.629c.092-.427.7-.652,1.338-.514l1.488.34c.643.14,1.083.6.987,1.031L3045.433-64c-.1.418-.673.65-1.3.521l-1.751,7.752h16.241l.006,0a1.616,1.616,0,0,1,1.614,1.615v4.573Z" transform="translate(-3018 71.069)" fill="#77b800" stroke="rgba(0,0,0,0)" stroke-width="1"/>
</svg>
