<svg id="icon-pharmacy" xmlns="http://www.w3.org/2000/svg" width="48" height="48" viewBox="0 0 48 48">
  <rect id="bg" width="48" height="48" fill="none"/>
  <path id="icon" d="M3016.439-583a2.309,2.309,0,0,1-2.3-2.3v-3.543h11.546a2.989,2.989,0,0,0,2.977-2.974v-11.937a2.987,2.987,0,0,0-2.979-2.979h-11.545V-610.1a2.309,2.309,0,0,1,2.3-2.3H3036.1a2.31,2.31,0,0,1,2.3,2.3v24.8a2.309,2.309,0,0,1-2.3,2.3Zm-2.248-8.675a.166.166,0,0,1-.056-.011v-12.206a.166.166,0,0,1,.056-.011h11.49a.144.144,0,0,1,.144.144v11.939a.144.144,0,0,1-.144.144Zm22.263-22.5h-20.37a1.9,1.9,0,0,1-1.948-1.515v-5.782a1.773,1.773,0,0,1,1.948-1.515h20.37a1.9,1.9,0,0,1,1.948,1.515v5.783a1.774,1.774,0,0,1-1.755,1.524A1.792,1.792,0,0,1,3036.454-614.177Z" transform="translate(-3002.27 627)" fill="#f18e00" stroke="rgba(0,0,0,0)" stroke-width="1"/>
</svg>
