<svg id="icon-snacks" xmlns="http://www.w3.org/2000/svg" width="48" height="48" viewBox="0 0 48 48">
  <rect id="bg" width="48" height="48" fill="none"/>
  <path id="icon" d="M3022,225a20,20,0,1,1,20,20A20,20,0,0,1,3022,225Zm15.746,14.942,1.847,1.231,2.221-3.335-1.846-1.23Zm7.588-7.163a5.555,5.555,0,1,0,5.556-5.556A5.556,5.556,0,0,0,3045.334,232.777Zm-18.885-3.334a4.443,4.443,0,0,0,4.441,4.444h.006a4.443,4.443,0,0,0,0-8.886h0A4.443,4.443,0,0,0,3026.449,229.443Zm14.44-15.554a5.555,5.555,0,1,0,5.555-5.556A5.556,5.556,0,0,0,3040.889,213.89Zm-10.785,1.9,3.334,3.334,1.572-1.572-3.334-3.335Zm17.449,17.134q0-.072,0-.143a3.334,3.334,0,1,1,3.4,3.4h-.073A3.333,3.333,0,0,1,3047.554,232.92Zm-18.888-3.476a2.223,2.223,0,1,1,2.222,2.22A2.222,2.222,0,0,1,3028.666,229.444Zm14.443-15.412q0-.072,0-.143a3.334,3.334,0,1,1,6.666-.143q0,.072,0,.143a3.334,3.334,0,0,1-3.261,3.4h-.073A3.334,3.334,0,0,1,3043.109,214.033Z" transform="translate(-3018 -201)" fill="#1269a2" stroke="rgba(0,0,0,0)" stroke-width="1"/>
</svg>
