<svg id="icon-dairy-and-eggs" xmlns="http://www.w3.org/2000/svg" width="48" height="48" viewBox="0 0 48 48">
  <rect id="bg" width="48" height="48" fill="none"/>
  <path id="icon" d="M3475.672-715.53v-25.015l3.963-6.794.351-.585,3.772,6.468a1.175,1.175,0,0,1,.161.593v12.188c-3.378,1.316-5.89,3.8-5.89,6.664s2.509,5.344,5.883,6.661Zm-15.314,0a2.358,2.358,0,0,1-2.356-2.356v-22.385l15.314,0v24.743Zm20.027-6.478c0-2.637,4.3-5.3,8.836-5.3,4.031,0,6.48,2.2,6.48,5.3s-2.449,5.3-6.48,5.3C3484.683-716.709,3480.385-719.372,3480.385-722.009Zm-6.566-20.62H3458l4.123-5.3h15.135l-3.094,5.3Zm-11.7-7.658v-2.357a2.356,2.356,0,0,1,2.356-2.356h12.96a2.356,2.356,0,0,1,2.356,2.356v2.357Z" transform="translate(-3452.852 759.175)" fill="#f18e00" stroke="rgba(0,0,0,0)" stroke-width="1"/>
</svg>
