<svg id="icon-natures-signature" xmlns="http://www.w3.org/2000/svg" width="48" height="48" viewBox="0 0 48 48">
  <rect id="bg" width="48" height="48" fill="none"/>
  <path id="icon" d="M3469.423-897.832a.607.607,0,0,1,.184-.689,51.9,51.9,0,0,1,6.02-4.788.509.509,0,0,1,.6-.032,4.792,4.792,0,0,1,2.538,4.7,4.77,4.77,0,0,1-3.419,4.1c-.424.113-.866.157-1.3.233A4.852,4.852,0,0,1,3469.423-897.832Zm-2.293,1.785c-.185-1.473-.364-2.948-.552-4.42a3.5,3.5,0,0,1,.55-2.348,13.688,13.688,0,0,1,3.486-3.663c2.236-1.686,4.512-3.318,6.8-4.935a81.266,81.266,0,0,0,7.561-5.671,14.836,14.836,0,0,0,1.676-1.746c.491-.613.876-1.31,1.317-1.984.064.465.136.959.2,1.455.119.957.188,1.922.358,2.868a4.029,4.029,0,0,1-.846,3.225,16.9,16.9,0,0,1-3.689,3.58c-2.8,2.047-5.657,4-8.459,6.044-1.778,1.3-3.53,2.633-5.232,4.025a9.46,9.46,0,0,0-3.06,3.961A3.491,3.491,0,0,1,3467.129-896.047Zm19.428-5.864c-2.576-1.094-5.208-2.051-7.817-3.067-.12-.047-.238-.1-.431-.174.167-.127.284-.219.406-.3,1.415-1,2.828-2,4.252-2.989a.568.568,0,0,1,.453-.081c1.637.673,3.286,1.323,4.888,2.074a9.5,9.5,0,0,1,1.885,1.307,2.811,2.811,0,0,1,.971,1.941c.177,1.5.393,2.994.591,4.492.017.127.018.255.034.5A11.708,11.708,0,0,0,3486.558-901.912Zm-15.109-5.94a16.281,16.281,0,0,1-4.1-2.474,3.308,3.308,0,0,1-1.336-2.691,4.363,4.363,0,0,1,1.21-2.456c.05-.062.262-.06.355-.009,1.509.823,3,1.679,4.519,2.482.735.389,1.518.689,2.285,1.015.225.095.327.208.284.468a10.9,10.9,0,0,0-.144,1.281.9.9,0,0,1-.465.751c-.717.5-1.408,1.032-2.125,1.532a.718.718,0,0,1-.371.122A.261.261,0,0,1,3471.448-907.852Zm3.5-3.245c.125-.929.256-1.857.384-2.784a.575.575,0,0,1,.751-.566c.457.061.627.286.565.751-.1.761-.187,1.526-.316,2.281a.969.969,0,0,1-.329.53c-.336.275-.712.5-1.166.812C3474.888-910.49,3474.913-910.794,3474.953-911.1Zm-9.522-4.7c-.119-.891-.227-1.784-.354-2.673a3.629,3.629,0,0,1,.682-2.546,13.557,13.557,0,0,1,3.253-3.407c2.677-2.031,5.405-4,8.125-5.969a60.417,60.417,0,0,0,6.6-5.19A9.033,9.033,0,0,0,3486.21-939l.108,0c.069.484.142.968.205,1.453.152,1.162.312,2.324.445,3.488a3.689,3.689,0,0,1-.831,2.542,16.069,16.069,0,0,1-3.577,3.585c-2.1,1.6-4.27,3.121-6.392,4.7-2.331,1.732-4.671,3.455-6.951,5.253a11.368,11.368,0,0,0-3.038,3.433c-.153.281-.271.58-.452.97C3465.62-914.383,3465.525-915.088,3465.431-915.792Zm11.634,1.833a.935.935,0,0,0-.962-.844.944.944,0,0,0-1.093.6,1.653,1.653,0,0,1-.085.151,3.736,3.736,0,0,1-1.564-1.009,4.63,4.63,0,0,1-1.287-4.451.974.974,0,0,1,.34-.532c1.26-.927,2.559-1.8,3.8-2.759a1.7,1.7,0,0,1,1.6-.287,4.753,4.753,0,0,1,2.929,2.1c-.615.427-.746.737-.571,1.264a1.089,1.089,0,0,0,1.251.845,4.091,4.091,0,0,1-.377,2.421,4.667,4.667,0,0,1-3.551,2.71,1.258,1.258,0,0,1-.214.034C3477.173-913.711,3477.09-913.76,3477.065-913.959Zm9.083-5.094c-.637-.371-1.262-.764-1.973-1.2l3.513-1.6a6.63,6.63,0,0,1-.081.676,5.135,5.135,0,0,1-1.142,2.061.346.346,0,0,1-.234.084A.17.17,0,0,1,3486.148-919.053Zm-5.577-.607c-.216-.47-.142-.712.3-.912q4.091-1.864,8.183-3.724c.082-.038.169-.065.293-.112.153.351.291.671.432.991.113.256-.111.285-.248.348q-1.559.725-3.126,1.435-2.491,1.133-4.985,2.257a1,1,0,0,1-.4.109C3480.823-919.267,3480.694-919.392,3480.571-919.66Zm13.769-1.434a4.777,4.777,0,0,1-4.766-4.864,4.756,4.756,0,0,1,4.907-4.671,4.757,4.757,0,0,1,4.63,4.871,4.79,4.79,0,0,1-4.688,4.665Zm-12.909-.389a5.1,5.1,0,0,1-1.588-.959,4.56,4.56,0,0,0-2.208-1.02c-.085-.018-.17-.039-.313-.072.11-.1.176-.172.253-.228,1.36-.986,2.718-1.975,4.086-2.948a.592.592,0,0,1,.477-.105,17.178,17.178,0,0,1,4.1,2.468c.221.192.416.413.671.67-.431.2-.791.373-1.155.538-1.209.55-2.421,1.091-3.625,1.65a.808.808,0,0,1-.348.084A.94.94,0,0,1,3481.431-921.482Zm-13.392-2.879q-1.17-.971-2.318-1.97c-.258-.223-.247-.5.009-.817.272-.334.563-.414.831-.19.878.731,1.746,1.475,2.671,2.259-.313.274-.577.523-.865.739a.236.236,0,0,1-.134.032A.33.33,0,0,1,3468.039-924.361Zm-8.53-1.965a4.8,4.8,0,0,1-.387-6.576,4.751,4.751,0,0,1,6.484-.743,4.672,4.672,0,0,1,1.32,6.045c-.646-.38-1.044-.334-1.467.153-.458.526-.453.878.022,1.471a4.119,4.119,0,0,1-2.7.923A4.825,4.825,0,0,1,3459.509-926.326Zm10.641.381c-.97-.371-1.931-.767-2.938-1.174a5.367,5.367,0,0,0-.113-5.54l8.109,3.2c-.422.3-.8.571-1.174.842-1.169.85-2.334,1.7-3.507,2.548a.671.671,0,0,1-.325.136A.146.146,0,0,1,3470.15-925.945Z" transform="translate(-3454.555 940.653)" fill="#77b800" stroke="rgba(0,0,0,0)" stroke-width="1"/>
</svg>
