<svg width="34" height="34" viewBox="0 0 34 34" fill="none" xmlns="http://www.w3.org/2000/svg">
<path d="M1 17C1 8.16344 8.16344 1 17 1V1C25.8366 1 33 8.16344 33 17V17C33 25.8366 25.8366 33 17 33V33C8.16344 33 1 25.8366 1 17V17Z" stroke="#E0E0E0" stroke-linejoin="bevel"/>
<path fill-rule="evenodd" clip-rule="evenodd" d="M12.9665 12.1503C12.9665 14.7698 15.0758 16.9008 17.6685 16.9008C20.2613 16.9008 22.3705 14.7698 22.3705 12.1503C22.3705 9.53087 20.2613 7.3999 17.6685 7.3999C15.0758 7.3999 12.9665 9.53087 12.9665 12.1503ZM17.6685 8.58751C19.6132 8.58751 21.195 10.186 21.195 12.1503C21.195 14.1146 19.6132 15.7132 17.6685 15.7132C15.7242 15.7132 14.142 14.1146 14.142 12.1503C14.142 10.186 15.7242 8.58751 17.6685 8.58751ZM24.6966 10.9446H23.0204C23.1058 11.3333 23.1544 11.7359 23.1544 12.1508C23.1544 15.2116 20.6984 17.6929 17.6687 17.6929C14.639 17.6929 12.183 15.2116 12.183 12.1508C12.183 11.7359 12.2316 11.3333 12.317 10.9446H10.522V9.18532C10.5224 8.9478 10.3825 8.73285 10.1662 8.63902L7.41986 7.44865C7.12128 7.31959 6.77568 7.45934 6.64755 7.76059C6.51981 8.06224 6.65813 8.4118 6.95671 8.54085L9.3469 9.57842V20.1549C9.3469 21.4648 9.94876 22.1283 10.4542 22.4545C10.7669 22.6548 11.1203 22.7822 11.4879 22.8278C11.0604 23.5657 11.0588 24.4785 11.4828 25.218C12.134 26.3534 13.5725 26.7401 14.6958 26.0826C15.8192 25.4247 16.2021 23.9714 15.5512 22.8365H20.3818C20.1749 23.1971 20.0659 23.606 20.0659 24.0229C20.0671 25.3209 21.0992 26.3779 22.384 26.3961C23.6822 26.4143 24.7495 25.3661 24.7676 24.0542C24.786 22.7427 23.748 21.6643 22.4499 21.6461H22.4162H11.627C11.4217 21.6204 11.225 21.5463 11.053 21.4296C10.6717 21.1235 10.4711 20.6422 10.5204 20.1529V19.1549C10.7806 19.3148 11.0682 19.4253 11.368 19.4799C11.3993 19.485 11.4307 19.4878 11.4624 19.4878H23.0607C23.8103 19.4724 24.4929 19.048 24.8451 18.3794C25.0344 18.0682 25.177 17.7306 25.2683 17.377C25.2793 17.3319 25.2844 17.2856 25.2844 17.2389V11.5384C25.2844 11.2106 25.0211 10.9446 24.6966 10.9446ZM17.4342 13.2627C17.3359 13.1689 17.2791 13.0367 17.2791 12.8997V10.2735C17.2791 9.99878 17.5001 9.77512 17.7724 9.77512V9.97305H17.7728V9.77512C18.0447 9.77512 18.2661 9.99878 18.2661 10.2735V12.6852L19.1512 13.5264C19.2496 13.6202 19.3064 13.7524 19.3064 13.889C19.3068 14.0216 19.2555 14.1471 19.1626 14.2413C19.069 14.3355 18.9451 14.3878 18.8135 14.3878C18.6873 14.3878 18.567 14.3399 18.4753 14.2524L17.4342 13.2627Z" fill="#1269A2"/>
</svg>
