<svg width="33" height="32" viewBox="0 0 33 32" fill="none" xmlns="http://www.w3.org/2000/svg">
<g id="Section container">
<path d="M0.683472 16C0.683472 7.16344 7.84692 0 16.6835 0C25.52 0 32.6835 7.16344 32.6835 16C32.6835 24.8366 25.52 32 16.6835 32C7.84692 32 0.683472 24.8366 0.683472 16Z" fill="#D81E05"/>
<path id="icons" d="M10.5804 25C10.4383 25 10.3022 24.9437 10.2018 24.8432C10.1013 24.7427 10.0445 24.6062 10.0445 24.4641C10.0445 24.3221 10.1013 24.186 10.2018 24.0855C10.3022 23.9851 10.4383 23.9283 10.5804 23.9283H23.1324V10.1319C23.1324 9.98983 23.1888 9.85378 23.2892 9.75331C23.3897 9.65284 23.5262 9.59652 23.6683 9.59652C23.8104 9.59652 23.9464 9.65284 24.0469 9.75331C24.1474 9.85378 24.2037 9.98983 24.2037 10.1319V24.4641C24.2039 24.5345 24.1904 24.6038 24.1636 24.6689C24.1368 24.7339 24.0975 24.7934 24.0478 24.8432C23.9981 24.893 23.939 24.9325 23.874 24.9594C23.809 24.9863 23.7391 25.0001 23.6687 25H10.5804ZM9.53632 22.9921C9.3947 22.9924 9.25871 22.9365 9.15817 22.8367C9.05764 22.737 9.00087 22.6016 9 22.46V8.53494C9.00025 8.39287 9.05666 8.25666 9.15725 8.15633C9.25784 8.05601 9.39425 7.99987 9.53632 8H21.6747C21.8168 7.99987 21.9532 8.05601 22.0538 8.15633C22.1544 8.25666 22.2108 8.39287 22.2111 8.53494V22.46C22.2104 22.6017 22.1535 22.7374 22.0529 22.8372C21.9523 22.937 21.8164 22.9926 21.6747 22.9921H9.53632ZM11.76 19.6294C11.7599 19.6999 11.7736 19.7695 11.8006 19.8346C11.8275 19.8997 11.867 19.9591 11.9168 20.0089C11.9666 20.0588 12.026 20.0982 12.0911 20.1251C12.1562 20.1521 12.2258 20.1658 12.2963 20.1657H18.9152C19.0573 20.1657 19.1933 20.1094 19.2938 20.0089C19.3943 19.9085 19.4506 19.7719 19.4506 19.6299C19.4506 19.4878 19.3943 19.3517 19.2938 19.2512C19.1933 19.1508 19.0573 19.0945 18.9152 19.0945H12.2963C12.2259 19.0942 12.1562 19.1078 12.0911 19.1346C12.026 19.1614 11.9671 19.2006 11.9172 19.2503C11.8674 19.3 11.8275 19.3591 11.8006 19.4242C11.7736 19.4892 11.7599 19.559 11.76 19.6294ZM11.76 17.4869C11.7599 17.5573 11.7736 17.627 11.8006 17.6921C11.8275 17.7572 11.867 17.8166 11.9168 17.8664C11.9666 17.9162 12.026 17.9557 12.0911 17.9826C12.1562 18.0095 12.2258 18.0233 12.2963 18.0232H18.9152C19.0547 18.0191 19.1869 17.961 19.2841 17.8609C19.3813 17.7608 19.4354 17.6269 19.4354 17.4873C19.4354 17.3478 19.3813 17.2134 19.2841 17.1133C19.1869 17.0132 19.0547 16.9551 18.9152 16.951H12.2963C12.1541 16.951 12.0178 17.0073 11.9172 17.1078C11.8167 17.2083 11.7601 17.3447 11.76 17.4869ZM17.0729 12.0319C17.096 12.0431 17.1177 12.0567 17.1379 12.0725C17.1662 12.0975 17.1891 12.1281 17.2048 12.1624C17.2205 12.1967 17.2288 12.2339 17.2292 12.2717V12.2749C17.2288 12.2973 17.2264 12.3199 17.2219 12.3418L16.6865 14.7836H18.2295L18.7575 12.4354C18.7921 12.288 18.8095 12.1371 18.8101 11.9858C18.8132 11.8298 18.7867 11.6748 18.7321 11.5288C18.6757 11.3898 18.5887 11.2656 18.4776 11.1649C18.3448 11.0542 18.1902 10.9728 18.0238 10.926C17.9766 10.9119 17.9245 10.8986 17.8712 10.8873C17.6991 10.8521 17.5234 10.8359 17.3478 10.8398H17.3173C17.0562 10.8446 16.7983 10.8951 16.5546 10.9887C16.3103 11.0766 16.0796 11.1982 15.8693 11.3503H15.8633C15.6317 11.0932 15.3197 10.9227 14.9784 10.8661C14.9002 10.8531 14.8214 10.8441 14.7423 10.8398C14.6733 10.8341 14.6049 10.8343 14.5444 10.8343C14.2607 10.8285 13.978 10.8731 13.7097 10.9657C13.4971 11.0426 13.3029 11.1632 13.1398 11.3199C12.9889 11.467 12.8659 11.6399 12.7759 11.8303C12.6847 12.0243 12.6152 12.2274 12.5693 12.4368L12.0353 14.7822H13.5608L14.1474 12.3266C14.1783 12.2255 14.2408 12.1371 14.3258 12.0743C14.4109 12.0115 14.5139 11.9777 14.6196 11.9779C14.6717 11.9773 14.7234 11.9878 14.7713 12.0084C14.8001 12.0212 14.8268 12.038 14.8506 12.0586C14.8791 12.0833 14.9018 12.1139 14.9175 12.1481C14.9332 12.1823 14.9418 12.2193 14.9419 12.2569V12.2597C14.9405 12.2828 14.9373 12.3061 14.9327 12.3289L14.3572 14.7845H15.9205L16.4356 12.3445C16.4669 12.2439 16.5296 12.1557 16.6145 12.0932C16.6995 12.0308 16.8024 11.9972 16.9078 11.9973H16.917C16.971 11.9963 17.0244 12.0083 17.0729 12.0319Z" fill="white"/>
</g>
</svg>
