<svg id="icon-magazines-and-books" xmlns="http://www.w3.org/2000/svg" width="48" height="48" viewBox="0 0 48 48">
  <rect id="bg" width="48" height="48" fill="none"/>
  <path id="icon" d="M3019-767a1,1,0,0,1-1-1v-34a1,1,0,0,1,.837-.986l24-4a1.175,1.175,0,0,1,.169-.014,1,1,0,0,1,.994,1v34a1,1,0,0,1-.837.986l-24,4A.88.88,0,0,1,3019-767Zm17.841-11.98-12,2a1,1,0,0,0-.838.986,1,1,0,0,0,1,1,1.106,1.106,0,0,0,.165-.013l12-2h0a1,1,0,0,0,.822-1.15,1,1,0,0,0-.985-.836A1,1,0,0,0,3036.839-778.98Zm0-4-12,2a1,1,0,0,0-.831.977,1,1,0,0,0,.992,1.01.912.912,0,0,0,.165-.014l12-2h0a1,1,0,0,0,.822-1.15,1,1,0,0,0-.985-.835A1,1,0,0,0,3036.839-782.978Zm0-4-12,2a1,1,0,0,0-.838.986,1,1,0,0,0,1,1,1.106,1.106,0,0,0,.165-.013l12-2h0a1,1,0,0,0,.822-1.15,1,1,0,0,0-.985-.836A1,1,0,0,0,3036.839-786.977Zm0-12-12,2a1,1,0,0,0-.838.986,1,1,0,0,0,1,1,1.106,1.106,0,0,0,.165-.013l12-2h0a1,1,0,0,0,.822-1.15,1,1,0,0,0-.986-.835A1,1,0,0,0,3036.839-798.978Zm-5.593,31.967,12.246-2.036a2.994,2.994,0,0,0,2.5-2.955v-29H3049v-.012h0a1,1,0,0,1,1,1v32a1,1,0,0,1-1,1Z" transform="translate(-3010 811.001)" fill="#77b800" stroke="rgba(0,0,0,0)" stroke-width="1"/>
</svg>
