<svg xmlns="http://www.w3.org/2000/svg" width="24" height="24" viewBox="0 0 24 24">
  <rect width="24" height="24" fill="none"/>
  <path d="M-4306.274,14181.4l-6.008-4.67H-4326.5a1.5,1.5,0,0,1-1.5-1.5V14160.5a1.5,1.5,0,0,1,1.5-1.5h21a1.5,1.5,0,0,1,1.5,1.5v19.625a1.478,1.478,0,0,1-.762,1.3,1.5,1.5,0,0,1-.735.193A1.5,1.5,0,0,1-4306.274,14181.4Zm-20.227-6.168h14.653l6.346,4.887V14160.5h-21Zm9.606-3.036a.751.751,0,0,1,.751-.751.751.751,0,0,1,.751.751.75.75,0,0,1-.751.747A.75.75,0,0,1-4316.894,14172.2Zm0-2.231v-.413a2.533,2.533,0,0,1,1.434-2.274,1.611,1.611,0,0,0,.772-2.143,1.607,1.607,0,0,0-2.139-.772,1.606,1.606,0,0,0-.925,1.456.749.749,0,0,1-.751.751.748.748,0,0,1-.748-.751,3.108,3.108,0,0,1,3.107-3.107,3.109,3.109,0,0,1,3.11,3.107,3.107,3.107,0,0,1-1.783,2.812,1.02,1.02,0,0,0-.576.922v.413a.754.754,0,0,1-.751.751A.754.754,0,0,1-4316.894,14169.965Z" transform="translate(4327.999 -14158)" fill="#fff"/>
</svg>
