<svg width="33" height="32" viewBox="0 0 33 32" fill="none" xmlns="http://www.w3.org/2000/svg">
<g id="Section container">
<path d="M0.683472 16C0.683472 7.16344 7.84692 0 16.6835 0C25.52 0 32.6835 7.16344 32.6835 16C32.6835 24.8366 25.52 32 16.6835 32C7.84692 32 0.683472 24.8366 0.683472 16Z" fill="#F18E00"/>
<path id="icon" fill-rule="evenodd" clip-rule="evenodd" d="M13.2225 24.4675V15.7729C11.96 15.5155 11.0398 14.4236 11 13.1353V8.53291C11.0166 8.23948 11.2656 8.0137 11.5586 8.0274C11.8313 8.04234 12.0492 8.25982 12.0637 8.53291V11.9242H12.495V8.53291C12.495 8.23948 12.7324 8 13.0258 8C13.3192 8 13.5583 8.23948 13.5583 8.53291V11.9242H13.9903V8.53291C13.9903 8.23948 14.2269 8 14.5207 8C14.8142 8 15.0516 8.23948 15.0516 8.53291V11.9242H15.4849V8.53291C15.4849 8.23948 15.7227 8 16.0157 8C16.3096 8 16.5461 8.23948 16.5461 8.53291V12.4471V12.4575V12.4666V12.9942C16.5743 14.3518 15.6164 15.5276 14.2838 15.7729V24.4675C14.2838 24.7609 14.0468 25 13.7533 25C13.4603 25 13.2225 24.7609 13.2225 24.4675ZM12.0658 13.4129C12.1984 13.2382 12.3446 13.0922 12.4908 12.9879H12.0658V13.4129ZM15.8708 13.4129V12.9879H15.4458C15.5724 13.0611 15.7216 13.2225 15.8708 13.4129ZM19.4593 23.4163L19.4634 23.4179V14.1729C19.4634 13.2063 19.6141 12.2463 19.91 11.3258L20.7056 8.83553C20.8343 8.4317 21.2099 8.15777 21.6353 8.15777C21.8951 8.15487 22.1421 8.25821 22.3276 8.44166C22.5102 8.62428 22.614 8.8733 22.6181 9.13063V23.4163C22.6181 24.2887 21.9096 24.9951 21.0393 24.9951C20.1681 24.9951 19.4593 24.2887 19.4593 23.4163H19.4593ZM20.9194 11.6504C20.6559 12.4638 20.5247 13.3159 20.5247 14.173V17.8178H21.5552V9.6619L20.9194 11.6504Z" fill="white"/>
</g>
</svg>
