<svg xmlns="http://www.w3.org/2000/svg" width="40.714" height="39.998" viewBox="0 0 40.714 39.998">
  <g id="icon-cart-warning" transform="translate(4)">
    <rect id="bg" width="39.998" height="39.998" transform="translate(-3.998)" fill="none"/>
    <g id="icon" transform="translate(-4 2.853)">
      <path id="icon-cart" d="M24.548,30a4.267,4.267,0,0,1,.571-2.143h-8.8a4.285,4.285,0,1,1-7.407-.014,4.491,4.491,0,0,1-1.887-.673A4.582,4.582,0,0,1,5,23.008V3.929L.644,2.056A1.08,1.08,0,0,1,.085.649,1.08,1.08,0,0,1,1.5.085l5,2.143a1.074,1.074,0,0,1,.647.994v3.17H32.989a1.073,1.073,0,0,1,1.07,1.073V17.749a1.026,1.026,0,0,1-.036.256,6.634,6.634,0,0,1-.77,1.807,3.771,3.771,0,0,1-3.255,2H8.866a1.529,1.529,0,0,1-.176-.014,4.571,4.571,0,0,1-1.548-.586v1.8a2.614,2.614,0,0,0,.971,2.3,2.524,2.524,0,0,0,1.054.4h19.66A4.285,4.285,0,1,1,24.542,30Zm2.143,0a2.135,2.135,0,1,0,.625-1.517A2.143,2.143,0,0,0,26.691,30ZM10.462,30A2.143,2.143,0,1,0,12.6,27.855,2.143,2.143,0,0,0,10.462,30ZM7.142,17.3a2.217,2.217,0,0,0,.884,1.924,2.905,2.905,0,0,0,.947.446H30c1.213,0,1.78-1.63,1.911-2.063V8.538H7.142Z" transform="translate(0 0.001)" fill="#fff"/>
      <g id="resize" transform="translate(24.714)">
        <circle id="BG-2" data-name="BG" cx="8" cy="8" r="8" fill="#d81e05"/>
        <path id="_" data-name="!" d="M-1.389-10.611H-.294a.25.25,0,0,0,.27-.229L.9-16.571C.929-16.733.858-16.8.715-16.8H-.764c-.156,0-.228.067-.256.229l-.568,5.731C-1.617-10.692-1.546-10.611-1.389-10.611ZM-1.276-7.4A1.418,1.418,0,0,0,.147-8.567a1.083,1.083,0,0,0-.3-.829,1.083,1.083,0,0,0-.82-.328A1.448,1.448,0,0,0-2.385-8.567a1.026,1.026,0,0,0,.27.855,1.026,1.026,0,0,0,.839.316Z" transform="translate(8.561 19.715)" fill="#fff"/>
      </g>
    </g>
  </g>
</svg>
