<svg id="icon-vegan-and-vegetarian-food" xmlns="http://www.w3.org/2000/svg" width="48" height="48" viewBox="0 0 48 48">
  <rect id="bg" width="48" height="48" fill="none"/>
  <path id="icon" d="M3052.066,417.866l-13.126,0c-3.971,0-5.744-1.9-6.578-4.053-7.056-.862-8-5-8.361-7.637h43.373c-.34,2.493-2.07,6.322-8.234,7.456a7.171,7.171,0,0,1-6.547,4.25C3052.417,417.885,3052.241,417.878,3052.066,417.866Zm10.209-13.938v-1.109a4.051,4.051,0,0,1,4.052-4.052h1.115v1.109a4.051,4.051,0,0,1-4.052,4.052Zm-2.831,0a4.051,4.051,0,0,1-4.053-4.052v-1.109h1.115a4.052,4.052,0,0,1,4.053,4.052v1.109Zm-17.815-.008V386.763a3.419,3.419,0,0,0-.5-1.763h17.658a1.765,1.765,0,0,1,1.762,1.763v11.951a5.726,5.726,0,0,0-4.052-1.668h-1.969a.863.863,0,0,0-.861.86v1.96a5.721,5.721,0,0,0,1.668,4.052Zm-13.773,0V386.763A1.766,1.766,0,0,1,3029.62,385h8.515a1.765,1.765,0,0,1,1.763,1.763l0,17.156Z" transform="translate(-3022 -377)" fill="#77b800" stroke="rgba(0,0,0,0)" stroke-width="1"/>
</svg>
