<svg id="icon-lottery-tickets" xmlns="http://www.w3.org/2000/svg" width="48" height="48" viewBox="0 0 48 48">
  <rect id="bg" width="48" height="48" fill="none"/>
  <path id="icon" d="M39.939,30.484,35.153,3.335A4.026,4.026,0,0,0,30.484.062L3.335,4.848A4.031,4.031,0,0,0,.062,9.517l4.787,27.15A4.023,4.023,0,0,0,8.816,40a4.088,4.088,0,0,0,.7-.062l27.15-4.787a4.033,4.033,0,0,0,3.273-4.668M10.126,17.213A4.081,4.081,0,0,1,5.4,13.905a4.135,4.135,0,0,1-.062-.706,4.08,4.08,0,1,1,4.792,4.013m10.5,7.36a4.082,4.082,0,1,1-.706-8.1h0a4.081,4.081,0,0,1,.7,8.1m10.505,7.355a4.082,4.082,0,1,1,3.3-4.734,4.079,4.079,0,0,1-3.3,4.734" transform="translate(4 3.999)" fill="#1269a2"/>
</svg>
