<?xml version="1.0" encoding="UTF-8" standalone="no"?>
<!DOCTYPE svg PUBLIC "-//W3C//DTD SVG 1.1//EN" "http://www.w3.org/Graphics/SVG/1.1/DTD/svg11.dtd">
<svg width="100%" height="100%" viewBox="0 0 48 27" version="1.1" xmlns="http://www.w3.org/2000/svg" xmlns:xlink="http://www.w3.org/1999/xlink" xml:space="preserve" xmlns:serif="http://www.serif.com/" style="fill-rule:evenodd;clip-rule:evenodd;stroke-linejoin:round;stroke-miterlimit:2;">
    <g transform="matrix(1,0,0,1,-0.0271983,-11)">
        <g transform="matrix(1,0,0,1,0,11)">
            <g transform="matrix(1,0,0,1,-0.107,0)">
                <path d="M48.029,14.564C48.037,14.496 48.026,14.427 47.998,14.364L44.886,7.871C44.352,6.787 43.913,6.86 42.873,6.833L38.543,6.833L39.214,3.033C39.518,1.261 37.859,0 36.182,0L13.942,0C12.267,0 11.26,0.912 10.91,3.032L7.876,20.219C7.593,22.133 8.617,23.247 10.91,23.251L13.366,23.251C14.148,25.024 15.911,26.174 17.85,26.174C19.788,26.174 21.551,25.024 22.333,23.251L33.151,23.251C33.72,23.263 34.28,23.105 34.758,22.795C35.411,24.802 37.294,26.17 39.405,26.17C41.34,26.17 43.101,25.02 43.879,23.247L45.642,23.247C46.323,23.247 46.742,22.803 46.875,22.014L48.108,15.027L48.108,14.838C48.093,14.744 48.067,14.652 48.029,14.565M38.282,8.315L43.061,8.315C43.191,8.315 43.348,8.315 43.456,8.328L43.556,8.514L46.085,13.794L37.325,13.794L37.98,10.032L38.282,8.315ZM17.85,24.691C16.159,24.597 14.819,23.179 14.819,21.486C14.819,19.725 16.268,18.276 18.029,18.276C19.79,18.276 21.239,19.725 21.239,21.486C21.239,21.486 21.239,21.486 21.239,21.486C21.188,23.294 19.658,24.741 17.85,24.691M33.15,21.762L22.684,21.762C22.691,21.668 22.716,21.581 22.718,21.486C22.613,18.89 20.448,16.811 17.85,16.811C15.252,16.811 13.087,18.89 12.982,21.486C12.982,21.581 13.009,21.668 13.016,21.762L10.916,21.762C10.405,21.82 9.889,21.687 9.47,21.388C9.313,21.1 9.269,20.764 9.344,20.445L12.371,3.284L12.371,3.269C12.417,2.724 12.623,2.205 12.963,1.776C13.233,1.544 13.588,1.435 13.942,1.476L36.182,1.476C36.701,1.469 37.199,1.68 37.555,2.058C37.731,2.252 37.806,2.518 37.755,2.775L34.719,19.953L34.719,19.969C34.667,20.5 34.458,21.004 34.119,21.417C33.86,21.666 33.506,21.792 33.148,21.762M39.395,24.691C39.363,24.692 39.331,24.692 39.299,24.692C37.524,24.692 36.05,23.26 36,21.486C36.008,21.282 36.034,21.078 36.079,20.879L36.092,20.808C36.346,19.176 37.766,17.961 39.417,17.961C41.263,17.961 42.782,19.48 42.782,21.326C42.782,23.172 41.263,24.691 39.417,24.691C39.409,24.691 39.4,24.691 39.392,24.691M45.415,21.752L45.415,21.763L44.227,21.763C44.234,21.669 44.259,21.581 44.261,21.486C44.141,18.88 41.964,16.801 39.355,16.801C38.398,16.801 37.461,17.081 36.661,17.606L37.07,15.284L46.56,15.284L45.415,21.752Z" style="fill:rgb(51,51,51);fill-rule:nonzero;"/>
            </g>
        </g>
        <g transform="matrix(1,0,0,1,0,11)">
            <g transform="matrix(1,0,0,1,-0.041,-0.131)">
                <path d="M6.7,9.535L3.74,9.535C3.731,9.535 3.722,9.535 3.713,9.535C3.307,9.535 2.973,9.869 2.973,10.275C2.973,10.68 3.307,11.015 3.713,11.015C3.722,11.015 3.731,11.014 3.74,11.014L6.7,11.014C6.709,11.014 6.718,11.015 6.727,11.015C7.133,11.015 7.467,10.68 7.467,10.275C7.467,9.869 7.133,9.535 6.727,9.535C6.718,9.535 6.709,9.535 6.7,9.535" style="fill:rgb(51,51,51);fill-rule:nonzero;"/>
            </g>
        </g>
        <g transform="matrix(1,0,0,1,0,11)">
            <g transform="matrix(1,0,0,1,0,-0.179)">
                <path d="M6.657,13.035L0.74,13.035C0.345,13.05 0.027,13.379 0.027,13.775C0.027,14.17 0.345,14.499 0.74,14.514L6.657,14.514C7.052,14.499 7.37,14.17 7.37,13.775C7.37,13.379 7.052,13.05 6.657,13.035" style="fill:rgb(51,51,51);fill-rule:nonzero;"/>
            </g>
        </g>
        <g transform="matrix(1,0,0,1,0,11)">
            <g transform="matrix(1,0,0,1,-0.24,-0.079)">
                <path d="M29.791,6.512C29.546,6.274 29.251,6.094 28.927,5.984C28.827,5.951 28.735,5.926 28.627,5.899C28.299,5.825 27.963,5.791 27.627,5.799L27.571,5.799C27.067,5.814 26.571,5.927 26.111,6.133C25.638,6.332 25.198,6.6 24.804,6.928L24.8,6.928C24.383,6.376 23.778,5.995 23.1,5.859C22.952,5.83 22.802,5.811 22.651,5.8C22.519,5.79 22.392,5.79 22.273,5.79C21.729,5.777 21.187,5.876 20.682,6.079C20.267,6.256 19.896,6.523 19.597,6.861C19.305,7.194 19.072,7.575 18.907,7.986C18.731,8.417 18.599,8.865 18.512,9.323L17.5,14.488L20.41,14.488L21.53,9.074C21.621,8.645 21.992,8.328 22.43,8.306C22.53,8.304 22.629,8.327 22.718,8.373L22.873,8.485C22.985,8.602 23.047,8.757 23.045,8.919L23.045,8.926L23.027,9.08L21.927,14.488L24.909,14.488L25.9,9.1C25.992,8.672 26.363,8.356 26.8,8.335C26.91,8.333 27.017,8.362 27.112,8.417L27.237,8.508C27.349,8.628 27.41,8.785 27.409,8.949L27.409,8.955L27.396,9.106L26.375,14.487L29.315,14.487L30.324,9.307C30.39,8.982 30.423,8.652 30.424,8.321C30.43,7.98 30.379,7.64 30.274,7.315C30.172,7.016 30.006,6.743 29.788,6.515" style="fill:rgb(51,51,51);fill-rule:nonzero;"/>
            </g>
        </g>
    </g>
</svg>
