<svg id="icon-organic-groceries" xmlns="http://www.w3.org/2000/svg" width="48" height="48" viewBox="0 0 48 48">
  <rect id="bg" width="48" height="48" fill="none"/>
  <path id="icon" d="M3044.7,322.36l-9.013-17.529a.646.646,0,0,0-.86-.284.627.627,0,0,0-.289.846l8.625,16.755a22.983,22.983,0,0,1-15.838-10.494v.013A21.908,21.908,0,0,1,3025.965,291a23.086,23.086,0,0,1,18.126,10.73,21.933,21.933,0,0,1,1.4,20.631l-.382.034C3044.972,322.384,3044.836,322.373,3044.7,322.36Zm3.319-5.506a.627.627,0,0,0,.255-.391,25.079,25.079,0,0,1,5.013-11.048,17.759,17.759,0,0,1,3.562-3.448l.006,0a.617.617,0,0,0,.171-.866.652.652,0,0,0-.409-.266.666.666,0,0,0-.485.093,18.5,18.5,0,0,0-3.821,3.665,25.567,25.567,0,0,0-4.082,7.241,23.162,23.162,0,0,0-2.915-9.8.636.636,0,0,0,.367-.276v0A23.069,23.069,0,0,1,3063.823,291a21.905,21.905,0,0,1-.8,19.719,22.969,22.969,0,0,1-16.485,11.465A23.391,23.391,0,0,0,3048.016,316.853Z" transform="translate(-3021 -282.697)" fill="#77b800" stroke="rgba(0,0,0,0)" stroke-width="1"/>
</svg>
