<svg xmlns="http://www.w3.org/2000/svg" width="24" height="24" viewBox="0 0 24 24" fill="none">
    <path fill-rule="evenodd" clip-rule="evenodd" d="M17.1839 20.9982C17.1839 20.4529 17.3315 19.9409 17.5845 19.4992H11.426C11.6809 19.9409 11.8266 20.4529 11.8266 20.9982C11.8266 22.6535 10.481 24 8.82687 24C7.17271 24 5.82715 22.6535 5.82715 20.9982C5.82715 20.447 5.97666 19.9301 6.23734 19.4865C5.99966 19.4601 5.46105 19.3624 4.9167 19.0165C4.27459 18.6031 3.50405 17.7657 3.50405 16.1104V2.74963L0.452578 1.43925C0.0749776 1.27803 -0.103282 0.836345 0.0615576 0.455255C0.222568 0.073185 0.665338 -0.100755 1.04486 0.059505L4.55061 1.56335C4.82662 1.68256 5.00488 1.95423 5.00488 2.25324V12.1109C5.00488 12.7079 5.20614 13.1496 5.62016 13.4574C5.89234 13.6557 6.17602 13.7427 6.28144 13.7701H21.0059C21.8512 13.7701 22.2557 12.6297 22.3477 12.3268V5.22772C22.3477 4.81437 22.6774 4.47824 23.0952 4.47824C23.5092 4.47824 23.8447 4.81437 23.8447 5.22772V12.4275C23.8447 12.488 23.8351 12.5476 23.8217 12.6024C23.8082 12.6717 23.6606 13.26 23.285 13.8717C22.7138 14.7863 21.9298 15.269 21.0059 15.269H6.20477C6.16644 15.269 6.12618 15.269 6.08593 15.2602C5.785 15.2104 5.39206 15.0814 5.00488 14.8498V16.1104C5.00488 16.8696 5.22914 17.412 5.68533 17.7246C6.00734 17.9455 6.34661 17.9865 6.41561 17.9953H8.82689H20.1837C21.8378 17.9953 23.1834 19.3428 23.1834 20.9981C23.1834 22.6534 21.8378 24 20.1837 24C18.5295 24 17.1839 22.6534 17.1839 20.9981L17.1839 20.9982ZM18.6867 20.9982C18.6867 21.8258 19.3556 22.4971 20.1836 22.4971C21.0098 22.4971 21.6806 21.8258 21.6806 20.9982C21.6806 20.192 21.0443 19.5305 20.2488 19.4963C20.2258 19.4982 20.2047 19.4992 20.1836 19.4992H20.0725C19.2962 19.5568 18.6867 20.2086 18.6867 20.9982ZM7.32414 20.9982C7.32414 21.8258 8.00076 22.4971 8.82688 22.4971C9.65492 22.4971 10.3239 21.8258 10.3239 20.9982C10.3239 20.2086 9.71242 19.5568 8.93805 19.4992H8.71571C7.93942 19.5568 7.32415 20.2086 7.32415 20.9982H7.32414ZM12.9977 8.99761V6.24396H10.2472C9.83318 6.24396 9.49775 5.90782 9.49775 5.49448C9.49775 5.08016 9.83318 4.745 10.2472 4.745H12.9977V1.99526C12.9977 1.57703 13.3332 1.24187 13.7472 1.24187C14.1612 1.24187 14.4947 1.57704 14.4947 1.99526V4.745H17.2491C17.6612 4.745 17.9966 5.08017 17.9966 5.49448C17.9966 5.90782 17.6612 6.24396 17.2491 6.24396H14.4947V8.99761C14.4947 9.41193 14.1612 9.74709 13.7472 9.74709C13.3332 9.74709 12.9977 9.41191 12.9977 8.99761Z" fill="#fff"/>
</svg>