<svg xmlns="http://www.w3.org/2000/svg" xmlns:xlink="http://www.w3.org/1999/xlink" width="183" height="184" viewBox="0 0 183 184">
  <defs>
    <clipPath id="clip-icone-61020-premiere-moisson">
      <rect width="183" height="184"/>
    </clipPath>
  </defs>
  <g id="icone-61020-premiere-moisson" clip-path="url(#clip-icone-61020-premiere-moisson)">
    <path id="pmoisson" d="M1.673,53.914a5.052,5.052,0,0,0,4.078,2.412,2.817,2.817,0,0,0,2.062-.658,1.895,1.895,0,0,0,.086-2.24c-1.226-1.008-2.584.395-3.947-.091-1.535-.395-1.8-2.148-2.1-3.506a9.216,9.216,0,0,1,.7-3.947c3.992-5.441,12.59-7.59,20.181-8.248V86.549c0,18.955-2.194,24.219-18.119,24.568v2.016h56.67v-2.016c-11.227-.264-15.7-3.07-17.368-11.187A32.25,32.25,0,0,0,59.186,92.3a1.755,1.755,0,0,0,.3-.176c8.861-4.914,14.126-10.265,25.485-6.582a2.414,2.414,0,0,0,0,2.285,15.748,15.748,0,0,0,4.605,4.823,22.679,22.679,0,0,0-1.41-5.921c.75.309,1.449.659,2.24,1.008l1.582.791a.666.666,0,0,1-.395.047c-.309,0-1.269,1.055-.527,2.762a15.208,15.208,0,0,0,4.605,4.83,20.7,20.7,0,0,0-1.752-6.626c1.833.968,3.373,1.844,4.652,2.635a1.971,1.971,0,0,1-.658.131c-.3,0-1.227,1.049-.522,2.762a15.566,15.566,0,0,0,4.605,4.823,20.755,20.755,0,0,0-1.758-6.668c1.186.75,2.154,1.449,2.939,2.062-.258.309-.481,1.535.791,2.635a16.641,16.641,0,0,0,6.273,2.326c.131-.046-4.474-6.625-6.227-5.66,0,0-.177.172-.35.35-.922-.83-1.89-1.582-2.939-2.412a21.2,21.2,0,0,0,6.626-1.752,15.948,15.948,0,0,0-6.485-1.627c-1.8.177-2.285,1.535-2.114,1.8.045.046.045.131.086.177-1.049-.7-2.28-1.49-3.729-2.371a22.8,22.8,0,0,0,5.883-1.707,15.765,15.765,0,0,0-6.5-1.627c-1.621.177-2.194,1.232-2.148,1.666-.572-.35-1.186-.7-1.844-1.049-.481-.264-1.008-.527-1.621-.836a22.394,22.394,0,0,0,6.01-1.713A15.746,15.746,0,0,0,88.4,81.861c-1.8.217-2.28,1.535-2.115,1.8a1.832,1.832,0,0,1,.178.572,27.015,27.015,0,0,0-22.375,2.584C66.5,83.707,68.481,80.59,70.675,78c7.331-8.553,15.662-6.931,15.662-6.931s-2.24-3.206-8.247-2.633c-8.994.83-10.432,12.414-18.514,21.447a34.849,34.849,0,0,0-2.762,2.371,34.327,34.327,0,0,1-13.121,6.582c-.086-.486-.172-.968-.217-1.5C55.719,94.23,61.991,86.415,61.991,78.7a9.856,9.856,0,0,0-.309-2.5c3.465-2.457,6.54-6.84,6.885-14.3,20.621-.7,34.873-13.164,34.873-30.842C103.442,13.072,88,0,66.729,0H4.657V2.022c15.93.35,18.113,5.613,18.113,24.563V32.5a41.739,41.739,0,0,0-5.963,1.357,21.007,21.007,0,0,0-8.684,4.078,22.238,22.238,0,0,0-5.133,4.83,16.468,16.468,0,0,0-1.363,2.016c0,.046-.039.086-.086.177a4.173,4.173,0,0,1-.264.481v.047a9.679,9.679,0,0,0,.395,8.42M42.95,37.772a32.282,32.282,0,0,1,15.225,4.914c4.48,3.637,7.418,7.367,8.6,12.15a31.352,31.352,0,0,1-11.491,2.016H42.95ZM46.9,98.308c1.627-.7,3.557-1.535,5.7-2.634A29.708,29.708,0,0,1,46.9,98.308ZM61.024,74.4a7.94,7.94,0,0,0-7.59-4.691c-4.56,0-5.921,2.853-6.312,4.3a5.665,5.665,0,0,1-.7-2.939c0-6.272,7.24-7.59,9.738-4.869.572.613,1.5-.435.836-.963-2.984-2.589-11.842-1.666-11.842,5.877,0,6.971,6.668,7.808,8.644,7.808a13.966,13.966,0,0,0,7.1-2.107,8.93,8.93,0,0,1,.264,2.154c0,5.086-3.683,13.244-17.894,16.182-.223-2.5-.264-5.3-.264-8.553V62.027h24.26c-.572,6.313-3.242,10.133-6.232,12.367m-.791.527a12.554,12.554,0,0,1-6.485,2.148c-.877,0-4.823-.086-6.536-2.939a6.149,6.149,0,0,1,6.062-3.637,7.429,7.429,0,0,1,6.971,4.428M55.278,5.178c15.93,0,26.23,10.179,26.23,25.926,0,11.1-4.909,19.258-13.422,23.16-2.679-16.273-15.437-21-25.093-22.237V5.178Z" transform="translate(36.13 32.522)" fill="#fff"/>
  </g>
</svg>
