<svg xmlns="http://www.w3.org/2000/svg" width="48" height="48" viewBox="0 0 48 48">
  <g transform="translate(-0.002)">
    <rect width="48" height="48" transform="translate(0.002)" fill="none"/>
    <g transform="translate(0.002 6)">
      <g transform="translate(4)">
        <path id="icon" d="M11.868,2.25a9.628,9.628,0,0,1,9.618,9.618A16.567,16.567,0,0,1,19.2,18.552L11.868,32.162,4.539,18.55A16.554,16.554,0,0,1,2.25,11.868,9.628,9.628,0,0,1,11.868,2.25m0,15.058a5.439,5.439,0,1,0-5.44-5.44,5.439,5.439,0,0,0,5.44,5.44M11.868,0A11.881,11.881,0,0,0,0,11.868a19.1,19.1,0,0,0,2.557,7.75l8.595,15.96a.817.817,0,0,0,1.431,0l8.595-15.96a19.1,19.1,0,0,0,2.55-7.75A11.881,11.881,0,0,0,11.868,0m0,15.058a3.183,3.183,0,1,1,2.258-.932,3.189,3.189,0,0,1-2.258.932" transform="translate(3.333)" fill="#333"/>
      </g>
      <g transform="translate(23.999 20)">
        <circle cx="8" cy="8" r="8" fill="#d81e05"/>
        <path d="M-1.389-10.611h1.1a.25.25,0,0,0,.27-.229L.9-16.571C.929-16.733.858-16.8.715-16.8H-.764c-.156,0-.228.067-.256.229l-.568,5.731C-1.617-10.692-1.546-10.611-1.389-10.611ZM-1.276-7.4A1.418,1.418,0,0,0,.147-8.567a1.083,1.083,0,0,0-.3-.829,1.083,1.083,0,0,0-.82-.328A1.448,1.448,0,0,0-2.385-8.567a1.026,1.026,0,0,0,.27.855A1.026,1.026,0,0,0-1.276-7.4Z" transform="translate(8.561 19.715)" fill="#fff"/>
      </g>
    </g>
  </g>
</svg>
