<svg width="34" height="34" viewBox="0 0 34 34" fill="none" xmlns="http://www.w3.org/2000/svg">
<g id="Section container">
<path d="M1 16.814C1 8.08015 8.08015 1 16.814 1V1C25.5478 1 32.6279 8.08015 32.6279 16.814V17.186C32.6279 25.9199 25.5478 33 16.814 33V33C8.08015 33 1 25.9198 1 17.186V16.814Z" stroke="#E0E0E0" stroke-linejoin="bevel"/>
<path id="icon" fill-rule="evenodd" clip-rule="evenodd" d="M16.5179 27.2518C16.3638 27.2518 16.216 27.1898 16.1073 27.0798L9.10588 20.0185C8.14111 19.0926 7.45818 17.9071 7.13836 16.601C6.6412 14.4363 7.50991 12.1861 9.32543 10.9355C10.2047 10.3257 11.2455 9.99894 12.3115 10C13.8706 10.032 15.361 10.6504 16.4946 11.7333C17.6251 10.6514 19.1145 10.0331 20.6704 10C21.7396 9.99894 22.7846 10.3268 23.666 10.9387C25.4857 12.1872 26.3587 14.4406 25.8625 16.6074C25.5438 17.9104 24.863 19.0926 23.9003 20.0164L16.9338 27.0777C16.824 27.1898 16.6741 27.2528 16.5179 27.2518" fill="#D81E05"/>
</g>
</svg>
