<svg id="icon-error-exclamation_mark" data-name="icon-error-exclamation mark" xmlns="http://www.w3.org/2000/svg" width="32" height="32" viewBox="0 0 32 32">
  <g id="Groupe_13948" data-name="Groupe 13948">
    <circle id="BG" cx="16" cy="16" r="16" fill="#d81e05"/>
    <path id="_" data-name="!" d="M-.382-4.423h2.19a.5.5,0,0,0,.54-.457L4.2-16.343c.057-.323-.085-.457-.37-.457H.87c-.313,0-.455.135-.512.457L-.78-4.88C-.837-4.584-.695-4.423-.382-4.423Zm.228,6.431A2.836,2.836,0,0,0,2.69-.333,2.166,2.166,0,0,0,.443-2.647,2.9,2.9,0,0,0-2.373-.333,2.051,2.051,0,0,0-.154,2.008Z" transform="translate(14.725 22.63)" fill="#fff"/>
  </g>
</svg>
