<svg xmlns="http://www.w3.org/2000/svg" xmlns:xlink="http://www.w3.org/1999/xlink" width="183" height="184" viewBox="0 0 183 184">
  <defs>
    <clipPath id="clip-icone-69831-moi">
      <rect width="183" height="184"/>
    </clipPath>
  </defs>
  <g id="icone-69831-moi" clip-path="url(#clip-icone-69831-moi)">
    <g id="big-menu-icon-on" transform="translate(26.5 25)">
      <rect id="bg" width="131" height="131" transform="translate(0)" fill="none"/>
      <g id="Groupe_101421" data-name="Groupe 101421" transform="translate(0 26.742)">
        <path id="moi" d="M114.837.8h13.329V43.891H114.837ZM80.466,22.347a9.069,9.069,0,1,0,9.019-9.019,9.04,9.04,0,0,0-9.019,9.019Zm31.229-1.274A22.518,22.518,0,0,1,89.484,44.593a22.247,22.247,0,1,1,22.211-23.519ZM64.038,17.435V43.891H50.71V21.444c0-6.314-3.005-8.117-6.013-8.117s-6.013,1.805-6.013,8.117V43.891H25.355V21.444c0-6.314-3.005-8.117-6.013-8.117s-6.013,1.805-6.013,8.117V43.891H0V.8H13.127V4.811A13.033,13.033,0,0,1,23.65,0,13.775,13.775,0,0,1,34.872,5.211C37.979,1.5,42.588.1,47.1.1c9.619,0,16.934,6.113,16.934,17.335Z" transform="translate(0 20.446)" fill="#fff"/>
        <path id="point" d="M18.986,9.493A9.493,9.493,0,1,1,9.493,0,9.492,9.492,0,0,1,18.986,9.493Z" transform="translate(112.014 0)" fill="#ff3000"/>
        <path id="moi-2" data-name="moi" d="M114.837.8h13.329V43.891H114.837ZM80.466,22.347a9.069,9.069,0,1,0,9.019-9.019,9.04,9.04,0,0,0-9.019,9.019Zm31.229-1.274A22.518,22.518,0,0,1,89.484,44.593a22.247,22.247,0,1,1,22.211-23.519ZM64.038,17.435V43.891H50.71V21.444c0-6.314-3.005-8.117-6.013-8.117s-6.013,1.805-6.013,8.117V43.891H25.355V21.444c0-6.314-3.005-8.117-6.013-8.117s-6.013,1.805-6.013,8.117V43.891H0V.8H13.127V4.811A13.033,13.033,0,0,1,23.65,0,13.775,13.775,0,0,1,34.872,5.211C37.979,1.5,42.588.1,47.1.1c9.619,0,16.934,6.113,16.934,17.335Z" transform="translate(0 20.446)" fill="#fff"/>
        <path id="point-2" data-name="point" d="M18.986,9.493A9.493,9.493,0,1,1,9.493,0,9.492,9.492,0,0,1,18.986,9.493Z" transform="translate(112.014 0)" fill="#ff3000"/>
      </g>
    </g>
  </g>
</svg>
