<svg xmlns="http://www.w3.org/2000/svg" xmlns:xlink="http://www.w3.org/1999/xlink" width="183" height="184" viewBox="0 0 183 184">
  <defs>
    <clipPath id="clip-icone-61020-biere">
      <rect width="183" height="184"/>
    </clipPath>
  </defs>
  <g id="icone-61020-biere" clip-path="url(#clip-icone-61020-biere)">
    <g id="biere" transform="translate(50.515 27.38)">
      <path id="Tracé_55026" data-name="Tracé 55026" d="M.176,50.584v-39.5c0-.864.043-1.728.009-2.592C.133,6.979.832,6.314,2.327,6.383c.752.035,1.512,0,2.264,0h64.1c.536,0,1.08-.009,1.616,0,2.653.078,2.764.156,2.825,2.722.051,2.376-.026,4.752.034,7.119.06,2.531.311,2.825,2.8,2.886,3.231.078,6.472,0,9.711.043,3.361.043,3.793.406,3.8,3.715q.039,28.006,0,56.012c0,3.318-.432,3.646-3.793,3.672-3.24.026-6.48-.035-9.712.034-2.479.052-2.73.337-2.8,2.86-.06,2.16.035,4.32-.052,6.472-.155,4.043-2.367,6.376-6.367,6.817a23.42,23.42,0,0,1-2.584.078q-27.513,0-55.036.026A9.342,9.342,0,0,1,2.344,96.5,6.6,6.6,0,0,1,.167,91.053c.026-8.743,0-17.478,0-26.222V50.584Zm84.273.009V45.418c0-6.143.018-12.295-.009-18.438-.017-3.093-.207-3.24-3.335-3.318-1.184-.026-2.376-.009-3.559,0-4.864.009-4.882.009-4.882,4.83V73.125c0,.752.026,1.512.035,2.264.017,1.616.838,2.307,2.445,2.264,1.935-.052,3.879.018,5.823,0,3.37-.043,3.473-.112,3.482-3.439.026-7.871,0-15.742.009-23.613ZM51.194,51.854c0,6.351-.035,12.7.026,19.059a15.773,15.773,0,0,0,.57,3.793,2.847,2.847,0,0,0,2.843,2.212c1.486.069,2.877-.242,3.456-1.8a11.965,11.965,0,0,0,1-3.983c.078-12.7.052-25.41.026-38.11a8.38,8.38,0,0,0-.346-2.54c-.587-1.815-1.97-2.618-4.035-2.515a3.332,3.332,0,0,0-3.361,2.912A14.7,14.7,0,0,0,51.2,33.78c-.017,6.031,0,12.061,0,18.092Zm-28.987.3v-6.48c0-4.64.052-9.288-.043-13.928-.052-2.419-1.313-3.637-3.525-3.818a3.66,3.66,0,0,0-4.009,3,11.117,11.117,0,0,0-.346,2.877c-.017,12.3-.043,24.615.026,36.918a14.178,14.178,0,0,0,.838,4.061,2.942,2.942,0,0,0,3.223,2.151,3.1,3.1,0,0,0,3.214-2.22,14.528,14.528,0,0,0,.6-3.784c.06-6.264.026-12.519.026-18.783Zm18.187.043V49.617c0-5.823.035-11.638-.026-17.461-.026-2.713-1.132-3.948-3.473-4.2-2.134-.233-3.62,1.028-4.138,3.594a12.788,12.788,0,0,0-.251,2.566c-.017,12.07-.043,24.149.026,36.218a17.022,17.022,0,0,0,.829,4.406,2.681,2.681,0,0,0,2.851,2.16c1.547-.086,3.1-.432,3.629-2.142a12.073,12.073,0,0,0,.527-3.465c.052-6.359.026-12.718.026-19.077Z" transform="translate(0.549 20.971)" fill="#fff"/>
      <path id="Tracé_55027" data-name="Tracé 55027" d="M43.077,4.544c.924-.691,1.875-1.382,2.791-2.1C50.845-1.478,56.814-.622,60.331,4.6a1.98,1.98,0,0,0,2.4.994A13.1,13.1,0,0,1,66.258,5.3c3.62.225,5.927,2.186,7.007,5.676a14.758,14.758,0,0,1,.147,9.53c-.812,2.307-1.244,2.661-3.758,2.678-4.968.035-9.936.017-14.895.017H5.2c-3.905,0-4.691-.674-5.1-4.545a27.254,27.254,0,0,1-.043-4.2A8.915,8.915,0,0,1,8.354,6.022,4.082,4.082,0,0,0,11.9,4.337c1.953-2.67,6.7-2.264,8.623.553.363.536.562,1.175.925,1.7,1.158,1.7,2.246,1.909,4.026.726a11.264,11.264,0,0,1,6.013-2.091,3.7,3.7,0,0,0,2.255-.9c3.534-3.318,5.866-3.318,9.322.216Z" transform="translate(0 0)" fill="#fff"/>
    </g>
  </g>
</svg>
