<svg width="16" height="16" viewBox="0 0 16 16" fill="none" xmlns="http://www.w3.org/2000/svg">
<path fill-rule="evenodd" clip-rule="evenodd" d="M7.21875 13.2178V8.78516H2.78516C2.35547 8.78516 2 8.43555 2 8C2 7.56934 2.35547 7.2207 2.78516 7.2207H7.21875V2.78711C7.21875 2.35156 7.56641 2.00195 8.00391 2.00195C8.4336 2.00195 8.78321 2.35156 8.78321 2.78711V7.2207H13.2188C13.6523 7.2207 14 7.56933 14 8C14 8.43555 13.6523 8.78516 13.2188 8.78516H8.78321V13.2178C8.78321 13.6484 8.4336 14.002 8.00391 14.002C7.56641 14.002 7.21875 13.6484 7.21875 13.2178Z" fill="#fff"/>
</svg>
