<svg id="icon-beer-and-wine" xmlns="http://www.w3.org/2000/svg" width="48" height="48" viewBox="0 0 48 48">
  <rect id="bg" width="48" height="48" fill="none"/>
  <path id="icon" d="M3019.857,613a2.532,2.532,0,0,1-2.52-2.527V582.229h24.282v4.131h4.538a.826.826,0,0,1,.1,0,.8.8,0,0,1,.746.843V606.6a.888.888,0,0,1,0,.1.8.8,0,0,1-.841.748h-4.538v3.032A2.532,2.532,0,0,1,3039.1,613Zm21.679-7.248h3.7V588.047h-3.7Zm-19.5-15.176v13.709a1.238,1.238,0,0,0,1.263,1.214,1.3,1.3,0,0,0,1.261-1.265l0-13.657a1.262,1.262,0,0,0-1.259-1.264h0A1.261,1.261,0,0,0,3022.04,590.576Zm12.186,0v13.7a1.238,1.238,0,0,0,1.26,1.218,1.294,1.294,0,0,0,1.261-1.265V590.576a1.294,1.294,0,0,0-1.261-1.265h-.046A1.24,1.24,0,0,0,3034.226,590.576Zm-6.133,0v13.7a1.239,1.239,0,0,0,1.26,1.218,1.294,1.294,0,0,0,1.26-1.265V590.576a1.262,1.262,0,0,0-1.26-1.264h0A1.262,1.262,0,0,0,3028.093,590.576Zm-10.506-9.809a4.473,4.473,0,0,1-.588-2.192c0-2.533,2.017-3.962,3.614-3.456.924-1.854,3.11-1.519,3.7.505a3.024,3.024,0,0,1,.92.338,2.614,2.614,0,0,1,2.863-1.18,1.81,1.81,0,0,1,3.361.084v0c1.512-2.612,4.622-2.443,5.966.253,1.846-1.265,4.367.338,4.367,3.289a4.331,4.331,0,0,1-.673,2.359Z" transform="translate(-3008 -569)" fill="#1269a2" stroke="rgba(0,0,0,0)" stroke-width="1"/>
</svg>
