<svg id="icon-pet-care" xmlns="http://www.w3.org/2000/svg" width="48" height="48" viewBox="0 0 48 48">
  <rect id="bg" width="48" height="48" fill="none"/>
  <path id="icon" d="M29.223,0h-.009A10.762,10.762,0,0,0,20,5.2,10.777,10.777,0,0,0,0,10.792c0,12.748,20,24.38,20,24.38s20-11.631,20-24.38A10.783,10.783,0,0,0,29.223,0M21.277,9.521c.445-2.051,1.948-3.465,3.355-3.156s2.187,2.219,1.741,4.265-1.948,3.465-3.355,3.156-2.187-2.214-1.741-4.265M15.361,6.365c1.407-.3,2.906,1.11,3.355,3.156s-.336,3.963-1.741,4.265-2.906-1.11-3.355-3.156.336-3.963,1.741-4.265M8.809,16.514c-.769-1.651-.464-3.42.67-3.948s2.677.387,3.445,2.046.464,3.42-.67,3.948-2.68-.395-3.445-2.046m18.349,9.929h-.007a1.6,1.6,0,0,1-2.555.736,7.253,7.253,0,0,0-6.737-1.321,7.1,7.1,0,0,0-2.452,1.321,1.6,1.6,0,0,1-2.259-.189,1.577,1.577,0,0,1-.3-.547,8.322,8.322,0,0,1,2.078-8.31,7.116,7.116,0,0,1,10.064-.091l.091.091a8.322,8.322,0,0,1,2.078,8.31m4.029-9.929h0c-.769,1.651-2.3,2.568-3.445,2.046s-1.438-2.29-.67-3.948,2.3-2.568,3.445-2.046,1.44,2.289.674,3.948" transform="translate(4 9)" fill="#f18e00"/>
</svg>
