<svg id="icon-household-and-cleaning" xmlns="http://www.w3.org/2000/svg" width="48" height="48" viewBox="0 0 48 48">
  <rect id="bg" width="48" height="48" fill="none"/>
  <path id="icon" d="M2937.254-194.008a4.26,4.26,0,0,1-4.253-4.26v-15.677a10.4,10.4,0,0,1,3.843-8.2h14.019a10.644,10.644,0,0,1,3.783,8.2v15.677a4.261,4.261,0,0,1-4.261,4.26Zm18.1-26.3a75.5,75.5,0,0,1-5.666-7.237h2.07a3.628,3.628,0,0,0,2.938-1.479,38.309,38.309,0,0,0,3.472,6.462,1.792,1.792,0,0,1-.327,2.457,1.8,1.8,0,0,1-1.136.4A1.806,1.806,0,0,1,2955.35-220.306Zm-17.126-3.139a5.393,5.393,0,0,0,1.515-4.1h8.156a5.751,5.751,0,0,0,1.517,4.1Zm.118-5.4a4.078,4.078,0,0,1-4.079-4.077,4.079,4.079,0,0,1,4.079-4.079h13.41a2.371,2.371,0,0,1,2.364,2.364v3.433a2.367,2.367,0,0,1-2.364,2.359Zm18.581-1.4h-1.634a3.8,3.8,0,0,0,.13-.964v-3.425a3.718,3.718,0,0,0-.13-.964h1.635a1.22,1.22,0,0,1,1.224,1.219v2.915a1.222,1.222,0,0,1-1.221,1.219Z" transform="translate(-2920 240)" fill="#1269a2" stroke="rgba(0,0,0,0)" stroke-width="1"/>
</svg>
