<svg xmlns="http://www.w3.org/2000/svg" width="24" height="24" viewBox="0 0 24 24" fill="none">
  <path fill-rule="evenodd" clip-rule="evenodd" d="M3.81342 24C3.39166 24 3.04937 23.664 3.04937 23.25C3.04937 22.836 3.39166 22.5 3.81342 22.5H21.6708V3.23701C21.6708 2.82401 22.011 2.49001 22.4308 2.49001C22.8505 2.49001 23.1907 2.82401 23.1907 3.23701V23.252C23.1907 23.664 22.8484 23.998 22.4287 23.998H22.4267L3.81342 24ZM1.78309 20.936C1.36337 20.936 1.02108 20.604 1.01904 20.192V0.746009C1.02108 0.334009 1.36337 8.93533e-06 1.78309 8.93533e-06H19.0465C19.4683 -0.00199106 19.8085 0.332009 19.8106 0.746009V20.192C19.8085 20.604 19.4663 20.938 19.0465 20.936H1.78309ZM2.54408 19.436H18.2906V1.49201H2.54714L2.54408 19.436ZM5.70113 16.985C5.27937 16.985 4.93708 16.649 4.93708 16.235C4.93708 15.821 5.27937 15.485 5.70113 15.485H15.1203C15.5421 15.485 15.8844 15.821 15.8844 16.235C15.8844 16.649 15.5421 16.985 15.1203 16.985H5.70113ZM5.70113 13.992C5.27937 13.992 4.93708 13.656 4.93708 13.242C4.93708 12.828 5.27937 12.492 5.70113 12.492H15.1203C15.5421 12.492 15.8844 12.828 15.8844 13.242C15.8844 13.656 15.5421 13.992 15.1203 13.992H5.70113ZM11.947 9.46901L12.711 6.05701C12.7171 6.02801 12.7212 5.99601 12.7233 5.96501V5.95901C12.7212 5.85201 12.6754 5.75001 12.5939 5.67801C12.5633 5.66001 12.5338 5.64301 12.4981 5.62501C12.4268 5.58801 12.3453 5.57101 12.2638 5.57301C11.9531 5.57101 11.678 5.76601 11.5864 6.05701L10.859 9.46901H8.6361L9.4521 6.03901C9.46025 6.00601 9.46331 5.97301 9.46331 5.94001C9.46331 5.83401 9.42052 5.73501 9.34004 5.66401C9.30438 5.63501 9.26465 5.61001 9.22085 5.59401C9.15565 5.56301 9.08332 5.54701 9.00997 5.54701C8.69926 5.54701 8.42522 5.74601 8.33353 6.03701L7.49817 9.46701H5.32929L6.08926 6.19401C6.15446 5.90101 6.25226 5.61701 6.38164 5.34601C6.51102 5.07801 6.68624 4.83601 6.89916 4.62901C7.13551 4.41401 7.4126 4.24601 7.71517 4.13901C8.09516 4.00801 8.49654 3.94601 8.90097 3.95301C8.99062 3.95301 9.08332 3.95301 9.1852 3.95901C9.29624 3.96701 9.4083 3.98101 9.51934 4.00001C10.0053 4.07801 10.4484 4.31501 10.7795 4.67001V4.67601L10.7907 4.67001C11.0892 4.45901 11.4162 4.29101 11.7595 4.17001C12.1079 4.04101 12.4767 3.96901 12.8486 3.96101H12.8903C13.1389 3.95901 13.3895 3.98101 13.634 4.02601C13.7114 4.04301 13.7817 4.06101 13.853 4.08401C14.0904 4.14901 14.3084 4.26001 14.4999 4.41201C14.6589 4.55501 14.7801 4.73101 14.8596 4.92601C14.9411 5.12701 14.9818 5.34401 14.9757 5.56101C14.9737 5.77201 14.9472 5.98301 14.8993 6.19001L14.1414 9.46901H11.947Z" fill="#333333"/>
</svg>