<svg xmlns="http://www.w3.org/2000/svg" width="19" height="19" viewBox="0 0 19 19" fill="none">
    <path fill-rule="evenodd" clip-rule="evenodd" d="M8.81279 16.48C8.81279 17.3253 9.40238 18.1676 10.4305 18.7911C10.5521 18.8651 10.6786 18.934 10.8079 18.9993H4.58955C4.31653 19.0093 4.08115 18.8102 4.04532 18.5394L3.08747 7.66795H2.93418C2.76955 7.67339 2.61081 7.60718 2.49879 7.48654C2.39131 7.37543 2.35003 7.21579 2.38995 7.06658L2.52101 6.4466C2.72102 5.64114 3.45528 5.08375 4.28523 5.10779H7.33339V1.69183C7.33248 1.47323 7.47398 1.27912 7.68215 1.21245L11.0791 0.0332779C11.3603 -0.0660438 11.6705 0.0636658 11.7979 0.33306C11.7986 0.334959 11.7992 0.336838 11.7999 0.338705C11.8024 0.345758 11.8048 0.352645 11.807 0.359818C11.8891 0.627399 11.7389 0.910853 11.4714 0.992941L8.44453 2.03197V5.08965H11.4936C12.3213 5.07196 13.0524 5.62662 13.2578 6.42846L13.3884 7.04617C13.4283 7.19537 13.3871 7.35502 13.2796 7.46613C13.1676 7.58632 13.0088 7.65253 12.8442 7.64754H12.6696L12.1331 13.4781C11.5222 13.6291 10.9376 13.8622 10.4305 14.1697C9.40238 14.7929 8.81279 15.6351 8.81279 16.48ZM4.7433 10.8454C5.63946 10.7909 6.53427 10.9769 7.33429 11.3846L7.3343 7.64754H4.19906L4.48206 10.8853C4.56733 10.8626 4.65486 10.849 4.7433 10.8454ZM11.5589 7.64709H8.44453L8.44453 11.8449C9.02957 12.0876 9.66496 12.1837 10.2958 12.1243C10.601 12.0844 10.9004 12.0105 11.1893 11.9043L11.5589 7.64709ZM9.49443 16.4815C9.49443 17.7351 11.536 19 13.6912 19C15.6056 19 16.7687 17.9544 16.7687 16.4815C16.7687 15.0093 15.6055 13.9637 13.6912 13.9637C11.5358 13.9637 9.49443 15.2285 9.49443 16.4815Z" fill="white"/>
</svg>