<svg id="logo-moi" xmlns="http://www.w3.org/2000/svg" width="271.389" height="135.174" viewBox="0 0 271.389 135.174">
  <path id="Vector" d="M37.1,18.557A18.551,18.551,0,1,1,18.551,0,18.554,18.554,0,0,1,37.1,18.557Z" transform="matrix(0.019, -1, 1, 0.019, 233.576, 37.096)" fill="#ff3000"/>
  <path id="Vector-2" data-name="Vector" d="M0,0H27.122V87.658H0Z" transform="translate(238.936 46.089)" fill="#fff"/>
  <path id="Vector-3" data-name="Vector" d="M90.538,45.256A45.269,45.269,0,1,1,45.269,0,45.262,45.262,0,0,1,90.538,45.256ZM45.269,26.7A18.551,18.551,0,1,0,63.826,45.256,18.554,18.554,0,0,0,45.269,26.7Z" transform="translate(139.248 44.663)" fill="#fff"/>
  <path id="Vector-4" data-name="Vector" d="M27.049,89.081H0V1.66H26.646v8.411A26.642,26.642,0,0,1,48,0c8.543,0,16.881,3.083,22.778,10.606C77.081,3.086,86.437,0,95.587,0c22.913,0,34.386,16.142,34.386,38.913V89.085H102.747V42.264c0-10.068-3.66-15.336-12.118-15.336S78.511,32.2,78.511,42.264V89.085H51.285V42.264c0-10.052-4.256-15.336-12.118-15.336S27.049,32.2,27.049,42.264V89.085Z" transform="translate(0 44.663)" fill="#fff"/>
</svg>
