<svg id="logo-unlimited-delivery" xmlns="http://www.w3.org/2000/svg" width="194.045" height="64.986" viewBox="0 0 194.045 64.986">
  <path id="Tracé_5249" data-name="Tracé 5249" d="M12.5-8.115a1.9,1.9,0,0,0,1.875-.91,5.486,5.486,0,0,0,.464-2.47V-25.236h9.693V-10.6q0,5.942-3.175,8.857T12.5,1.169q-5.608,0-8.783-2.915T.54-10.6V-25.236h9.693V-11.5a5.486,5.486,0,0,0,.464,2.47A1.828,1.828,0,0,0,12.5-8.115Zm22.877-1.82h-.26V.8H25.459V-25.236h9.582L41.02-13.575h.3V-25.236h9.656V.8H41.392ZM71.919.8H51.9V-25.236h9.656V-7.41H71.919Zm.928,0V-25.236H82.5V.8ZM93.385-6.444h-.3V.8H83.432V-25.236H92.2l5.162,10.993h.223l5.088-10.993h8.8V.8h-9.656V-6.444h-.3L99.958-3.25H95.019ZM112.4.8V-25.236h9.656V.8Zm10.584-26.034h23.731v8.8h-7.056V.8H130V-16.434h-7.019Zm44.454,10.659v4.605H157.3v2.637h11.476V.8H147.643V-25.236h21.131V-17.1H157.3v2.525ZM180.139.8h-10.25V-25.236H180.1q6.833,0,10.659,3.435t3.825,9.526q0,6.091-3.844,9.582T180.139.8Zm.52-7.985A3.55,3.55,0,0,0,183.574-8.3a6.147,6.147,0,0,0,.91-3.825,6.06,6.06,0,0,0-.91-3.807,3.581,3.581,0,0,0-2.915-1.1h-1.114v9.842Z" transform="translate(-0.54 25.236)" fill="#771419"/>
  <path id="Tracé_5250" data-name="Tracé 5250" d="M21.965,1.208H10.725V-27.339h11.2q7.493,0,11.688,3.767t4.194,10.445q0,6.679-4.215,10.507T21.965,1.208Zm.57-8.755a3.892,3.892,0,0,0,3.2-1.222,6.74,6.74,0,0,0,1-4.194q0-2.973-1-4.174a3.927,3.927,0,0,0-3.2-1.2H21.313V-7.548Zm37.709-8.1v5.05H49.127v2.891H61.71V1.208H38.539V-27.339H61.71v8.918H49.127v2.769ZM84.678,1.208H62.728V-27.339H73.316V-7.792H84.678Zm1.018,0V-27.339H96.284V1.208Zm11.2-28.547h12.38l2.077,13.6h.163l2.077-13.6h12.38L116.442,1.208H106.424Zm51.392,11.688v5.05H137.17v2.891h12.583V1.208H126.582V-27.339h23.171v8.918H137.17v2.769ZM179.359,1.208H165.472L162.3-6.082h-.937V1.208H150.771V-27.339h12.013q6.6,0,10.2,2.871a9.355,9.355,0,0,1,3.6,7.717,10.075,10.075,0,0,1-1.079,4.642,9.174,9.174,0,0,1-3.156,3.5Zm-14.131-18.04a2.055,2.055,0,0,0-.753-1.751,3.118,3.118,0,0,0-1.934-.57h-1.181v4.846h1.181a2.8,2.8,0,0,0,1.934-.672A2.355,2.355,0,0,0,165.228-16.832Zm23.864-1.181h.326l2.973-9.326h12.38L194.589-8.851V1.208H184V-8.851L173.7-27.339h12.38Z" transform="translate(-10.725 63.778)" fill="#d81e05"/>
</svg>
