<svg xmlns="http://www.w3.org/2000/svg" xmlns:xlink="http://www.w3.org/1999/xlink" width="115" height="48" viewBox="0 0 115 48">
  <defs>
    <clipPath id="clip-metro-logo-en">
      <rect width="115" height="48"/>
    </clipPath>
  </defs>
  <g id="metro-logo-en" clip-path="url(#clip-metro-logo-en)">
    <g id="logo_metro-en" transform="translate(0.448 1.012)">
      <g id="fierement_dici" transform="translate(-384.65 -27.863)">
        <rect id="background" width="113.86" height="18.29" rx="9.145" transform="translate(384.65 55.549)" fill="#167bd9"/>
        <g id="text">
          <path id="Caminho_60448" data-name="Caminho 60448" d="M.1,11.46H1.68l.36-2.57a1.36,1.36,0,0,0,1.49,1.22c1.32,0,2.28-1.19,2.28-3.06,0-1.24-.63-2.07-1.75-2.07A1.762,1.762,0,0,0,2.37,6.32,2.56,2.56,0,0,0,2.21,5.1H.99ZM3.09,9.07c-.53,0-.89-.39-.89-1.15,0-1.02.48-1.84,1.17-1.84.57,0,.85.39.85,1.01C4.22,8.39,3.76,9.07,3.09,9.07ZM6.18,10H7.76L8,8.3c.21-1.49.91-1.9,2.04-1.81l.16-1.2a.529.529,0,0,0-.53-.26c-.51,0-1.13.43-1.49,1.68A3.936,3.936,0,0,0,8.09,5.1H6.86Zm6.45.11a2.564,2.564,0,0,0,2.7-2.88,2.147,2.147,0,0,0-2.36-2.25,2.643,2.643,0,0,0-2.7,2.84A2.172,2.172,0,0,0,12.63,10.11Zm.02-1.01c-.43,0-.82-.21-.82-1.05,0-1.23.37-2.03,1.11-2.03.5,0,.83.29.83,1.07C13.77,8.4,13.34,9.1,12.65,9.1Zm4.74,1.02a1.756,1.756,0,0,0,1.68-1.3A3.071,3.071,0,0,0,19.19,10h1.22l.69-4.9H19.52l-.34,2.44c-.15,1.05-.55,1.52-1.1,1.52-.46,0-.68-.28-.59-.89l.43-3.07H16.33l-.42,3.03C15.73,9.47,16.35,10.12,17.39,10.12Zm7.5-1.14A1.777,1.777,0,0,0,25.07,10h1.21l.95-6.73H25.64l-.4,2.83A1.334,1.334,0,0,0,23.8,4.99c-1.33,0-2.32,1.18-2.32,2.96,0,1.26.61,2.16,1.76,2.16A1.754,1.754,0,0,0,24.89,8.98ZM23.07,7.96c0-1.08.41-1.9,1.15-1.9.5,0,.86.34.86,1.09,0,1.22-.56,1.9-1.19,1.9C23.35,9.05,23.07,8.62,23.07,7.96ZM27.21,10h1.58l.95-6.73H28.16Zm3.6,1.56a2.058,2.058,0,0,0,2.02-1.42L35.24,5.1H33.75l-1.5,3.41L31.61,5.1H30.05l1.06,4.7h.4l-.07.16a.755.755,0,0,1-.76.45,2.266,2.266,0,0,1-.93-.18l-.14.99A1.773,1.773,0,0,0,30.81,11.56ZM36.93,10h1.58l.95-6.73H37.88Zm5.04.11a2.564,2.564,0,0,0,2.7-2.88,2.147,2.147,0,0,0-2.36-2.25,2.643,2.643,0,0,0-2.7,2.84A2.172,2.172,0,0,0,41.97,10.11Zm.02-1.01c-.43,0-.82-.21-.82-1.05,0-1.23.37-2.03,1.11-2.03.5,0,.83.29.83,1.07C43.11,8.4,42.68,9.1,41.99,9.1Zm5.53,1.02a1.854,1.854,0,0,0,1.51-.57l.13-.86a3.246,3.246,0,0,1-1.24.28c-.71,0-1.16-.28-1.16-1.09,0-1.05.39-1.64,1.27-1.64a2.266,2.266,0,0,1,1.31.38l.14-1.01a1.766,1.766,0,0,0-1.56-.63,2.629,2.629,0,0,0-2.73,2.86A2.126,2.126,0,0,0,47.52,10.12Zm3.46.01a1.543,1.543,0,0,0,1.46-.95,1.839,1.839,0,0,0,.16.82h1.38a4.15,4.15,0,0,1,.08-1.35l.21-1.49a1.709,1.709,0,0,0-1.92-2.18,2.653,2.653,0,0,0-1.97.7l-.14.97a3.425,3.425,0,0,1,1.59-.41c.71,0,.92.2.92.47,0,.33-.19.46-1.06.6-1.28.21-2.05.54-2.05,1.53A1.217,1.217,0,0,0,50.98,10.13Zm.74-.87a.46.46,0,0,1-.48-.51c0-.5.33-.63.77-.8a2.177,2.177,0,0,0,.61-.31l-.09.62C52.45,8.85,52.14,9.26,51.72,9.26Zm3.03.74h1.58l.95-6.73H55.7Zm5.21-6.55H58.14l-.2,4.41h.92ZM58.24,10.1a.905.905,0,1,0,0-1.81.905.905,0,0,0,0,1.81Z" transform="translate(411.55 57.279)" fill="#fff"/>
        </g>
      </g>
      <path id="logo" d="M100.774,23.685a14.21,14.21,0,0,1-2.652-.238,9.134,9.134,0,0,1-1.39-.327,9.231,9.231,0,0,1-3.123-1.6,7.2,7.2,0,0,1-1.993-2.508,7.569,7.569,0,0,1-.712-3.3,10.109,10.109,0,0,1,.159-1.753,10.806,10.806,0,0,1,1.688-4.2,11.526,11.526,0,0,1,3.077-3.037,15.1,15.1,0,0,1,8.366-2.456h.033A13.667,13.667,0,0,1,108.68,5a9.714,9.714,0,0,1,2.11,1.031A7.044,7.044,0,0,1,113.1,8.463a7.306,7.306,0,0,1,.9,3.647,10.349,10.349,0,0,1-.178,1.885,10.65,10.65,0,0,1-1.96,4.634,11.182,11.182,0,0,1-3.374,2.981,15.8,15.8,0,0,1-7.681,2.075Zm-1.4-5.27a2.522,2.522,0,0,0,.809.509,3.817,3.817,0,0,0,1.379.246h.033a3.924,3.924,0,0,0,1.688-.366,3.6,3.6,0,0,0,1.363-1.019,5.825,5.825,0,0,0,1.023-1.666,10.281,10.281,0,0,0,.64-2.262,9.854,9.854,0,0,0,.165-1.656,5.448,5.448,0,0,0-.175-1.427,3.067,3.067,0,0,0-.556-1.077,2.513,2.513,0,0,0-1.363-.806,4.208,4.208,0,0,0-.956-.1h-.036a4.066,4.066,0,0,0-3.01,1.266A5.378,5.378,0,0,0,99.3,11.667a8.731,8.731,0,0,0-.681,2.29,9.46,9.46,0,0,0-.175,1.715V15.7A3.576,3.576,0,0,0,99.37,18.416Zm-54.625,5.27a21.222,21.222,0,0,1-2.834-.19,6.376,6.376,0,0,1-.729-.112,12.71,12.71,0,0,1-1.839-.463,7.894,7.894,0,0,1-5.139-7.5v-.01a9.425,9.425,0,0,1,.1-1.3,13.45,13.45,0,0,1,1.159-3.92A9.682,9.682,0,0,1,37.8,7.079a10.25,10.25,0,0,1,3.653-2.05,16.094,16.094,0,0,1,5.078-.741c.154,0,.316.006.464.006a10.24,10.24,0,0,1,2.9.5c.068.028.129.042.194.065a9.272,9.272,0,0,1,2.794,1.52A7.624,7.624,0,0,1,54.9,8.824a7.473,7.473,0,0,1,.773,3.37,10.24,10.24,0,0,1-.326,2.456L55.25,15h-.43l-13.93-.047-.01.01c-.006.081-.006.145-.006.226a3.857,3.857,0,0,0,1.461,2.877,5.5,5.5,0,0,0,2.038,1.08,6.63,6.63,0,0,0,1.9.259c.187,0,.375,0,.581-.018a19.658,19.658,0,0,0,5.95-1.156l.971-.379-1.717,4.529-.185.087a18.853,18.853,0,0,1-7.088,1.214Zm4.478-12.294.006-.01c.022-.215.042-.418.042-.614v-.012A2.56,2.56,0,0,0,48.5,8.8a2.666,2.666,0,0,0-1.349-.625,4.192,4.192,0,0,0-.815-.083H46.3a4.652,4.652,0,0,0-4.482,3.28v.018ZM60.746,21.8A6.235,6.235,0,0,1,59,19.886a5.245,5.245,0,0,1-.685-2.658,6.676,6.676,0,0,1,.177-1.509l1.534-6.482H57.323l.859-4.355h2.654l.61-3.037L68.774,0,67.758,4.883h4.774l-.841,4.355H67.048l-1.346,5.6a3.9,3.9,0,0,0-.1.833,4.064,4.064,0,0,0,.167,1.118c.557,1.8,2.228,1.948,3.924,1.732l-.862,4.634a15.415,15.415,0,0,1-3.018.288h0l-.184,0A8.447,8.447,0,0,1,60.746,21.8ZM22.34,23.173l2.568-11.781a2.2,2.2,0,0,0,.032-.331v-.013a1.318,1.318,0,0,0-.433-.966,2.486,2.486,0,0,0-.316-.2,1.675,1.675,0,0,0-.784-.177H23.4a2.373,2.373,0,0,0-2.272,1.675L18.656,23.173h-7.5l2.761-11.839A1.821,1.821,0,0,0,13.96,11v-.014a1.263,1.263,0,0,0-.432-.951,1.359,1.359,0,0,0-.389-.245,1.718,1.718,0,0,0-.725-.147,2.373,2.373,0,0,0-2.27,1.682L7.326,23.173H0L2.563,11.859a13.882,13.882,0,0,1,.992-2.927A8.439,8.439,0,0,1,5.3,6.468,7.694,7.694,0,0,1,8.043,4.756a11.43,11.43,0,0,1,4-.634c.3,0,.618,0,.95.023a11.027,11.027,0,0,1,1.13.13A7.3,7.3,0,0,1,18.377,6.61l.009.008.023-.008A13.53,13.53,0,0,1,21.7,4.868a10.955,10.955,0,0,1,3.67-.723h.143a11.873,11.873,0,0,1,2.513.23c.261.058.5.114.74.186a5.986,5.986,0,0,1,2.175,1.154,4.644,4.644,0,0,1,1.224,1.76,5.96,5.96,0,0,1,.378,2.2,9.654,9.654,0,0,1-.26,2.169L29.74,23.173Zm49.945-.016L75.95,4.883h7.368s-.31,1.57-.431,2.2l-.008.06.042-.038A8.966,8.966,0,0,1,85.786,5.34a11.638,11.638,0,0,1,1.993-.612,8.168,8.168,0,0,1,1.173-.167c.427-.04.867-.057,1.288-.057s.8.017,1.125.041l.544.063L90.6,10.8h-.475a9.728,9.728,0,0,0-1.145-.054,14.014,14.014,0,0,0-1.685.089,6.852,6.852,0,0,0-1.356.289,10.1,10.1,0,0,0-2.006.845,5.338,5.338,0,0,0-1.363,1.04,4.564,4.564,0,0,0-.871,1.281,8.561,8.561,0,0,0-.556,1.6c-.5,1.987-1.536,7.265-1.536,7.265Z" transform="translate(0.104)" fill="#d81e05" stroke="rgba(0,0,0,0)" stroke-miterlimit="10" stroke-width="1"/>
    </g>
  </g>
</svg>
