<svg id="Metro" xmlns="http://www.w3.org/2000/svg" width="36.459" height="21.417" viewBox="0 0 36.459 21.417">
  <path id="Tracé_1955" data-name="Tracé 1955" d="M81.5,146.358l3.093-13.309a2.083,2.083,0,0,0,.05-.379v-.016a1.422,1.422,0,0,0-.484-1.069,1.531,1.531,0,0,0-.436-.276,1.916,1.916,0,0,0-.812-.165,2.66,2.66,0,0,0-2.543,1.891l-3.158,13.323H69l2.873-12.719a15.583,15.583,0,0,1,1.111-3.29,9.485,9.485,0,0,1,1.958-2.77,8.616,8.616,0,0,1,3.07-1.925,12.781,12.781,0,0,1,4.484-.712c.334,0,.693,0,1.065.026a12.08,12.08,0,0,1,1.267.146,8.174,8.174,0,0,1,4.762,2.625l.01.009.027-.009a15.124,15.124,0,0,1,3.684-1.958,12.237,12.237,0,0,1,4.112-.812h.16a13.224,13.224,0,0,1,2.816.258c.292.064.564.128.829.209a6.7,6.7,0,0,1,2.437,1.3,5.241,5.241,0,0,1,1.371,1.979,6.732,6.732,0,0,1,.424,2.474,10.865,10.865,0,0,1-.292,2.438l-2.847,12.736h-8.29l2.877-13.244a2.492,2.492,0,0,0,.036-.373v-.014a1.484,1.484,0,0,0-.485-1.085,2.856,2.856,0,0,0-.354-.223,1.871,1.871,0,0,0-.879-.2h-.012a2.659,2.659,0,0,0-2.545,1.883L89.9,146.358H81.5" transform="translate(-69 -124.941)" fill="#d81e05"/>
  <path id="Tracé_1955-2" data-name="Tracé 1955" d="M81.5,146.358l3.093-13.309a2.083,2.083,0,0,0,.05-.379v-.016a1.422,1.422,0,0,0-.484-1.069,1.531,1.531,0,0,0-.436-.276,1.916,1.916,0,0,0-.812-.165,2.66,2.66,0,0,0-2.543,1.891l-3.158,13.323H69l2.873-12.719a15.583,15.583,0,0,1,1.111-3.29,9.485,9.485,0,0,1,1.958-2.77,8.616,8.616,0,0,1,3.07-1.925,12.781,12.781,0,0,1,4.484-.712c.334,0,.693,0,1.065.026a12.08,12.08,0,0,1,1.267.146,8.174,8.174,0,0,1,4.762,2.625l.01.009.027-.009a15.124,15.124,0,0,1,3.684-1.958,12.237,12.237,0,0,1,4.112-.812h.16a13.224,13.224,0,0,1,2.816.258c.292.064.564.128.829.209a6.7,6.7,0,0,1,2.437,1.3,5.241,5.241,0,0,1,1.371,1.979,6.732,6.732,0,0,1,.424,2.474,10.865,10.865,0,0,1-.292,2.438l-2.847,12.736h-8.29l2.877-13.244a2.492,2.492,0,0,0,.036-.373v-.014a1.484,1.484,0,0,0-.485-1.085,2.856,2.856,0,0,0-.354-.223,1.871,1.871,0,0,0-.879-.2h-.012a2.659,2.659,0,0,0-2.545,1.883L89.9,146.358H81.5" transform="translate(-69 -124.941)" fill="#d81e05"/>
</svg>
