<svg xmlns="http://www.w3.org/2000/svg" viewBox="0 0 18.79 24">
    <path d="M16.2,24H2.63a1.56,1.56,0,0,1-1.56-1.57V3.65H.52A.52.52,0,0,1,0,3.11a.53.53,0,0,1,.48-.5H5.76v-1A1.57,1.57,0,0,1,7.33,0H11.5a1.58,1.58,0,0,1,1.57,1.57v1H18.3a.51.51,0,0,1,.51.53h0a.51.51,0,0,1-.52.51h-.53V22.43A1.56,1.56,0,0,1,16.2,24ZM2.11,3.65V22.43a.53.53,0,0,0,.52.53H16.2a.52.52,0,0,0,.52-.53V3.65ZM7.33,1a.52.52,0,0,0-.52.53v1H12v-1A.52.52,0,0,0,11.5,1Z"
          transform="translate(-0.02)"/>
    <line x1="5.95" y1="9.97" x2="13.02" y2="17.04" fill="none" stroke="#000" stroke-linecap="round"/>
    <line x1="13.02" y1="9.97" x2="5.95" y2="17.04" fill="none" stroke="#000" stroke-linecap="round"/>
</svg>