<svg xmlns="http://www.w3.org/2000/svg" viewBox="0 0 24 16.08"><g><path d="M8.59,15.28A2.7,2.7,0,0,1,4.05,14V14H.61A.61.61,0,0,1,0,13.37V.61A.61.61,0,0,1,.61,0H15.35A.61.61,0,0,1,16,.61V3.29H20.7l.16,0L21,3.4l.08.07.07.09,2.78,4.36L24,8l0,.06,0,.11v5.16a.61.61,0,0,1-.61.61H22.2V14a2.79,2.79,0,0,1-5.38,0L9.26,14A2.74,2.74,0,0,1,8.59,15.28Zm11-3.38A1.48,1.48,0,1,0,21,13.37,1.48,1.48,0,0,0,19.57,11.89Zm-12.9,0a1.48,1.48,0,1,0,1.48,1.47,1.48,1.48,0,0,0-1.48-1.47Zm12.9-1.22a2.73,2.73,0,0,1,2.62,2v.05h.58V8.86H16v3.9h1v-.05A2.73,2.73,0,0,1,19.57,10.67Zm-12.9,0a2.73,2.73,0,0,1,2.62,2v.05h5.44V1.22H1.22V12.76H4v-.05a2.74,2.74,0,0,1,2.61-2Zm9.29-3h6.31l-2-3.1L16,4.51Z"/></g></svg>