<svg xmlns="http://www.w3.org/2000/svg" xmlns:xlink="http://www.w3.org/1999/xlink" width="183" height="184" viewBox="0 0 183 184">
  <defs>
    <clipPath id="clip-Value-pack">
      <rect width="183" height="184"/>
    </clipPath>
  </defs>
  <g id="Value-pack" clip-path="url(#clip-Value-pack)">
    <g id="Groupe_101472" data-name="Groupe 101472" transform="translate(4685 -2183)">
      <path id="Tracé_120801" data-name="Tracé 120801" d="M692.352,314.969c12.095,4.32,17.278,8.64,17.278,15.552s-6.047,12.1-16.415,12.1c-9.5,0-18.144-3.456-24.192-6.913L664.7,350.391c5.184,3.456,15.551,6.913,25.056,6.913v17.279h13.826V358.168c16.417-2.592,25.92-14.687,25.92-27.651,0-13.826-7.776-21.6-25.057-28.512-13.826-5.184-19.008-9.5-19.008-15.552s3.456-11.232,14.688-11.232a43.906,43.906,0,0,1,20.739,5.184l4.319-14.688a46.606,46.606,0,0,0-21.6-5.184V245.849H690.62v14.688c-15.552,2.592-25.056,13.826-25.056,26.784C665.564,301.145,675.932,308.92,692.352,314.969Z" transform="translate(-5290.704 1959.679)"/>
      <g id="Ellipse_18" data-name="Ellipse 18" transform="translate(-4674 2194)" fill="none" stroke="#000" stroke-width="5">
        <circle cx="80.5" cy="80.5" r="80.5" stroke="none"/>
        <circle cx="80.5" cy="80.5" r="78" fill="none"/>
      </g>
    </g>
  </g>
</svg>
